G04 #@! TF.GenerationSoftware,KiCad,Pcbnew,7.0.10*
G04 #@! TF.CreationDate,2024-08-16T14:30:36-05:00*
G04 #@! TF.ProjectId,DiffPCB,44696666-5043-4422-9e6b-696361645f70,rev?*
G04 #@! TF.SameCoordinates,Original*
G04 #@! TF.FileFunction,Copper,L2,Inr*
G04 #@! TF.FilePolarity,Positive*
%FSLAX46Y46*%
G04 Gerber Fmt 4.6, Leading zero omitted, Abs format (unit mm)*
G04 Created by KiCad (PCBNEW 7.0.10) date 2024-08-16 14:30:36*
%MOMM*%
%LPD*%
G01*
G04 APERTURE LIST*
G04 #@! TA.AperFunction,ViaPad*
%ADD10C,0.800000*%
G04 #@! TD*
G04 APERTURE END LIST*
D10*
X155895000Y-90020000D03*
X151355000Y-75140000D03*
X151385000Y-76010000D03*
X140895000Y-91030000D03*
X149515000Y-93810000D03*
X144875000Y-64500000D03*
X143915000Y-66550000D03*
X156475000Y-97560000D03*
X145925000Y-64520000D03*
X143915000Y-64500000D03*
X143915000Y-65590000D03*
X156575000Y-62470000D03*
X154115000Y-92480000D03*
X140315000Y-64470000D03*
X141365000Y-67610000D03*
X143915000Y-63540000D03*
X146885000Y-65610000D03*
X145925000Y-68600000D03*
X144875000Y-65590000D03*
X144875000Y-66550000D03*
X142325000Y-66540000D03*
X141365000Y-65580000D03*
X142325000Y-63530000D03*
X145925000Y-63560000D03*
X141365000Y-63530000D03*
X140315000Y-67590000D03*
X144875000Y-67620000D03*
X146885000Y-66570000D03*
X146885000Y-67640000D03*
X140315000Y-66520000D03*
X143915000Y-67620000D03*
X142325000Y-67610000D03*
X145925000Y-65610000D03*
X140315000Y-63510000D03*
X143915000Y-68580000D03*
X139355000Y-65560000D03*
X140315000Y-65560000D03*
X142325000Y-64490000D03*
X142325000Y-65580000D03*
X142325000Y-68570000D03*
X146885000Y-68600000D03*
X144875000Y-63540000D03*
X145925000Y-66570000D03*
X144875000Y-68580000D03*
X141365000Y-68570000D03*
X146885000Y-63560000D03*
X139355000Y-64470000D03*
X141365000Y-66540000D03*
X139355000Y-66520000D03*
X141365000Y-64490000D03*
X138585000Y-97300000D03*
X140315000Y-68550000D03*
X139355000Y-68550000D03*
X139355000Y-67590000D03*
X145925000Y-67640000D03*
X146885000Y-64520000D03*
X141755000Y-88970000D03*
X139355000Y-63510000D03*
X151635000Y-84200000D03*
X151555000Y-64910000D03*
X154985000Y-74940000D03*
X150725000Y-94940000D03*
X154995000Y-76010000D03*
X150725000Y-93760000D03*
X151675000Y-65970000D03*
X151665000Y-85050000D03*
X140165000Y-97240000D03*
X148685000Y-83100000D03*
X148685000Y-85040000D03*
X148685000Y-84110000D03*
X138430000Y-85380000D03*
X154415000Y-85230000D03*
X154425000Y-83810000D03*
X154565000Y-67090000D03*
X147025000Y-94210000D03*
X148295000Y-90880000D03*
X152035000Y-91190000D03*
G04 #@! TA.AperFunction,Conductor*
G36*
X156750677Y-62139685D02*
G01*
X156771319Y-62156319D01*
X156898681Y-62283681D01*
X156932166Y-62345004D01*
X156935000Y-62371362D01*
X156935000Y-89557558D01*
X156915315Y-89624597D01*
X156862511Y-89670352D01*
X156793353Y-89680296D01*
X156729797Y-89651271D01*
X156703613Y-89619558D01*
X156627534Y-89487785D01*
X156500870Y-89347111D01*
X156347734Y-89235851D01*
X156347729Y-89235848D01*
X156174807Y-89158857D01*
X156174802Y-89158855D01*
X156029001Y-89127865D01*
X155989646Y-89119500D01*
X155800354Y-89119500D01*
X155767897Y-89126398D01*
X155615197Y-89158855D01*
X155615192Y-89158857D01*
X155442270Y-89235848D01*
X155442265Y-89235851D01*
X155289129Y-89347111D01*
X155162466Y-89487785D01*
X155067821Y-89651715D01*
X155067818Y-89651722D01*
X155009327Y-89831740D01*
X155009326Y-89831744D01*
X154989540Y-90020000D01*
X155009326Y-90208256D01*
X155009327Y-90208259D01*
X155067818Y-90388277D01*
X155067821Y-90388284D01*
X155162467Y-90552216D01*
X155257521Y-90657784D01*
X155289129Y-90692888D01*
X155442265Y-90804148D01*
X155442270Y-90804151D01*
X155615192Y-90881142D01*
X155615197Y-90881144D01*
X155800354Y-90920500D01*
X155800355Y-90920500D01*
X155989644Y-90920500D01*
X155989646Y-90920500D01*
X156174803Y-90881144D01*
X156347730Y-90804151D01*
X156500871Y-90692888D01*
X156627533Y-90552216D01*
X156703613Y-90420440D01*
X156754180Y-90372226D01*
X156822787Y-90359002D01*
X156887651Y-90384970D01*
X156928180Y-90441884D01*
X156935000Y-90482441D01*
X156935000Y-97738598D01*
X156915315Y-97805637D01*
X156898635Y-97826326D01*
X156771364Y-97953462D01*
X156710023Y-97986914D01*
X156683598Y-97989734D01*
X140994727Y-97973220D01*
X140927709Y-97953465D01*
X140882009Y-97900613D01*
X140872139Y-97831444D01*
X140894545Y-97776328D01*
X140897526Y-97772222D01*
X140897533Y-97772216D01*
X140992179Y-97608284D01*
X141050674Y-97428256D01*
X141070460Y-97240000D01*
X141050674Y-97051744D01*
X140992179Y-96871716D01*
X140897533Y-96707784D01*
X140770871Y-96567112D01*
X140770870Y-96567111D01*
X140617734Y-96455851D01*
X140617729Y-96455848D01*
X140444807Y-96378857D01*
X140444802Y-96378855D01*
X140299001Y-96347865D01*
X140259646Y-96339500D01*
X140070354Y-96339500D01*
X140037897Y-96346398D01*
X139885197Y-96378855D01*
X139885192Y-96378857D01*
X139712270Y-96455848D01*
X139712265Y-96455851D01*
X139559129Y-96567111D01*
X139432466Y-96707785D01*
X139337821Y-96871715D01*
X139337818Y-96871722D01*
X139279327Y-97051740D01*
X139279326Y-97051744D01*
X139259540Y-97240000D01*
X139279326Y-97428256D01*
X139279327Y-97428259D01*
X139337818Y-97608277D01*
X139337821Y-97608284D01*
X139432467Y-97772216D01*
X139432470Y-97772219D01*
X139434190Y-97774587D01*
X139434763Y-97776193D01*
X139435716Y-97777844D01*
X139435414Y-97778018D01*
X139457669Y-97840394D01*
X139441843Y-97908447D01*
X139391737Y-97957142D01*
X139333740Y-97971471D01*
X138186271Y-97970263D01*
X138119254Y-97950509D01*
X138098737Y-97933960D01*
X137970983Y-97806250D01*
X137937487Y-97744933D01*
X137934649Y-97718727D01*
X137934244Y-97428259D01*
X137929755Y-94210000D01*
X146119540Y-94210000D01*
X146139326Y-94398256D01*
X146139327Y-94398259D01*
X146197818Y-94578277D01*
X146197821Y-94578284D01*
X146292467Y-94742216D01*
X146419129Y-94882888D01*
X146572265Y-94994148D01*
X146572270Y-94994151D01*
X146745192Y-95071142D01*
X146745197Y-95071144D01*
X146930354Y-95110500D01*
X146930355Y-95110500D01*
X147119644Y-95110500D01*
X147119646Y-95110500D01*
X147304803Y-95071144D01*
X147477730Y-94994151D01*
X147552263Y-94940000D01*
X149819540Y-94940000D01*
X149839326Y-95128256D01*
X149839327Y-95128259D01*
X149897818Y-95308277D01*
X149897821Y-95308284D01*
X149992467Y-95472216D01*
X150119129Y-95612888D01*
X150272265Y-95724148D01*
X150272270Y-95724151D01*
X150445192Y-95801142D01*
X150445197Y-95801144D01*
X150630354Y-95840500D01*
X150630355Y-95840500D01*
X150819644Y-95840500D01*
X150819646Y-95840500D01*
X151004803Y-95801144D01*
X151177730Y-95724151D01*
X151330871Y-95612888D01*
X151457533Y-95472216D01*
X151552179Y-95308284D01*
X151610674Y-95128256D01*
X151630460Y-94940000D01*
X151610674Y-94751744D01*
X151552179Y-94571716D01*
X151459966Y-94411999D01*
X151443494Y-94344100D01*
X151459967Y-94288000D01*
X151505000Y-94210000D01*
X151552179Y-94128284D01*
X151610674Y-93948256D01*
X151630460Y-93760000D01*
X151610674Y-93571744D01*
X151552179Y-93391716D01*
X151457533Y-93227784D01*
X151330871Y-93087112D01*
X151330870Y-93087111D01*
X151177734Y-92975851D01*
X151177729Y-92975848D01*
X151004807Y-92898857D01*
X151004802Y-92898855D01*
X150859001Y-92867865D01*
X150819646Y-92859500D01*
X150630354Y-92859500D01*
X150597897Y-92866398D01*
X150445197Y-92898855D01*
X150445192Y-92898857D01*
X150272270Y-92975848D01*
X150272265Y-92975851D01*
X150119129Y-93087111D01*
X149992466Y-93227785D01*
X149897821Y-93391715D01*
X149897818Y-93391722D01*
X149839327Y-93571740D01*
X149839326Y-93571744D01*
X149819540Y-93760000D01*
X149839326Y-93948256D01*
X149839327Y-93948259D01*
X149897818Y-94128277D01*
X149897820Y-94128281D01*
X149897821Y-94128284D01*
X149945000Y-94210000D01*
X149990033Y-94288001D01*
X150006505Y-94355901D01*
X149990033Y-94411999D01*
X149897820Y-94571718D01*
X149897818Y-94571722D01*
X149842422Y-94742216D01*
X149839326Y-94751744D01*
X149819540Y-94940000D01*
X147552263Y-94940000D01*
X147630871Y-94882888D01*
X147757533Y-94742216D01*
X147852179Y-94578284D01*
X147910674Y-94398256D01*
X147930460Y-94210000D01*
X147910674Y-94021744D01*
X147852179Y-93841716D01*
X147757533Y-93677784D01*
X147630871Y-93537112D01*
X147630870Y-93537111D01*
X147477734Y-93425851D01*
X147477729Y-93425848D01*
X147304807Y-93348857D01*
X147304802Y-93348855D01*
X147159001Y-93317865D01*
X147119646Y-93309500D01*
X146930354Y-93309500D01*
X146897897Y-93316398D01*
X146745197Y-93348855D01*
X146745192Y-93348857D01*
X146572270Y-93425848D01*
X146572265Y-93425851D01*
X146419129Y-93537111D01*
X146292466Y-93677785D01*
X146197821Y-93841715D01*
X146197818Y-93841722D01*
X146139327Y-94021740D01*
X146139326Y-94021744D01*
X146119540Y-94210000D01*
X137929755Y-94210000D01*
X137925320Y-91030000D01*
X139989540Y-91030000D01*
X140009326Y-91218256D01*
X140009327Y-91218259D01*
X140067818Y-91398277D01*
X140067821Y-91398284D01*
X140162467Y-91562216D01*
X140254247Y-91664148D01*
X140289129Y-91702888D01*
X140442265Y-91814148D01*
X140442270Y-91814151D01*
X140615192Y-91891142D01*
X140615197Y-91891144D01*
X140800354Y-91930500D01*
X140800355Y-91930500D01*
X140989644Y-91930500D01*
X140989646Y-91930500D01*
X141174803Y-91891144D01*
X141347730Y-91814151D01*
X141500871Y-91702888D01*
X141627533Y-91562216D01*
X141722179Y-91398284D01*
X141780674Y-91218256D01*
X141800460Y-91030000D01*
X141784695Y-90880000D01*
X147389540Y-90880000D01*
X147409326Y-91068256D01*
X147409327Y-91068259D01*
X147467818Y-91248277D01*
X147467821Y-91248284D01*
X147562467Y-91412216D01*
X147689129Y-91552888D01*
X147842265Y-91664148D01*
X147842270Y-91664151D01*
X148015192Y-91741142D01*
X148015197Y-91741144D01*
X148200354Y-91780500D01*
X148200355Y-91780500D01*
X148389644Y-91780500D01*
X148389646Y-91780500D01*
X148574803Y-91741144D01*
X148747730Y-91664151D01*
X148900871Y-91552888D01*
X149027533Y-91412216D01*
X149122179Y-91248284D01*
X149141117Y-91190000D01*
X151129540Y-91190000D01*
X151149326Y-91378256D01*
X151149327Y-91378259D01*
X151207818Y-91558277D01*
X151207821Y-91558284D01*
X151302467Y-91722216D01*
X151385243Y-91814148D01*
X151429129Y-91862888D01*
X151582265Y-91974148D01*
X151582270Y-91974151D01*
X151755192Y-92051142D01*
X151755197Y-92051144D01*
X151940354Y-92090500D01*
X151940355Y-92090500D01*
X152129644Y-92090500D01*
X152129646Y-92090500D01*
X152314803Y-92051144D01*
X152487730Y-91974151D01*
X152640871Y-91862888D01*
X152767533Y-91722216D01*
X152862179Y-91558284D01*
X152920674Y-91378256D01*
X152940460Y-91190000D01*
X152920674Y-91001744D01*
X152862179Y-90821716D01*
X152767533Y-90657784D01*
X152640871Y-90517112D01*
X152640870Y-90517111D01*
X152487734Y-90405851D01*
X152487729Y-90405848D01*
X152314807Y-90328857D01*
X152314802Y-90328855D01*
X152169001Y-90297865D01*
X152129646Y-90289500D01*
X151940354Y-90289500D01*
X151907897Y-90296398D01*
X151755197Y-90328855D01*
X151755192Y-90328857D01*
X151582270Y-90405848D01*
X151582265Y-90405851D01*
X151429129Y-90517111D01*
X151302466Y-90657785D01*
X151207821Y-90821715D01*
X151207818Y-90821722D01*
X151149327Y-91001740D01*
X151149326Y-91001744D01*
X151129540Y-91190000D01*
X149141117Y-91190000D01*
X149180674Y-91068256D01*
X149200460Y-90880000D01*
X149180674Y-90691744D01*
X149122179Y-90511716D01*
X149027533Y-90347784D01*
X148900871Y-90207112D01*
X148900870Y-90207111D01*
X148747734Y-90095851D01*
X148747729Y-90095848D01*
X148574807Y-90018857D01*
X148574802Y-90018855D01*
X148429001Y-89987865D01*
X148389646Y-89979500D01*
X148200354Y-89979500D01*
X148167897Y-89986398D01*
X148015197Y-90018855D01*
X148015192Y-90018857D01*
X147842270Y-90095848D01*
X147842265Y-90095851D01*
X147689129Y-90207111D01*
X147562466Y-90347785D01*
X147467821Y-90511715D01*
X147467818Y-90511722D01*
X147409327Y-90691740D01*
X147409326Y-90691744D01*
X147389540Y-90880000D01*
X141784695Y-90880000D01*
X141780674Y-90841744D01*
X141722179Y-90661716D01*
X141627533Y-90497784D01*
X141500871Y-90357112D01*
X141500870Y-90357111D01*
X141347734Y-90245851D01*
X141347729Y-90245848D01*
X141174807Y-90168857D01*
X141174802Y-90168855D01*
X141029001Y-90137865D01*
X140989646Y-90129500D01*
X140800354Y-90129500D01*
X140767897Y-90136398D01*
X140615197Y-90168855D01*
X140615192Y-90168857D01*
X140442270Y-90245848D01*
X140442265Y-90245851D01*
X140289129Y-90357111D01*
X140162466Y-90497785D01*
X140067821Y-90661715D01*
X140067818Y-90661722D01*
X140009327Y-90841740D01*
X140009326Y-90841744D01*
X139989540Y-91030000D01*
X137925320Y-91030000D01*
X137918764Y-86329213D01*
X137938354Y-86262152D01*
X137991094Y-86216324D01*
X138060239Y-86206284D01*
X138093199Y-86215767D01*
X138150192Y-86241142D01*
X138150197Y-86241144D01*
X138335354Y-86280500D01*
X138335355Y-86280500D01*
X138524644Y-86280500D01*
X138524646Y-86280500D01*
X138709803Y-86241144D01*
X138882730Y-86164151D01*
X139035871Y-86052888D01*
X139162533Y-85912216D01*
X139257179Y-85748284D01*
X139315674Y-85568256D01*
X139335460Y-85380000D01*
X139315674Y-85191744D01*
X139266369Y-85040000D01*
X147779540Y-85040000D01*
X147799326Y-85228256D01*
X147799327Y-85228259D01*
X147857818Y-85408277D01*
X147857821Y-85408284D01*
X147952467Y-85572216D01*
X147975939Y-85598284D01*
X148079129Y-85712888D01*
X148232265Y-85824148D01*
X148232270Y-85824151D01*
X148405192Y-85901142D01*
X148405197Y-85901144D01*
X148590354Y-85940500D01*
X148590355Y-85940500D01*
X148779644Y-85940500D01*
X148779646Y-85940500D01*
X148964803Y-85901144D01*
X149137730Y-85824151D01*
X149290871Y-85712888D01*
X149417533Y-85572216D01*
X149512179Y-85408284D01*
X149570674Y-85228256D01*
X149590460Y-85040000D01*
X149570674Y-84851744D01*
X149512179Y-84671716D01*
X149492134Y-84636997D01*
X149475662Y-84569101D01*
X149492133Y-84513003D01*
X149512179Y-84478284D01*
X149570674Y-84298256D01*
X149581001Y-84200000D01*
X150729540Y-84200000D01*
X150749326Y-84388256D01*
X150749327Y-84388259D01*
X150803540Y-84555111D01*
X150807821Y-84568284D01*
X150822997Y-84594570D01*
X150839470Y-84662469D01*
X150833541Y-84694888D01*
X150782577Y-84851740D01*
X150779326Y-84861744D01*
X150759540Y-85050000D01*
X150779326Y-85238256D01*
X150779327Y-85238259D01*
X150837818Y-85418277D01*
X150837821Y-85418284D01*
X150932467Y-85582216D01*
X150946935Y-85598284D01*
X151059129Y-85722888D01*
X151212265Y-85834148D01*
X151212270Y-85834151D01*
X151385192Y-85911142D01*
X151385197Y-85911144D01*
X151570354Y-85950500D01*
X151570355Y-85950500D01*
X151759644Y-85950500D01*
X151759646Y-85950500D01*
X151944803Y-85911144D01*
X152117730Y-85834151D01*
X152270871Y-85722888D01*
X152397533Y-85582216D01*
X152492179Y-85418284D01*
X152550674Y-85238256D01*
X152551542Y-85230000D01*
X153509540Y-85230000D01*
X153529326Y-85418256D01*
X153529327Y-85418259D01*
X153587818Y-85598277D01*
X153587821Y-85598284D01*
X153682467Y-85762216D01*
X153738231Y-85824148D01*
X153809129Y-85902888D01*
X153962265Y-86014148D01*
X153962270Y-86014151D01*
X154135192Y-86091142D01*
X154135197Y-86091144D01*
X154320354Y-86130500D01*
X154320355Y-86130500D01*
X154509644Y-86130500D01*
X154509646Y-86130500D01*
X154694803Y-86091144D01*
X154867730Y-86014151D01*
X155020871Y-85902888D01*
X155147533Y-85762216D01*
X155242179Y-85598284D01*
X155300674Y-85418256D01*
X155320460Y-85230000D01*
X155300674Y-85041744D01*
X155242179Y-84861716D01*
X155147533Y-84697784D01*
X155067163Y-84608524D01*
X155036933Y-84545533D01*
X155045558Y-84476197D01*
X155067160Y-84442584D01*
X155157533Y-84342216D01*
X155252179Y-84178284D01*
X155310674Y-83998256D01*
X155330460Y-83810000D01*
X155310674Y-83621744D01*
X155252179Y-83441716D01*
X155157533Y-83277784D01*
X155030871Y-83137112D01*
X154979791Y-83100000D01*
X154877734Y-83025851D01*
X154877729Y-83025848D01*
X154704807Y-82948857D01*
X154704802Y-82948855D01*
X154530184Y-82911740D01*
X154519646Y-82909500D01*
X154330354Y-82909500D01*
X154319816Y-82911740D01*
X154145197Y-82948855D01*
X154145192Y-82948857D01*
X153972270Y-83025848D01*
X153972265Y-83025851D01*
X153819129Y-83137111D01*
X153692466Y-83277785D01*
X153597821Y-83441715D01*
X153597818Y-83441722D01*
X153544766Y-83605000D01*
X153539326Y-83621744D01*
X153519540Y-83810000D01*
X153539326Y-83998256D01*
X153539327Y-83998259D01*
X153597818Y-84178277D01*
X153597821Y-84178284D01*
X153692464Y-84342212D01*
X153692465Y-84342214D01*
X153692467Y-84342216D01*
X153772837Y-84431476D01*
X153803066Y-84494465D01*
X153794441Y-84563800D01*
X153772836Y-84597418D01*
X153682466Y-84697784D01*
X153587821Y-84861715D01*
X153587818Y-84861722D01*
X153529327Y-85041740D01*
X153529326Y-85041744D01*
X153509540Y-85230000D01*
X152551542Y-85230000D01*
X152570460Y-85050000D01*
X152550674Y-84861744D01*
X152492179Y-84681716D01*
X152477000Y-84655426D01*
X152460529Y-84587531D01*
X152466456Y-84555119D01*
X152520674Y-84388256D01*
X152540460Y-84200000D01*
X152520674Y-84011744D01*
X152462179Y-83831716D01*
X152367533Y-83667784D01*
X152240871Y-83527112D01*
X152240870Y-83527111D01*
X152087734Y-83415851D01*
X152087729Y-83415848D01*
X151914807Y-83338857D01*
X151914802Y-83338855D01*
X151769001Y-83307865D01*
X151729646Y-83299500D01*
X151540354Y-83299500D01*
X151507897Y-83306398D01*
X151355197Y-83338855D01*
X151355192Y-83338857D01*
X151182270Y-83415848D01*
X151182265Y-83415851D01*
X151029129Y-83527111D01*
X150902466Y-83667785D01*
X150807821Y-83831715D01*
X150807818Y-83831722D01*
X150749327Y-84011740D01*
X150749326Y-84011744D01*
X150729540Y-84200000D01*
X149581001Y-84200000D01*
X149590460Y-84110000D01*
X149570674Y-83921744D01*
X149512179Y-83741716D01*
X149469040Y-83666997D01*
X149452568Y-83599100D01*
X149469041Y-83543001D01*
X149512179Y-83468284D01*
X149570674Y-83288256D01*
X149590460Y-83100000D01*
X149570674Y-82911744D01*
X149512179Y-82731716D01*
X149417533Y-82567784D01*
X149290871Y-82427112D01*
X149290870Y-82427111D01*
X149137734Y-82315851D01*
X149137729Y-82315848D01*
X148964807Y-82238857D01*
X148964802Y-82238855D01*
X148819001Y-82207865D01*
X148779646Y-82199500D01*
X148590354Y-82199500D01*
X148557897Y-82206398D01*
X148405197Y-82238855D01*
X148405192Y-82238857D01*
X148232270Y-82315848D01*
X148232265Y-82315851D01*
X148079129Y-82427111D01*
X147952466Y-82567785D01*
X147857821Y-82731715D01*
X147857818Y-82731722D01*
X147800055Y-82909500D01*
X147799326Y-82911744D01*
X147779540Y-83100000D01*
X147799326Y-83288256D01*
X147799327Y-83288259D01*
X147857820Y-83468283D01*
X147900958Y-83543001D01*
X147917430Y-83610901D01*
X147900958Y-83666999D01*
X147857820Y-83741716D01*
X147799327Y-83921740D01*
X147799326Y-83921744D01*
X147779540Y-84110000D01*
X147799326Y-84298256D01*
X147799327Y-84298259D01*
X147857819Y-84478280D01*
X147877865Y-84513002D01*
X147894335Y-84580903D01*
X147877865Y-84636998D01*
X147857819Y-84671719D01*
X147800612Y-84847785D01*
X147799326Y-84851744D01*
X147779540Y-85040000D01*
X139266369Y-85040000D01*
X139257179Y-85011716D01*
X139162533Y-84847784D01*
X139035871Y-84707112D01*
X139035870Y-84707111D01*
X138882734Y-84595851D01*
X138882729Y-84595848D01*
X138709807Y-84518857D01*
X138709802Y-84518855D01*
X138540585Y-84482888D01*
X138524646Y-84479500D01*
X138335354Y-84479500D01*
X138319415Y-84482888D01*
X138150197Y-84518855D01*
X138090553Y-84545411D01*
X138021303Y-84554695D01*
X137958027Y-84525067D01*
X137920814Y-84465931D01*
X137916118Y-84432310D01*
X137903158Y-75140000D01*
X150449540Y-75140000D01*
X150469326Y-75328256D01*
X150469327Y-75328259D01*
X150527818Y-75508277D01*
X150527821Y-75508284D01*
X150547155Y-75541771D01*
X150563628Y-75609671D01*
X150557699Y-75642089D01*
X150499327Y-75821740D01*
X150499326Y-75821744D01*
X150479540Y-76010000D01*
X150499326Y-76198256D01*
X150499327Y-76198259D01*
X150557818Y-76378277D01*
X150557821Y-76378284D01*
X150652467Y-76542216D01*
X150779129Y-76682888D01*
X150932265Y-76794148D01*
X150932270Y-76794151D01*
X151105192Y-76871142D01*
X151105197Y-76871144D01*
X151290354Y-76910500D01*
X151290355Y-76910500D01*
X151479644Y-76910500D01*
X151479646Y-76910500D01*
X151664803Y-76871144D01*
X151837730Y-76794151D01*
X151990871Y-76682888D01*
X152117533Y-76542216D01*
X152212179Y-76378284D01*
X152270674Y-76198256D01*
X152290460Y-76010000D01*
X152270674Y-75821744D01*
X152212179Y-75641716D01*
X152192843Y-75608225D01*
X152176371Y-75540329D01*
X152182298Y-75507914D01*
X152240674Y-75328256D01*
X152260460Y-75140000D01*
X152240674Y-74951744D01*
X152236858Y-74940000D01*
X154079540Y-74940000D01*
X154099326Y-75128256D01*
X154099327Y-75128259D01*
X154157818Y-75308277D01*
X154157821Y-75308284D01*
X154223278Y-75421659D01*
X154239751Y-75489559D01*
X154223279Y-75545658D01*
X154167820Y-75641716D01*
X154109327Y-75821740D01*
X154109326Y-75821744D01*
X154089540Y-76010000D01*
X154109326Y-76198256D01*
X154109327Y-76198259D01*
X154167818Y-76378277D01*
X154167821Y-76378284D01*
X154262467Y-76542216D01*
X154389129Y-76682888D01*
X154542265Y-76794148D01*
X154542270Y-76794151D01*
X154715192Y-76871142D01*
X154715197Y-76871144D01*
X154900354Y-76910500D01*
X154900355Y-76910500D01*
X155089644Y-76910500D01*
X155089646Y-76910500D01*
X155274803Y-76871144D01*
X155447730Y-76794151D01*
X155600871Y-76682888D01*
X155727533Y-76542216D01*
X155822179Y-76378284D01*
X155880674Y-76198256D01*
X155900460Y-76010000D01*
X155880674Y-75821744D01*
X155822179Y-75641716D01*
X155756719Y-75528336D01*
X155740247Y-75460439D01*
X155756717Y-75404344D01*
X155812179Y-75308284D01*
X155870674Y-75128256D01*
X155890460Y-74940000D01*
X155870674Y-74751744D01*
X155812179Y-74571716D01*
X155717533Y-74407784D01*
X155590871Y-74267112D01*
X155590870Y-74267111D01*
X155437734Y-74155851D01*
X155437729Y-74155848D01*
X155264807Y-74078857D01*
X155264802Y-74078855D01*
X155119001Y-74047865D01*
X155079646Y-74039500D01*
X154890354Y-74039500D01*
X154857897Y-74046398D01*
X154705197Y-74078855D01*
X154705192Y-74078857D01*
X154532270Y-74155848D01*
X154532265Y-74155851D01*
X154379129Y-74267111D01*
X154252466Y-74407785D01*
X154157821Y-74571715D01*
X154157818Y-74571722D01*
X154099327Y-74751740D01*
X154099326Y-74751744D01*
X154079540Y-74940000D01*
X152236858Y-74940000D01*
X152182179Y-74771716D01*
X152087533Y-74607784D01*
X151960871Y-74467112D01*
X151960870Y-74467111D01*
X151807734Y-74355851D01*
X151807729Y-74355848D01*
X151634807Y-74278857D01*
X151634802Y-74278855D01*
X151489001Y-74247865D01*
X151449646Y-74239500D01*
X151260354Y-74239500D01*
X151227897Y-74246398D01*
X151075197Y-74278855D01*
X151075192Y-74278857D01*
X150902270Y-74355848D01*
X150902265Y-74355851D01*
X150749129Y-74467111D01*
X150622466Y-74607785D01*
X150527821Y-74771715D01*
X150527818Y-74771722D01*
X150473142Y-74940000D01*
X150469326Y-74951744D01*
X150449540Y-75140000D01*
X137903158Y-75140000D01*
X137891931Y-67090000D01*
X153659540Y-67090000D01*
X153679326Y-67278256D01*
X153679327Y-67278259D01*
X153737818Y-67458277D01*
X153737821Y-67458284D01*
X153832467Y-67622216D01*
X153959129Y-67762888D01*
X154112265Y-67874148D01*
X154112270Y-67874151D01*
X154285192Y-67951142D01*
X154285197Y-67951144D01*
X154470354Y-67990500D01*
X154470355Y-67990500D01*
X154659644Y-67990500D01*
X154659646Y-67990500D01*
X154844803Y-67951144D01*
X155017730Y-67874151D01*
X155170871Y-67762888D01*
X155297533Y-67622216D01*
X155392179Y-67458284D01*
X155450674Y-67278256D01*
X155470460Y-67090000D01*
X155450674Y-66901744D01*
X155392179Y-66721716D01*
X155297533Y-66557784D01*
X155170871Y-66417112D01*
X155170870Y-66417111D01*
X155017734Y-66305851D01*
X155017729Y-66305848D01*
X154844807Y-66228857D01*
X154844802Y-66228855D01*
X154699001Y-66197865D01*
X154659646Y-66189500D01*
X154470354Y-66189500D01*
X154437897Y-66196398D01*
X154285197Y-66228855D01*
X154285192Y-66228857D01*
X154112270Y-66305848D01*
X154112265Y-66305851D01*
X153959129Y-66417111D01*
X153832466Y-66557785D01*
X153737821Y-66721715D01*
X153737818Y-66721722D01*
X153679327Y-66901740D01*
X153679326Y-66901744D01*
X153659540Y-67090000D01*
X137891931Y-67090000D01*
X137888891Y-64910000D01*
X150649540Y-64910000D01*
X150669326Y-65098256D01*
X150669327Y-65098259D01*
X150727818Y-65278277D01*
X150727821Y-65278284D01*
X150822466Y-65442215D01*
X150833743Y-65454740D01*
X150863971Y-65517733D01*
X150855344Y-65587068D01*
X150848985Y-65599699D01*
X150847821Y-65601715D01*
X150847821Y-65601716D01*
X150789326Y-65781744D01*
X150769540Y-65970000D01*
X150789326Y-66158256D01*
X150789327Y-66158259D01*
X150847818Y-66338277D01*
X150847821Y-66338284D01*
X150942467Y-66502216D01*
X150992501Y-66557784D01*
X151069129Y-66642888D01*
X151222265Y-66754148D01*
X151222270Y-66754151D01*
X151395192Y-66831142D01*
X151395197Y-66831144D01*
X151580354Y-66870500D01*
X151580355Y-66870500D01*
X151769644Y-66870500D01*
X151769646Y-66870500D01*
X151954803Y-66831144D01*
X152127730Y-66754151D01*
X152280871Y-66642888D01*
X152407533Y-66502216D01*
X152502179Y-66338284D01*
X152560674Y-66158256D01*
X152580460Y-65970000D01*
X152560674Y-65781744D01*
X152502179Y-65601716D01*
X152407533Y-65437784D01*
X152396257Y-65425261D01*
X152366027Y-65362270D01*
X152374652Y-65292935D01*
X152381014Y-65280301D01*
X152382179Y-65278284D01*
X152440674Y-65098256D01*
X152460460Y-64910000D01*
X152440674Y-64721744D01*
X152382179Y-64541716D01*
X152287533Y-64377784D01*
X152160871Y-64237112D01*
X152160870Y-64237111D01*
X152007734Y-64125851D01*
X152007729Y-64125848D01*
X151834807Y-64048857D01*
X151834802Y-64048855D01*
X151689001Y-64017865D01*
X151649646Y-64009500D01*
X151460354Y-64009500D01*
X151427897Y-64016398D01*
X151275197Y-64048855D01*
X151275192Y-64048857D01*
X151102270Y-64125848D01*
X151102265Y-64125851D01*
X150949129Y-64237111D01*
X150822466Y-64377785D01*
X150727821Y-64541715D01*
X150727818Y-64541722D01*
X150669327Y-64721740D01*
X150669326Y-64721744D01*
X150649540Y-64910000D01*
X137888891Y-64910000D01*
X137885350Y-62371409D01*
X137904941Y-62304345D01*
X137921598Y-62283629D01*
X138048672Y-62156378D01*
X138109971Y-62122852D01*
X138136413Y-62120000D01*
X156683638Y-62120000D01*
X156750677Y-62139685D01*
G37*
G04 #@! TD.AperFunction*
M02*
