%TF.GenerationSoftware,KiCad,Pcbnew,7.0.10*%
%TF.CreationDate,2024-08-16T14:30:43-05:00*%
%TF.ProjectId,DiffPCB,44696666-5043-4422-9e6b-696361645f70,rev?*%
%TF.SameCoordinates,Original*%
%TF.FileFunction,Drillmap*%
%TF.FilePolarity,Positive*%
%FSLAX45Y45*%
G04 Gerber Fmt 4.5, Leading zero omitted, Abs format (unit mm)*
G04 Created by KiCad (PCBNEW 7.0.10) date 2024-08-16 14:30:43*
%MOMM*%
%LPD*%
G01*
G04 APERTURE LIST*
%ADD10C,0.200000*%
%ADD11C,0.100000*%
G04 APERTURE END LIST*
D10*
X13772000Y-6193000D02*
X15716000Y-6193000D01*
X15716000Y-9825000D01*
X13772000Y-9825000D01*
X13772000Y-6193000D01*
D11*
X13823000Y-8518000D02*
X13863000Y-8558000D01*
X13863000Y-8518000D02*
X13823000Y-8558000D01*
X13838500Y-9710000D02*
X13878500Y-9750000D01*
X13878500Y-9710000D02*
X13838500Y-9750000D01*
X13915500Y-6331000D02*
X13955500Y-6371000D01*
X13955500Y-6331000D02*
X13915500Y-6371000D01*
X13915500Y-6427000D02*
X13955500Y-6467000D01*
X13955500Y-6427000D02*
X13915500Y-6467000D01*
X13915500Y-6536000D02*
X13955500Y-6576000D01*
X13955500Y-6536000D02*
X13915500Y-6576000D01*
X13915500Y-6632000D02*
X13955500Y-6672000D01*
X13955500Y-6632000D02*
X13915500Y-6672000D01*
X13915500Y-6739000D02*
X13955500Y-6779000D01*
X13955500Y-6739000D02*
X13915500Y-6779000D01*
X13915500Y-6835000D02*
X13955500Y-6875000D01*
X13955500Y-6835000D02*
X13915500Y-6875000D01*
X13996500Y-9704000D02*
X14036500Y-9744000D01*
X14036500Y-9704000D02*
X13996500Y-9744000D01*
X14011500Y-6331000D02*
X14051500Y-6371000D01*
X14051500Y-6331000D02*
X14011500Y-6371000D01*
X14011500Y-6427000D02*
X14051500Y-6467000D01*
X14051500Y-6427000D02*
X14011500Y-6467000D01*
X14011500Y-6536000D02*
X14051500Y-6576000D01*
X14051500Y-6536000D02*
X14011500Y-6576000D01*
X14011500Y-6632000D02*
X14051500Y-6672000D01*
X14051500Y-6632000D02*
X14011500Y-6672000D01*
X14011500Y-6739000D02*
X14051500Y-6779000D01*
X14051500Y-6739000D02*
X14011500Y-6779000D01*
X14011500Y-6835000D02*
X14051500Y-6875000D01*
X14051500Y-6835000D02*
X14011500Y-6875000D01*
X14069500Y-9083000D02*
X14109500Y-9123000D01*
X14109500Y-9083000D02*
X14069500Y-9123000D01*
X14116500Y-6333000D02*
X14156500Y-6373000D01*
X14156500Y-6333000D02*
X14116500Y-6373000D01*
X14116500Y-6429000D02*
X14156500Y-6469000D01*
X14156500Y-6429000D02*
X14116500Y-6469000D01*
X14116500Y-6538000D02*
X14156500Y-6578000D01*
X14156500Y-6538000D02*
X14116500Y-6578000D01*
X14116500Y-6634000D02*
X14156500Y-6674000D01*
X14156500Y-6634000D02*
X14116500Y-6674000D01*
X14116500Y-6741000D02*
X14156500Y-6781000D01*
X14156500Y-6741000D02*
X14116500Y-6781000D01*
X14116500Y-6837000D02*
X14156500Y-6877000D01*
X14156500Y-6837000D02*
X14116500Y-6877000D01*
X14155500Y-8877000D02*
X14195500Y-8917000D01*
X14195500Y-8877000D02*
X14155500Y-8917000D01*
X14212500Y-6333000D02*
X14252500Y-6373000D01*
X14252500Y-6333000D02*
X14212500Y-6373000D01*
X14212500Y-6429000D02*
X14252500Y-6469000D01*
X14252500Y-6429000D02*
X14212500Y-6469000D01*
X14212500Y-6538000D02*
X14252500Y-6578000D01*
X14252500Y-6538000D02*
X14212500Y-6578000D01*
X14212500Y-6634000D02*
X14252500Y-6674000D01*
X14252500Y-6634000D02*
X14212500Y-6674000D01*
X14212500Y-6741000D02*
X14252500Y-6781000D01*
X14252500Y-6741000D02*
X14212500Y-6781000D01*
X14212500Y-6837000D02*
X14252500Y-6877000D01*
X14252500Y-6837000D02*
X14212500Y-6877000D01*
X14371500Y-6334000D02*
X14411500Y-6374000D01*
X14411500Y-6334000D02*
X14371500Y-6374000D01*
X14371500Y-6430000D02*
X14411500Y-6470000D01*
X14411500Y-6430000D02*
X14371500Y-6470000D01*
X14371500Y-6539000D02*
X14411500Y-6579000D01*
X14411500Y-6539000D02*
X14371500Y-6579000D01*
X14371500Y-6635000D02*
X14411500Y-6675000D01*
X14411500Y-6635000D02*
X14371500Y-6675000D01*
X14371500Y-6742000D02*
X14411500Y-6782000D01*
X14411500Y-6742000D02*
X14371500Y-6782000D01*
X14371500Y-6838000D02*
X14411500Y-6878000D01*
X14411500Y-6838000D02*
X14371500Y-6878000D01*
X14467500Y-6334000D02*
X14507500Y-6374000D01*
X14507500Y-6334000D02*
X14467500Y-6374000D01*
X14467500Y-6430000D02*
X14507500Y-6470000D01*
X14507500Y-6430000D02*
X14467500Y-6470000D01*
X14467500Y-6539000D02*
X14507500Y-6579000D01*
X14507500Y-6539000D02*
X14467500Y-6579000D01*
X14467500Y-6635000D02*
X14507500Y-6675000D01*
X14507500Y-6635000D02*
X14467500Y-6675000D01*
X14467500Y-6742000D02*
X14507500Y-6782000D01*
X14507500Y-6742000D02*
X14467500Y-6782000D01*
X14467500Y-6838000D02*
X14507500Y-6878000D01*
X14507500Y-6838000D02*
X14467500Y-6878000D01*
X14572500Y-6336000D02*
X14612500Y-6376000D01*
X14612500Y-6336000D02*
X14572500Y-6376000D01*
X14572500Y-6432000D02*
X14612500Y-6472000D01*
X14612500Y-6432000D02*
X14572500Y-6472000D01*
X14572500Y-6541000D02*
X14612500Y-6581000D01*
X14612500Y-6541000D02*
X14572500Y-6581000D01*
X14572500Y-6637000D02*
X14612500Y-6677000D01*
X14612500Y-6637000D02*
X14572500Y-6677000D01*
X14572500Y-6744000D02*
X14612500Y-6784000D01*
X14612500Y-6744000D02*
X14572500Y-6784000D01*
X14572500Y-6840000D02*
X14612500Y-6880000D01*
X14612500Y-6840000D02*
X14572500Y-6880000D01*
X14668500Y-6336000D02*
X14708500Y-6376000D01*
X14708500Y-6336000D02*
X14668500Y-6376000D01*
X14668500Y-6432000D02*
X14708500Y-6472000D01*
X14708500Y-6432000D02*
X14668500Y-6472000D01*
X14668500Y-6541000D02*
X14708500Y-6581000D01*
X14708500Y-6541000D02*
X14668500Y-6581000D01*
X14668500Y-6637000D02*
X14708500Y-6677000D01*
X14708500Y-6637000D02*
X14668500Y-6677000D01*
X14668500Y-6744000D02*
X14708500Y-6784000D01*
X14708500Y-6744000D02*
X14668500Y-6784000D01*
X14668500Y-6840000D02*
X14708500Y-6880000D01*
X14708500Y-6840000D02*
X14668500Y-6880000D01*
X14682500Y-9401000D02*
X14722500Y-9441000D01*
X14722500Y-9401000D02*
X14682500Y-9441000D01*
X14809500Y-9068000D02*
X14849500Y-9108000D01*
X14849500Y-9068000D02*
X14809500Y-9108000D01*
X14848500Y-8290000D02*
X14888500Y-8330000D01*
X14888500Y-8290000D02*
X14848500Y-8330000D01*
X14848500Y-8391000D02*
X14888500Y-8431000D01*
X14888500Y-8391000D02*
X14848500Y-8431000D01*
X14848500Y-8484000D02*
X14888500Y-8524000D01*
X14888500Y-8484000D02*
X14848500Y-8524000D01*
X14931500Y-9361000D02*
X14971500Y-9401000D01*
X14971500Y-9361000D02*
X14931500Y-9401000D01*
X15052500Y-9356000D02*
X15092500Y-9396000D01*
X15092500Y-9356000D02*
X15052500Y-9396000D01*
X15052500Y-9474000D02*
X15092500Y-9514000D01*
X15092500Y-9474000D02*
X15052500Y-9514000D01*
X15115500Y-7494000D02*
X15155500Y-7534000D01*
X15155500Y-7494000D02*
X15115500Y-7534000D01*
X15118500Y-7581000D02*
X15158500Y-7621000D01*
X15158500Y-7581000D02*
X15118500Y-7621000D01*
X15135500Y-6471000D02*
X15175500Y-6511000D01*
X15175500Y-6471000D02*
X15135500Y-6511000D01*
X15143500Y-8400000D02*
X15183500Y-8440000D01*
X15183500Y-8400000D02*
X15143500Y-8440000D01*
X15146500Y-8485000D02*
X15186500Y-8525000D01*
X15186500Y-8485000D02*
X15146500Y-8525000D01*
X15147500Y-6577000D02*
X15187500Y-6617000D01*
X15187500Y-6577000D02*
X15147500Y-6617000D01*
X15183500Y-9099000D02*
X15223500Y-9139000D01*
X15223500Y-9099000D02*
X15183500Y-9139000D01*
X15391500Y-9228000D02*
X15431500Y-9268000D01*
X15431500Y-9228000D02*
X15391500Y-9268000D01*
X15421500Y-8503000D02*
X15461500Y-8543000D01*
X15461500Y-8503000D02*
X15421500Y-8543000D01*
X15422500Y-8361000D02*
X15462500Y-8401000D01*
X15462500Y-8361000D02*
X15422500Y-8401000D01*
X15436500Y-6689000D02*
X15476500Y-6729000D01*
X15476500Y-6689000D02*
X15436500Y-6729000D01*
X15478500Y-7474000D02*
X15518500Y-7514000D01*
X15518500Y-7474000D02*
X15478500Y-7514000D01*
X15479500Y-7581000D02*
X15519500Y-7621000D01*
X15519500Y-7581000D02*
X15479500Y-7621000D01*
X15569500Y-8982000D02*
X15609500Y-9022000D01*
X15609500Y-8982000D02*
X15569500Y-9022000D01*
X15627500Y-9736000D02*
X15667500Y-9776000D01*
X15667500Y-9736000D02*
X15627500Y-9776000D01*
X15637500Y-6227000D02*
X15677500Y-6267000D01*
X15677500Y-6227000D02*
X15637500Y-6267000D01*
D10*
X14022777Y-10146484D02*
X14022777Y-9946484D01*
X14022777Y-9946484D02*
X14070396Y-9946484D01*
X14070396Y-9946484D02*
X14098967Y-9956008D01*
X14098967Y-9956008D02*
X14118015Y-9975055D01*
X14118015Y-9975055D02*
X14127539Y-9994103D01*
X14127539Y-9994103D02*
X14137062Y-10032198D01*
X14137062Y-10032198D02*
X14137062Y-10060770D01*
X14137062Y-10060770D02*
X14127539Y-10098865D01*
X14127539Y-10098865D02*
X14118015Y-10117912D01*
X14118015Y-10117912D02*
X14098967Y-10136960D01*
X14098967Y-10136960D02*
X14070396Y-10146484D01*
X14070396Y-10146484D02*
X14022777Y-10146484D01*
X14222777Y-10146484D02*
X14222777Y-10013150D01*
X14222777Y-10051246D02*
X14232301Y-10032198D01*
X14232301Y-10032198D02*
X14241824Y-10022674D01*
X14241824Y-10022674D02*
X14260872Y-10013150D01*
X14260872Y-10013150D02*
X14279920Y-10013150D01*
X14346586Y-10146484D02*
X14346586Y-10013150D01*
X14346586Y-9946484D02*
X14337062Y-9956008D01*
X14337062Y-9956008D02*
X14346586Y-9965531D01*
X14346586Y-9965531D02*
X14356110Y-9956008D01*
X14356110Y-9956008D02*
X14346586Y-9946484D01*
X14346586Y-9946484D02*
X14346586Y-9965531D01*
X14470396Y-10146484D02*
X14451348Y-10136960D01*
X14451348Y-10136960D02*
X14441824Y-10117912D01*
X14441824Y-10117912D02*
X14441824Y-9946484D01*
X14575158Y-10146484D02*
X14556110Y-10136960D01*
X14556110Y-10136960D02*
X14546586Y-10117912D01*
X14546586Y-10117912D02*
X14546586Y-9946484D01*
X14803729Y-10146484D02*
X14803729Y-9946484D01*
X14803729Y-9946484D02*
X14870396Y-10089341D01*
X14870396Y-10089341D02*
X14937062Y-9946484D01*
X14937062Y-9946484D02*
X14937062Y-10146484D01*
X15118015Y-10146484D02*
X15118015Y-10041722D01*
X15118015Y-10041722D02*
X15108491Y-10022674D01*
X15108491Y-10022674D02*
X15089443Y-10013150D01*
X15089443Y-10013150D02*
X15051348Y-10013150D01*
X15051348Y-10013150D02*
X15032301Y-10022674D01*
X15118015Y-10136960D02*
X15098967Y-10146484D01*
X15098967Y-10146484D02*
X15051348Y-10146484D01*
X15051348Y-10146484D02*
X15032301Y-10136960D01*
X15032301Y-10136960D02*
X15022777Y-10117912D01*
X15022777Y-10117912D02*
X15022777Y-10098865D01*
X15022777Y-10098865D02*
X15032301Y-10079817D01*
X15032301Y-10079817D02*
X15051348Y-10070293D01*
X15051348Y-10070293D02*
X15098967Y-10070293D01*
X15098967Y-10070293D02*
X15118015Y-10060770D01*
X15213253Y-10013150D02*
X15213253Y-10213150D01*
X15213253Y-10022674D02*
X15232301Y-10013150D01*
X15232301Y-10013150D02*
X15270396Y-10013150D01*
X15270396Y-10013150D02*
X15289443Y-10022674D01*
X15289443Y-10022674D02*
X15298967Y-10032198D01*
X15298967Y-10032198D02*
X15308491Y-10051246D01*
X15308491Y-10051246D02*
X15308491Y-10108389D01*
X15308491Y-10108389D02*
X15298967Y-10127436D01*
X15298967Y-10127436D02*
X15289443Y-10136960D01*
X15289443Y-10136960D02*
X15270396Y-10146484D01*
X15270396Y-10146484D02*
X15232301Y-10146484D01*
X15232301Y-10146484D02*
X15213253Y-10136960D01*
X15394205Y-10127436D02*
X15403729Y-10136960D01*
X15403729Y-10136960D02*
X15394205Y-10146484D01*
X15394205Y-10146484D02*
X15384682Y-10136960D01*
X15384682Y-10136960D02*
X15394205Y-10127436D01*
X15394205Y-10127436D02*
X15394205Y-10146484D01*
X15394205Y-10022674D02*
X15403729Y-10032198D01*
X15403729Y-10032198D02*
X15394205Y-10041722D01*
X15394205Y-10041722D02*
X15384682Y-10032198D01*
X15384682Y-10032198D02*
X15394205Y-10022674D01*
X15394205Y-10022674D02*
X15394205Y-10041722D01*
D11*
X13722000Y-10455000D02*
X13762000Y-10495000D01*
X13762000Y-10455000D02*
X13722000Y-10495000D01*
D10*
X14060872Y-10366484D02*
X14079920Y-10366484D01*
X14079920Y-10366484D02*
X14098967Y-10376008D01*
X14098967Y-10376008D02*
X14108491Y-10385531D01*
X14108491Y-10385531D02*
X14118015Y-10404579D01*
X14118015Y-10404579D02*
X14127539Y-10442674D01*
X14127539Y-10442674D02*
X14127539Y-10490293D01*
X14127539Y-10490293D02*
X14118015Y-10528389D01*
X14118015Y-10528389D02*
X14108491Y-10547436D01*
X14108491Y-10547436D02*
X14098967Y-10556960D01*
X14098967Y-10556960D02*
X14079920Y-10566484D01*
X14079920Y-10566484D02*
X14060872Y-10566484D01*
X14060872Y-10566484D02*
X14041824Y-10556960D01*
X14041824Y-10556960D02*
X14032301Y-10547436D01*
X14032301Y-10547436D02*
X14022777Y-10528389D01*
X14022777Y-10528389D02*
X14013253Y-10490293D01*
X14013253Y-10490293D02*
X14013253Y-10442674D01*
X14013253Y-10442674D02*
X14022777Y-10404579D01*
X14022777Y-10404579D02*
X14032301Y-10385531D01*
X14032301Y-10385531D02*
X14041824Y-10376008D01*
X14041824Y-10376008D02*
X14060872Y-10366484D01*
X14213253Y-10547436D02*
X14222777Y-10556960D01*
X14222777Y-10556960D02*
X14213253Y-10566484D01*
X14213253Y-10566484D02*
X14203729Y-10556960D01*
X14203729Y-10556960D02*
X14213253Y-10547436D01*
X14213253Y-10547436D02*
X14213253Y-10566484D01*
X14394205Y-10433150D02*
X14394205Y-10566484D01*
X14346586Y-10356960D02*
X14298967Y-10499817D01*
X14298967Y-10499817D02*
X14422777Y-10499817D01*
X14537062Y-10366484D02*
X14556110Y-10366484D01*
X14556110Y-10366484D02*
X14575158Y-10376008D01*
X14575158Y-10376008D02*
X14584682Y-10385531D01*
X14584682Y-10385531D02*
X14594205Y-10404579D01*
X14594205Y-10404579D02*
X14603729Y-10442674D01*
X14603729Y-10442674D02*
X14603729Y-10490293D01*
X14603729Y-10490293D02*
X14594205Y-10528389D01*
X14594205Y-10528389D02*
X14584682Y-10547436D01*
X14584682Y-10547436D02*
X14575158Y-10556960D01*
X14575158Y-10556960D02*
X14556110Y-10566484D01*
X14556110Y-10566484D02*
X14537062Y-10566484D01*
X14537062Y-10566484D02*
X14518015Y-10556960D01*
X14518015Y-10556960D02*
X14508491Y-10547436D01*
X14508491Y-10547436D02*
X14498967Y-10528389D01*
X14498967Y-10528389D02*
X14489443Y-10490293D01*
X14489443Y-10490293D02*
X14489443Y-10442674D01*
X14489443Y-10442674D02*
X14498967Y-10404579D01*
X14498967Y-10404579D02*
X14508491Y-10385531D01*
X14508491Y-10385531D02*
X14518015Y-10376008D01*
X14518015Y-10376008D02*
X14537062Y-10366484D01*
X14727539Y-10366484D02*
X14746586Y-10366484D01*
X14746586Y-10366484D02*
X14765634Y-10376008D01*
X14765634Y-10376008D02*
X14775158Y-10385531D01*
X14775158Y-10385531D02*
X14784682Y-10404579D01*
X14784682Y-10404579D02*
X14794205Y-10442674D01*
X14794205Y-10442674D02*
X14794205Y-10490293D01*
X14794205Y-10490293D02*
X14784682Y-10528389D01*
X14784682Y-10528389D02*
X14775158Y-10547436D01*
X14775158Y-10547436D02*
X14765634Y-10556960D01*
X14765634Y-10556960D02*
X14746586Y-10566484D01*
X14746586Y-10566484D02*
X14727539Y-10566484D01*
X14727539Y-10566484D02*
X14708491Y-10556960D01*
X14708491Y-10556960D02*
X14698967Y-10547436D01*
X14698967Y-10547436D02*
X14689443Y-10528389D01*
X14689443Y-10528389D02*
X14679920Y-10490293D01*
X14679920Y-10490293D02*
X14679920Y-10442674D01*
X14679920Y-10442674D02*
X14689443Y-10404579D01*
X14689443Y-10404579D02*
X14698967Y-10385531D01*
X14698967Y-10385531D02*
X14708491Y-10376008D01*
X14708491Y-10376008D02*
X14727539Y-10366484D01*
X14879920Y-10566484D02*
X14879920Y-10433150D01*
X14879920Y-10452198D02*
X14889443Y-10442674D01*
X14889443Y-10442674D02*
X14908491Y-10433150D01*
X14908491Y-10433150D02*
X14937063Y-10433150D01*
X14937063Y-10433150D02*
X14956110Y-10442674D01*
X14956110Y-10442674D02*
X14965634Y-10461722D01*
X14965634Y-10461722D02*
X14965634Y-10566484D01*
X14965634Y-10461722D02*
X14975158Y-10442674D01*
X14975158Y-10442674D02*
X14994205Y-10433150D01*
X14994205Y-10433150D02*
X15022777Y-10433150D01*
X15022777Y-10433150D02*
X15041824Y-10442674D01*
X15041824Y-10442674D02*
X15051348Y-10461722D01*
X15051348Y-10461722D02*
X15051348Y-10566484D01*
X15146586Y-10566484D02*
X15146586Y-10433150D01*
X15146586Y-10452198D02*
X15156110Y-10442674D01*
X15156110Y-10442674D02*
X15175158Y-10433150D01*
X15175158Y-10433150D02*
X15203729Y-10433150D01*
X15203729Y-10433150D02*
X15222777Y-10442674D01*
X15222777Y-10442674D02*
X15232301Y-10461722D01*
X15232301Y-10461722D02*
X15232301Y-10566484D01*
X15232301Y-10461722D02*
X15241824Y-10442674D01*
X15241824Y-10442674D02*
X15260872Y-10433150D01*
X15260872Y-10433150D02*
X15289443Y-10433150D01*
X15289443Y-10433150D02*
X15308491Y-10442674D01*
X15308491Y-10442674D02*
X15318015Y-10461722D01*
X15318015Y-10461722D02*
X15318015Y-10566484D01*
X15708491Y-10356960D02*
X15537063Y-10614103D01*
X15965634Y-10366484D02*
X15984682Y-10366484D01*
X15984682Y-10366484D02*
X16003729Y-10376008D01*
X16003729Y-10376008D02*
X16013253Y-10385531D01*
X16013253Y-10385531D02*
X16022777Y-10404579D01*
X16022777Y-10404579D02*
X16032301Y-10442674D01*
X16032301Y-10442674D02*
X16032301Y-10490293D01*
X16032301Y-10490293D02*
X16022777Y-10528389D01*
X16022777Y-10528389D02*
X16013253Y-10547436D01*
X16013253Y-10547436D02*
X16003729Y-10556960D01*
X16003729Y-10556960D02*
X15984682Y-10566484D01*
X15984682Y-10566484D02*
X15965634Y-10566484D01*
X15965634Y-10566484D02*
X15946586Y-10556960D01*
X15946586Y-10556960D02*
X15937063Y-10547436D01*
X15937063Y-10547436D02*
X15927539Y-10528389D01*
X15927539Y-10528389D02*
X15918015Y-10490293D01*
X15918015Y-10490293D02*
X15918015Y-10442674D01*
X15918015Y-10442674D02*
X15927539Y-10404579D01*
X15927539Y-10404579D02*
X15937063Y-10385531D01*
X15937063Y-10385531D02*
X15946586Y-10376008D01*
X15946586Y-10376008D02*
X15965634Y-10366484D01*
X16118015Y-10547436D02*
X16127539Y-10556960D01*
X16127539Y-10556960D02*
X16118015Y-10566484D01*
X16118015Y-10566484D02*
X16108491Y-10556960D01*
X16108491Y-10556960D02*
X16118015Y-10547436D01*
X16118015Y-10547436D02*
X16118015Y-10566484D01*
X16251348Y-10366484D02*
X16270396Y-10366484D01*
X16270396Y-10366484D02*
X16289444Y-10376008D01*
X16289444Y-10376008D02*
X16298967Y-10385531D01*
X16298967Y-10385531D02*
X16308491Y-10404579D01*
X16308491Y-10404579D02*
X16318015Y-10442674D01*
X16318015Y-10442674D02*
X16318015Y-10490293D01*
X16318015Y-10490293D02*
X16308491Y-10528389D01*
X16308491Y-10528389D02*
X16298967Y-10547436D01*
X16298967Y-10547436D02*
X16289444Y-10556960D01*
X16289444Y-10556960D02*
X16270396Y-10566484D01*
X16270396Y-10566484D02*
X16251348Y-10566484D01*
X16251348Y-10566484D02*
X16232301Y-10556960D01*
X16232301Y-10556960D02*
X16222777Y-10547436D01*
X16222777Y-10547436D02*
X16213253Y-10528389D01*
X16213253Y-10528389D02*
X16203729Y-10490293D01*
X16203729Y-10490293D02*
X16203729Y-10442674D01*
X16203729Y-10442674D02*
X16213253Y-10404579D01*
X16213253Y-10404579D02*
X16222777Y-10385531D01*
X16222777Y-10385531D02*
X16232301Y-10376008D01*
X16232301Y-10376008D02*
X16251348Y-10366484D01*
X16508491Y-10566484D02*
X16394206Y-10566484D01*
X16451348Y-10566484D02*
X16451348Y-10366484D01*
X16451348Y-10366484D02*
X16432301Y-10395055D01*
X16432301Y-10395055D02*
X16413253Y-10414103D01*
X16413253Y-10414103D02*
X16394206Y-10423627D01*
X16689444Y-10366484D02*
X16594206Y-10366484D01*
X16594206Y-10366484D02*
X16584682Y-10461722D01*
X16584682Y-10461722D02*
X16594206Y-10452198D01*
X16594206Y-10452198D02*
X16613253Y-10442674D01*
X16613253Y-10442674D02*
X16660872Y-10442674D01*
X16660872Y-10442674D02*
X16679920Y-10452198D01*
X16679920Y-10452198D02*
X16689444Y-10461722D01*
X16689444Y-10461722D02*
X16698967Y-10480770D01*
X16698967Y-10480770D02*
X16698967Y-10528389D01*
X16698967Y-10528389D02*
X16689444Y-10547436D01*
X16689444Y-10547436D02*
X16679920Y-10556960D01*
X16679920Y-10556960D02*
X16660872Y-10566484D01*
X16660872Y-10566484D02*
X16613253Y-10566484D01*
X16613253Y-10566484D02*
X16594206Y-10556960D01*
X16594206Y-10556960D02*
X16584682Y-10547436D01*
X16765634Y-10366484D02*
X16898968Y-10366484D01*
X16898968Y-10366484D02*
X16813253Y-10566484D01*
X16965634Y-10366484D02*
X16965634Y-10404579D01*
X17041825Y-10366484D02*
X17041825Y-10404579D01*
X17337063Y-10642674D02*
X17327539Y-10633150D01*
X17327539Y-10633150D02*
X17308491Y-10604579D01*
X17308491Y-10604579D02*
X17298968Y-10585531D01*
X17298968Y-10585531D02*
X17289444Y-10556960D01*
X17289444Y-10556960D02*
X17279920Y-10509341D01*
X17279920Y-10509341D02*
X17279920Y-10471246D01*
X17279920Y-10471246D02*
X17289444Y-10423627D01*
X17289444Y-10423627D02*
X17298968Y-10395055D01*
X17298968Y-10395055D02*
X17308491Y-10376008D01*
X17308491Y-10376008D02*
X17327539Y-10347436D01*
X17327539Y-10347436D02*
X17337063Y-10337912D01*
X17394206Y-10366484D02*
X17527539Y-10366484D01*
X17527539Y-10366484D02*
X17441825Y-10566484D01*
X17584682Y-10366484D02*
X17718015Y-10366484D01*
X17718015Y-10366484D02*
X17632301Y-10566484D01*
X17946587Y-10566484D02*
X17946587Y-10366484D01*
X18032301Y-10566484D02*
X18032301Y-10461722D01*
X18032301Y-10461722D02*
X18022777Y-10442674D01*
X18022777Y-10442674D02*
X18003730Y-10433150D01*
X18003730Y-10433150D02*
X17975158Y-10433150D01*
X17975158Y-10433150D02*
X17956111Y-10442674D01*
X17956111Y-10442674D02*
X17946587Y-10452198D01*
X18156111Y-10566484D02*
X18137063Y-10556960D01*
X18137063Y-10556960D02*
X18127539Y-10547436D01*
X18127539Y-10547436D02*
X18118015Y-10528389D01*
X18118015Y-10528389D02*
X18118015Y-10471246D01*
X18118015Y-10471246D02*
X18127539Y-10452198D01*
X18127539Y-10452198D02*
X18137063Y-10442674D01*
X18137063Y-10442674D02*
X18156111Y-10433150D01*
X18156111Y-10433150D02*
X18184682Y-10433150D01*
X18184682Y-10433150D02*
X18203730Y-10442674D01*
X18203730Y-10442674D02*
X18213253Y-10452198D01*
X18213253Y-10452198D02*
X18222777Y-10471246D01*
X18222777Y-10471246D02*
X18222777Y-10528389D01*
X18222777Y-10528389D02*
X18213253Y-10547436D01*
X18213253Y-10547436D02*
X18203730Y-10556960D01*
X18203730Y-10556960D02*
X18184682Y-10566484D01*
X18184682Y-10566484D02*
X18156111Y-10566484D01*
X18337063Y-10566484D02*
X18318015Y-10556960D01*
X18318015Y-10556960D02*
X18308492Y-10537912D01*
X18308492Y-10537912D02*
X18308492Y-10366484D01*
X18489444Y-10556960D02*
X18470396Y-10566484D01*
X18470396Y-10566484D02*
X18432301Y-10566484D01*
X18432301Y-10566484D02*
X18413253Y-10556960D01*
X18413253Y-10556960D02*
X18403730Y-10537912D01*
X18403730Y-10537912D02*
X18403730Y-10461722D01*
X18403730Y-10461722D02*
X18413253Y-10442674D01*
X18413253Y-10442674D02*
X18432301Y-10433150D01*
X18432301Y-10433150D02*
X18470396Y-10433150D01*
X18470396Y-10433150D02*
X18489444Y-10442674D01*
X18489444Y-10442674D02*
X18498968Y-10461722D01*
X18498968Y-10461722D02*
X18498968Y-10480770D01*
X18498968Y-10480770D02*
X18403730Y-10499817D01*
X18575158Y-10556960D02*
X18594206Y-10566484D01*
X18594206Y-10566484D02*
X18632301Y-10566484D01*
X18632301Y-10566484D02*
X18651349Y-10556960D01*
X18651349Y-10556960D02*
X18660873Y-10537912D01*
X18660873Y-10537912D02*
X18660873Y-10528389D01*
X18660873Y-10528389D02*
X18651349Y-10509341D01*
X18651349Y-10509341D02*
X18632301Y-10499817D01*
X18632301Y-10499817D02*
X18603730Y-10499817D01*
X18603730Y-10499817D02*
X18584682Y-10490293D01*
X18584682Y-10490293D02*
X18575158Y-10471246D01*
X18575158Y-10471246D02*
X18575158Y-10461722D01*
X18575158Y-10461722D02*
X18584682Y-10442674D01*
X18584682Y-10442674D02*
X18603730Y-10433150D01*
X18603730Y-10433150D02*
X18632301Y-10433150D01*
X18632301Y-10433150D02*
X18651349Y-10442674D01*
X18727539Y-10642674D02*
X18737063Y-10633150D01*
X18737063Y-10633150D02*
X18756111Y-10604579D01*
X18756111Y-10604579D02*
X18765634Y-10585531D01*
X18765634Y-10585531D02*
X18775158Y-10556960D01*
X18775158Y-10556960D02*
X18784682Y-10509341D01*
X18784682Y-10509341D02*
X18784682Y-10471246D01*
X18784682Y-10471246D02*
X18775158Y-10423627D01*
X18775158Y-10423627D02*
X18765634Y-10395055D01*
X18765634Y-10395055D02*
X18756111Y-10376008D01*
X18756111Y-10376008D02*
X18737063Y-10347436D01*
X18737063Y-10347436D02*
X18727539Y-10337912D01*
M02*
