%TF.GenerationSoftware,KiCad,Pcbnew,7.0.10*%
%TF.CreationDate,2024-08-16T14:30:43-05:00*%
%TF.ProjectId,DiffPCB,44696666-5043-4422-9e6b-696361645f70,rev?*%
%TF.SameCoordinates,Original*%
%TF.FileFunction,Drillmap*%
%TF.FilePolarity,Positive*%
%FSLAX45Y45*%
G04 Gerber Fmt 4.5, Leading zero omitted, Abs format (unit mm)*
G04 Created by KiCad (PCBNEW 7.0.10) date 2024-08-16 14:30:43*
%MOMM*%
%LPD*%
G01*
G04 APERTURE LIST*
%ADD10C,0.200000*%
G04 APERTURE END LIST*
D10*
X13772000Y-6193000D02*
X15716000Y-6193000D01*
X15716000Y-9825000D01*
X13772000Y-9825000D01*
X13772000Y-6193000D01*
X14022777Y-10146484D02*
X14022777Y-9946484D01*
X14022777Y-9946484D02*
X14070396Y-9946484D01*
X14070396Y-9946484D02*
X14098967Y-9956008D01*
X14098967Y-9956008D02*
X14118015Y-9975055D01*
X14118015Y-9975055D02*
X14127539Y-9994103D01*
X14127539Y-9994103D02*
X14137062Y-10032198D01*
X14137062Y-10032198D02*
X14137062Y-10060770D01*
X14137062Y-10060770D02*
X14127539Y-10098865D01*
X14127539Y-10098865D02*
X14118015Y-10117912D01*
X14118015Y-10117912D02*
X14098967Y-10136960D01*
X14098967Y-10136960D02*
X14070396Y-10146484D01*
X14070396Y-10146484D02*
X14022777Y-10146484D01*
X14222777Y-10146484D02*
X14222777Y-10013150D01*
X14222777Y-10051246D02*
X14232301Y-10032198D01*
X14232301Y-10032198D02*
X14241824Y-10022674D01*
X14241824Y-10022674D02*
X14260872Y-10013150D01*
X14260872Y-10013150D02*
X14279920Y-10013150D01*
X14346586Y-10146484D02*
X14346586Y-10013150D01*
X14346586Y-9946484D02*
X14337062Y-9956008D01*
X14337062Y-9956008D02*
X14346586Y-9965531D01*
X14346586Y-9965531D02*
X14356110Y-9956008D01*
X14356110Y-9956008D02*
X14346586Y-9946484D01*
X14346586Y-9946484D02*
X14346586Y-9965531D01*
X14470396Y-10146484D02*
X14451348Y-10136960D01*
X14451348Y-10136960D02*
X14441824Y-10117912D01*
X14441824Y-10117912D02*
X14441824Y-9946484D01*
X14575158Y-10146484D02*
X14556110Y-10136960D01*
X14556110Y-10136960D02*
X14546586Y-10117912D01*
X14546586Y-10117912D02*
X14546586Y-9946484D01*
X14803729Y-10146484D02*
X14803729Y-9946484D01*
X14803729Y-9946484D02*
X14870396Y-10089341D01*
X14870396Y-10089341D02*
X14937062Y-9946484D01*
X14937062Y-9946484D02*
X14937062Y-10146484D01*
X15118015Y-10146484D02*
X15118015Y-10041722D01*
X15118015Y-10041722D02*
X15108491Y-10022674D01*
X15108491Y-10022674D02*
X15089443Y-10013150D01*
X15089443Y-10013150D02*
X15051348Y-10013150D01*
X15051348Y-10013150D02*
X15032301Y-10022674D01*
X15118015Y-10136960D02*
X15098967Y-10146484D01*
X15098967Y-10146484D02*
X15051348Y-10146484D01*
X15051348Y-10146484D02*
X15032301Y-10136960D01*
X15032301Y-10136960D02*
X15022777Y-10117912D01*
X15022777Y-10117912D02*
X15022777Y-10098865D01*
X15022777Y-10098865D02*
X15032301Y-10079817D01*
X15032301Y-10079817D02*
X15051348Y-10070293D01*
X15051348Y-10070293D02*
X15098967Y-10070293D01*
X15098967Y-10070293D02*
X15118015Y-10060770D01*
X15213253Y-10013150D02*
X15213253Y-10213150D01*
X15213253Y-10022674D02*
X15232301Y-10013150D01*
X15232301Y-10013150D02*
X15270396Y-10013150D01*
X15270396Y-10013150D02*
X15289443Y-10022674D01*
X15289443Y-10022674D02*
X15298967Y-10032198D01*
X15298967Y-10032198D02*
X15308491Y-10051246D01*
X15308491Y-10051246D02*
X15308491Y-10108389D01*
X15308491Y-10108389D02*
X15298967Y-10127436D01*
X15298967Y-10127436D02*
X15289443Y-10136960D01*
X15289443Y-10136960D02*
X15270396Y-10146484D01*
X15270396Y-10146484D02*
X15232301Y-10146484D01*
X15232301Y-10146484D02*
X15213253Y-10136960D01*
X15394205Y-10127436D02*
X15403729Y-10136960D01*
X15403729Y-10136960D02*
X15394205Y-10146484D01*
X15394205Y-10146484D02*
X15384682Y-10136960D01*
X15384682Y-10136960D02*
X15394205Y-10127436D01*
X15394205Y-10127436D02*
X15394205Y-10146484D01*
X15394205Y-10022674D02*
X15403729Y-10032198D01*
X15403729Y-10032198D02*
X15394205Y-10041722D01*
X15394205Y-10041722D02*
X15384682Y-10032198D01*
X15384682Y-10032198D02*
X15394205Y-10022674D01*
X15394205Y-10022674D02*
X15394205Y-10041722D01*
M02*
