G04 #@! TF.GenerationSoftware,KiCad,Pcbnew,7.0.10*
G04 #@! TF.CreationDate,2024-08-16T14:30:36-05:00*
G04 #@! TF.ProjectId,DiffPCB,44696666-5043-4422-9e6b-696361645f70,rev?*
G04 #@! TF.SameCoordinates,Original*
G04 #@! TF.FileFunction,Copper,L6,Bot*
G04 #@! TF.FilePolarity,Positive*
%FSLAX46Y46*%
G04 Gerber Fmt 4.6, Leading zero omitted, Abs format (unit mm)*
G04 Created by KiCad (PCBNEW 7.0.10) date 2024-08-16 14:30:36*
%MOMM*%
%LPD*%
G01*
G04 APERTURE LIST*
G04 Aperture macros list*
%AMRoundRect*
0 Rectangle with rounded corners*
0 $1 Rounding radius*
0 $2 $3 $4 $5 $6 $7 $8 $9 X,Y pos of 4 corners*
0 Add a 4 corners polygon primitive as box body*
4,1,4,$2,$3,$4,$5,$6,$7,$8,$9,$2,$3,0*
0 Add four circle primitives for the rounded corners*
1,1,$1+$1,$2,$3*
1,1,$1+$1,$4,$5*
1,1,$1+$1,$6,$7*
1,1,$1+$1,$8,$9*
0 Add four rect primitives between the rounded corners*
20,1,$1+$1,$2,$3,$4,$5,0*
20,1,$1+$1,$4,$5,$6,$7,0*
20,1,$1+$1,$6,$7,$8,$9,0*
20,1,$1+$1,$8,$9,$2,$3,0*%
G04 Aperture macros list end*
G04 #@! TA.AperFunction,SMDPad,CuDef*
%ADD10RoundRect,0.225000X0.250000X-0.225000X0.250000X0.225000X-0.250000X0.225000X-0.250000X-0.225000X0*%
G04 #@! TD*
G04 #@! TA.AperFunction,SMDPad,CuDef*
%ADD11RoundRect,0.200000X0.275000X-0.200000X0.275000X0.200000X-0.275000X0.200000X-0.275000X-0.200000X0*%
G04 #@! TD*
G04 #@! TA.AperFunction,SMDPad,CuDef*
%ADD12R,0.977900X0.508000*%
G04 #@! TD*
G04 #@! TA.AperFunction,SMDPad,CuDef*
%ADD13R,0.508000X0.977900*%
G04 #@! TD*
G04 #@! TA.AperFunction,SMDPad,CuDef*
%ADD14RoundRect,0.200000X0.200000X0.275000X-0.200000X0.275000X-0.200000X-0.275000X0.200000X-0.275000X0*%
G04 #@! TD*
G04 #@! TA.AperFunction,SMDPad,CuDef*
%ADD15RoundRect,0.225000X-0.225000X-0.250000X0.225000X-0.250000X0.225000X0.250000X-0.225000X0.250000X0*%
G04 #@! TD*
G04 #@! TA.AperFunction,ViaPad*
%ADD16C,0.800000*%
G04 #@! TD*
G04 #@! TA.AperFunction,Conductor*
%ADD17C,0.250000*%
G04 #@! TD*
G04 #@! TA.AperFunction,Conductor*
%ADD18C,0.200000*%
G04 #@! TD*
G04 APERTURE END LIST*
D10*
X147045000Y-86964998D03*
X147045000Y-85414998D03*
X140975000Y-86164998D03*
X140975000Y-84614998D03*
X150059750Y-87785001D03*
X150059750Y-86235001D03*
X140925001Y-90335250D03*
X140925001Y-88785250D03*
D11*
X144155000Y-90435000D03*
X144155000Y-88785000D03*
D12*
X153245000Y-89100000D03*
X153245000Y-90050001D03*
X153245000Y-91000002D03*
X150514500Y-91000002D03*
X150514500Y-89100000D03*
D13*
X139964999Y-91854750D03*
X140915000Y-91854750D03*
X141865001Y-91854750D03*
X141865001Y-94585250D03*
X139964999Y-94585250D03*
D14*
X145260000Y-83549998D03*
X143610000Y-83549998D03*
D12*
X142665000Y-87200000D03*
X142665000Y-86249999D03*
X142665000Y-85299998D03*
X145395500Y-85299998D03*
X145395500Y-87200000D03*
D10*
X154869750Y-89965001D03*
X154869750Y-88415001D03*
D15*
X140105001Y-96105250D03*
X141655001Y-96105250D03*
D16*
X155895000Y-90020000D03*
X151355000Y-75140000D03*
X151385000Y-76010000D03*
X140895000Y-91030000D03*
X149515000Y-93810000D03*
X144875000Y-64500000D03*
X143915000Y-66550000D03*
X156475000Y-97560000D03*
X145925000Y-64520000D03*
X143915000Y-64500000D03*
X143915000Y-65590000D03*
X156575000Y-62470000D03*
X154115000Y-92480000D03*
X140315000Y-64470000D03*
X141365000Y-67610000D03*
X143915000Y-63540000D03*
X146885000Y-65610000D03*
X145925000Y-68600000D03*
X144875000Y-65590000D03*
X144875000Y-66550000D03*
X142325000Y-66540000D03*
X141365000Y-65580000D03*
X142325000Y-63530000D03*
X145925000Y-63560000D03*
X141365000Y-63530000D03*
X140315000Y-67590000D03*
X144875000Y-67620000D03*
X146885000Y-66570000D03*
X146885000Y-67640000D03*
X140315000Y-66520000D03*
X143915000Y-67620000D03*
X142325000Y-67610000D03*
X145925000Y-65610000D03*
X140315000Y-63510000D03*
X143915000Y-68580000D03*
X139355000Y-65560000D03*
X140315000Y-65560000D03*
X142325000Y-64490000D03*
X142325000Y-65580000D03*
X142325000Y-68570000D03*
X146885000Y-68600000D03*
X144875000Y-63540000D03*
X145925000Y-66570000D03*
X144875000Y-68580000D03*
X141365000Y-68570000D03*
X146885000Y-63560000D03*
X139355000Y-64470000D03*
X141365000Y-66540000D03*
X139355000Y-66520000D03*
X141365000Y-64490000D03*
X138585000Y-97300000D03*
X140315000Y-68550000D03*
X139355000Y-68550000D03*
X139355000Y-67590000D03*
X145925000Y-67640000D03*
X146885000Y-64520000D03*
X141755000Y-88970000D03*
X139355000Y-63510000D03*
X151635000Y-84200000D03*
X151555000Y-64910000D03*
X154985000Y-74940000D03*
X150725000Y-94940000D03*
X154995000Y-76010000D03*
X150725000Y-93760000D03*
X151675000Y-65970000D03*
X151665000Y-85050000D03*
X140165000Y-97240000D03*
X148685000Y-83100000D03*
X148685000Y-85040000D03*
X148685000Y-84110000D03*
X138430000Y-85380000D03*
X154415000Y-85230000D03*
X154425000Y-83810000D03*
X154565000Y-67090000D03*
X147025000Y-94210000D03*
X148295000Y-90880000D03*
X152035000Y-91190000D03*
D17*
X140975000Y-86164998D02*
X140125001Y-87014997D01*
X140925001Y-90999999D02*
X140895000Y-91030000D01*
X140125001Y-87014997D02*
X140125001Y-89535250D01*
X140915000Y-91854750D02*
X140915000Y-90345251D01*
X140125001Y-89535250D02*
X140925001Y-90335250D01*
X140925001Y-90335250D02*
X140925001Y-90999999D01*
X154869750Y-89965001D02*
X153330000Y-89965001D01*
X155895000Y-90020000D02*
X154924749Y-90020000D01*
X142665000Y-86249999D02*
X141060001Y-86249999D01*
X148685000Y-86410251D02*
X150059750Y-87785001D01*
X150059750Y-88645250D02*
X150514500Y-89100000D01*
X147045000Y-86964998D02*
X145630502Y-86964998D01*
X145630502Y-86964998D02*
X145395500Y-87200000D01*
X147045000Y-86680000D02*
X148685000Y-85040000D01*
X150059750Y-87785001D02*
X150059750Y-88645250D01*
X140165000Y-97240000D02*
X140165000Y-96165249D01*
X140105001Y-96105250D02*
X140105001Y-94725252D01*
X140105001Y-94725252D02*
X139964999Y-94585250D01*
X148685000Y-85040000D02*
X148685000Y-86410251D01*
X150059750Y-88480000D02*
X150059750Y-87785001D01*
X154565000Y-67090000D02*
X142665000Y-78990000D01*
X142665000Y-78990000D02*
X142665000Y-85299998D01*
D18*
X146649750Y-94585250D02*
X147025000Y-94210000D01*
X139964999Y-92685248D02*
X141865001Y-94585250D01*
X141865001Y-94585250D02*
X146649750Y-94585250D01*
X139964999Y-91854750D02*
X139964999Y-92685248D01*
X143610000Y-86943950D02*
X143353950Y-87200000D01*
X147130000Y-89735000D02*
X148265000Y-90870000D01*
X142665000Y-87200000D02*
X142665000Y-88570000D01*
X143353950Y-87200000D02*
X142665000Y-87200000D01*
X143830000Y-89735000D02*
X147130000Y-89735000D01*
X142665000Y-88570000D02*
X143830000Y-89735000D01*
X143610000Y-83549998D02*
X143610000Y-86943950D01*
D17*
X152214998Y-91000002D02*
X152055000Y-91160000D01*
X153245000Y-91000002D02*
X152214998Y-91000002D01*
X149644502Y-91870000D02*
X150514500Y-91000002D01*
X152414502Y-89100000D02*
X150514500Y-91000002D01*
X153245000Y-89100000D02*
X152414502Y-89100000D01*
X141865001Y-91854750D02*
X142735250Y-91854750D01*
X142735250Y-91854750D02*
X144155000Y-90435000D01*
X141880251Y-91870000D02*
X149644502Y-91870000D01*
X145395500Y-85299998D02*
X145395500Y-83685498D01*
X144155000Y-86540498D02*
X144155000Y-88785000D01*
X145395500Y-85299998D02*
X144155000Y-86540498D01*
G04 #@! TA.AperFunction,Conductor*
G36*
X156887651Y-90384970D02*
G01*
X156928180Y-90441884D01*
X156935000Y-90482441D01*
X156935000Y-97738598D01*
X156915315Y-97805637D01*
X156898635Y-97826326D01*
X156771364Y-97953462D01*
X156710023Y-97986914D01*
X156683598Y-97989734D01*
X140994727Y-97973220D01*
X140927709Y-97953465D01*
X140882009Y-97900613D01*
X140872139Y-97831444D01*
X140894545Y-97776328D01*
X140897526Y-97772222D01*
X140897533Y-97772216D01*
X140992179Y-97608284D01*
X141050674Y-97428256D01*
X141070460Y-97240000D01*
X141050674Y-97051744D01*
X140992179Y-96871716D01*
X140967141Y-96828349D01*
X140950669Y-96760453D01*
X140968991Y-96701255D01*
X140992004Y-96663947D01*
X141045350Y-96502958D01*
X141055501Y-96403595D01*
X141055500Y-95806906D01*
X141054911Y-95801144D01*
X141045350Y-95707542D01*
X141045349Y-95707539D01*
X141013985Y-95612888D01*
X140992004Y-95546553D01*
X140992000Y-95546547D01*
X140991999Y-95546544D01*
X140902971Y-95402209D01*
X140902970Y-95402208D01*
X140902969Y-95402206D01*
X140783045Y-95282282D01*
X140783044Y-95282281D01*
X140783042Y-95282279D01*
X140777591Y-95277969D01*
X140737214Y-95220947D01*
X140730501Y-95180702D01*
X140730501Y-94807994D01*
X140732225Y-94792374D01*
X140731940Y-94792347D01*
X140732674Y-94784585D01*
X140730562Y-94717364D01*
X140730501Y-94713470D01*
X140730501Y-94685908D01*
X140730501Y-94685902D01*
X140729997Y-94681920D01*
X140729082Y-94670281D01*
X140728246Y-94643666D01*
X140727711Y-94626625D01*
X140727679Y-94626515D01*
X140727550Y-94626069D01*
X140727551Y-94625613D01*
X140726491Y-94618919D01*
X140727570Y-94618747D01*
X140727747Y-94556200D01*
X140765687Y-94497529D01*
X140829325Y-94468684D01*
X140898455Y-94478823D01*
X140934306Y-94503790D01*
X141074182Y-94643666D01*
X141107667Y-94704989D01*
X141110501Y-94731347D01*
X141110501Y-95122070D01*
X141110502Y-95122076D01*
X141116909Y-95181683D01*
X141167203Y-95316528D01*
X141167207Y-95316535D01*
X141253453Y-95431744D01*
X141253456Y-95431747D01*
X141368665Y-95517993D01*
X141368672Y-95517997D01*
X141413619Y-95534761D01*
X141503518Y-95568291D01*
X141563128Y-95574700D01*
X142166873Y-95574699D01*
X142226484Y-95568291D01*
X142361332Y-95517996D01*
X142476547Y-95431746D01*
X142562797Y-95316531D01*
X142581488Y-95266418D01*
X142623358Y-95210484D01*
X142688822Y-95186066D01*
X142697670Y-95185750D01*
X146602263Y-95185750D01*
X146618447Y-95186810D01*
X146649750Y-95190932D01*
X146649751Y-95190932D01*
X146702004Y-95184052D01*
X146806512Y-95170294D01*
X146928079Y-95119938D01*
X146975532Y-95110500D01*
X147119644Y-95110500D01*
X147119646Y-95110500D01*
X147304803Y-95071144D01*
X147477730Y-94994151D01*
X147552263Y-94940000D01*
X149819540Y-94940000D01*
X149839326Y-95128256D01*
X149839327Y-95128259D01*
X149897818Y-95308277D01*
X149897821Y-95308284D01*
X149992467Y-95472216D01*
X150084744Y-95574700D01*
X150119129Y-95612888D01*
X150272265Y-95724148D01*
X150272270Y-95724151D01*
X150445192Y-95801142D01*
X150445197Y-95801144D01*
X150630354Y-95840500D01*
X150630355Y-95840500D01*
X150819644Y-95840500D01*
X150819646Y-95840500D01*
X151004803Y-95801144D01*
X151177730Y-95724151D01*
X151330871Y-95612888D01*
X151457533Y-95472216D01*
X151552179Y-95308284D01*
X151610674Y-95128256D01*
X151630460Y-94940000D01*
X151610674Y-94751744D01*
X151552179Y-94571716D01*
X151459966Y-94411999D01*
X151443494Y-94344100D01*
X151459967Y-94288000D01*
X151505000Y-94210000D01*
X151552179Y-94128284D01*
X151610674Y-93948256D01*
X151630460Y-93760000D01*
X151610674Y-93571744D01*
X151552179Y-93391716D01*
X151457533Y-93227784D01*
X151330871Y-93087112D01*
X151330870Y-93087111D01*
X151177734Y-92975851D01*
X151177729Y-92975848D01*
X151004807Y-92898857D01*
X151004802Y-92898855D01*
X150859001Y-92867865D01*
X150819646Y-92859500D01*
X150630354Y-92859500D01*
X150608369Y-92864173D01*
X150445197Y-92898855D01*
X150445192Y-92898857D01*
X150272270Y-92975848D01*
X150272265Y-92975851D01*
X150119129Y-93087111D01*
X149992466Y-93227785D01*
X149897821Y-93391715D01*
X149897818Y-93391722D01*
X149839546Y-93571067D01*
X149839326Y-93571744D01*
X149819540Y-93760000D01*
X149839326Y-93948256D01*
X149839327Y-93948259D01*
X149897818Y-94128277D01*
X149897820Y-94128281D01*
X149897821Y-94128284D01*
X149945000Y-94210000D01*
X149990033Y-94288001D01*
X150006505Y-94355901D01*
X149990033Y-94411999D01*
X149897820Y-94571718D01*
X149897818Y-94571722D01*
X149842422Y-94742216D01*
X149839326Y-94751744D01*
X149819540Y-94940000D01*
X147552263Y-94940000D01*
X147630871Y-94882888D01*
X147757533Y-94742216D01*
X147852179Y-94578284D01*
X147910674Y-94398256D01*
X147930460Y-94210000D01*
X147910674Y-94021744D01*
X147852179Y-93841716D01*
X147757533Y-93677784D01*
X147630871Y-93537112D01*
X147600621Y-93515134D01*
X147477734Y-93425851D01*
X147477729Y-93425848D01*
X147304807Y-93348857D01*
X147304802Y-93348855D01*
X147159001Y-93317865D01*
X147119646Y-93309500D01*
X146930354Y-93309500D01*
X146897897Y-93316398D01*
X146745197Y-93348855D01*
X146745192Y-93348857D01*
X146572270Y-93425848D01*
X146572265Y-93425851D01*
X146419129Y-93537111D01*
X146292466Y-93677785D01*
X146197821Y-93841715D01*
X146197818Y-93841721D01*
X146179186Y-93899068D01*
X146139749Y-93956743D01*
X146075390Y-93983942D01*
X146061255Y-93984750D01*
X142697670Y-93984750D01*
X142630631Y-93965065D01*
X142584876Y-93912261D01*
X142581488Y-93904082D01*
X142562799Y-93853973D01*
X142562794Y-93853964D01*
X142476548Y-93738755D01*
X142476545Y-93738752D01*
X142361336Y-93652506D01*
X142361329Y-93652502D01*
X142226483Y-93602208D01*
X142226484Y-93602208D01*
X142166884Y-93595801D01*
X142166882Y-93595800D01*
X142166874Y-93595800D01*
X142166866Y-93595800D01*
X141776148Y-93595800D01*
X141709109Y-93576115D01*
X141688467Y-93559481D01*
X141180107Y-93051121D01*
X141146622Y-92989798D01*
X141151606Y-92920106D01*
X141193478Y-92864173D01*
X141254536Y-92840150D01*
X141276483Y-92837791D01*
X141346665Y-92811613D01*
X141416357Y-92806629D01*
X141433335Y-92811614D01*
X141503512Y-92837789D01*
X141503518Y-92837791D01*
X141563128Y-92844200D01*
X142166873Y-92844199D01*
X142226484Y-92837791D01*
X142361332Y-92787496D01*
X142476547Y-92701246D01*
X142562797Y-92586031D01*
X142566475Y-92576170D01*
X142608345Y-92520235D01*
X142673809Y-92495816D01*
X142682658Y-92495500D01*
X149561759Y-92495500D01*
X149577379Y-92497224D01*
X149577406Y-92496939D01*
X149585162Y-92497671D01*
X149585169Y-92497673D01*
X149652375Y-92495561D01*
X149656270Y-92495500D01*
X149683848Y-92495500D01*
X149683852Y-92495500D01*
X149687826Y-92494997D01*
X149699465Y-92494080D01*
X149743129Y-92492709D01*
X149762371Y-92487117D01*
X149781414Y-92483174D01*
X149801294Y-92480664D01*
X149841903Y-92464585D01*
X149852946Y-92460803D01*
X149894892Y-92448618D01*
X149912131Y-92438422D01*
X149929605Y-92429862D01*
X149948229Y-92422488D01*
X149948229Y-92422487D01*
X149948234Y-92422486D01*
X149983585Y-92396800D01*
X149993316Y-92390408D01*
X150030922Y-92368170D01*
X150045091Y-92353999D01*
X150059881Y-92341368D01*
X150076089Y-92329594D01*
X150103940Y-92295926D01*
X150111781Y-92287309D01*
X150608272Y-91790820D01*
X150669595Y-91757335D01*
X150695953Y-91754501D01*
X151051321Y-91754501D01*
X151051322Y-91754501D01*
X151110933Y-91748093D01*
X151192721Y-91717587D01*
X151262409Y-91712604D01*
X151323733Y-91746088D01*
X151328192Y-91750787D01*
X151429129Y-91862888D01*
X151429132Y-91862890D01*
X151582265Y-91974148D01*
X151582270Y-91974151D01*
X151755192Y-92051142D01*
X151755197Y-92051144D01*
X151940354Y-92090500D01*
X151940355Y-92090500D01*
X152129644Y-92090500D01*
X152129646Y-92090500D01*
X152314803Y-92051144D01*
X152487730Y-91974151D01*
X152640871Y-91862888D01*
X152701521Y-91795529D01*
X152761007Y-91758880D01*
X152793671Y-91754501D01*
X153781821Y-91754501D01*
X153781822Y-91754501D01*
X153841433Y-91748093D01*
X153976281Y-91697798D01*
X154091496Y-91611548D01*
X154177746Y-91496333D01*
X154228041Y-91361485D01*
X154234450Y-91301875D01*
X154234449Y-90998337D01*
X154254133Y-90931300D01*
X154306937Y-90885545D01*
X154376096Y-90875601D01*
X154397441Y-90880630D01*
X154472042Y-90905350D01*
X154571405Y-90915501D01*
X155168094Y-90915500D01*
X155168102Y-90915499D01*
X155168105Y-90915499D01*
X155222510Y-90909941D01*
X155267458Y-90905350D01*
X155428447Y-90852004D01*
X155428453Y-90851999D01*
X155434989Y-90848953D01*
X155436204Y-90851559D01*
X155490928Y-90836567D01*
X155539109Y-90847266D01*
X155615197Y-90881144D01*
X155800354Y-90920500D01*
X155800355Y-90920500D01*
X155989644Y-90920500D01*
X155989646Y-90920500D01*
X156174803Y-90881144D01*
X156347730Y-90804151D01*
X156500871Y-90692888D01*
X156627533Y-90552216D01*
X156703613Y-90420440D01*
X156754180Y-90372226D01*
X156822787Y-90359002D01*
X156887651Y-90384970D01*
G37*
G04 #@! TD.AperFunction*
G04 #@! TA.AperFunction,Conductor*
G36*
X156750677Y-62139685D02*
G01*
X156771319Y-62156319D01*
X156898681Y-62283681D01*
X156932166Y-62345004D01*
X156935000Y-62371362D01*
X156935000Y-89557558D01*
X156915315Y-89624597D01*
X156862511Y-89670352D01*
X156793353Y-89680296D01*
X156729797Y-89651271D01*
X156703613Y-89619558D01*
X156627534Y-89487785D01*
X156543901Y-89394901D01*
X156500871Y-89347112D01*
X156500870Y-89347111D01*
X156347734Y-89235851D01*
X156347729Y-89235848D01*
X156174807Y-89158857D01*
X156174802Y-89158855D01*
X156029001Y-89127865D01*
X155989646Y-89119500D01*
X155800354Y-89119500D01*
X155800352Y-89119500D01*
X155622396Y-89157325D01*
X155552729Y-89152009D01*
X155531519Y-89141574D01*
X155428449Y-89077999D01*
X155428444Y-89077997D01*
X155267459Y-89024652D01*
X155168096Y-89014501D01*
X154571412Y-89014501D01*
X154571394Y-89014502D01*
X154472042Y-89024651D01*
X154472039Y-89024652D01*
X154397453Y-89049368D01*
X154327624Y-89051770D01*
X154267583Y-89016038D01*
X154236390Y-88953518D01*
X154234449Y-88931662D01*
X154234449Y-88798129D01*
X154234448Y-88798123D01*
X154228041Y-88738516D01*
X154177747Y-88603671D01*
X154177743Y-88603664D01*
X154091497Y-88488455D01*
X154091494Y-88488452D01*
X153976285Y-88402206D01*
X153976278Y-88402202D01*
X153841432Y-88351908D01*
X153841433Y-88351908D01*
X153781833Y-88345501D01*
X153781831Y-88345500D01*
X153781823Y-88345500D01*
X153781814Y-88345500D01*
X152708179Y-88345500D01*
X152708173Y-88345501D01*
X152648566Y-88351908D01*
X152513721Y-88402202D01*
X152513719Y-88402204D01*
X152450183Y-88449767D01*
X152384719Y-88474184D01*
X152375872Y-88474500D01*
X152375152Y-88474500D01*
X152371175Y-88475002D01*
X152359544Y-88475917D01*
X152315876Y-88477289D01*
X152315870Y-88477290D01*
X152296628Y-88482880D01*
X152277589Y-88486823D01*
X152257719Y-88489334D01*
X152257705Y-88489337D01*
X152217100Y-88505413D01*
X152206056Y-88509194D01*
X152164116Y-88521379D01*
X152164112Y-88521381D01*
X152146868Y-88531579D01*
X152129407Y-88540133D01*
X152110776Y-88547510D01*
X152110764Y-88547517D01*
X152075435Y-88573185D01*
X152065675Y-88579596D01*
X152028082Y-88601829D01*
X152013916Y-88615995D01*
X151999126Y-88628627D01*
X151982916Y-88640404D01*
X151982913Y-88640407D01*
X151955075Y-88674058D01*
X151947213Y-88682697D01*
X151715630Y-88914281D01*
X151654307Y-88947766D01*
X151584616Y-88942782D01*
X151528682Y-88900911D01*
X151504265Y-88835446D01*
X151503949Y-88826600D01*
X151503949Y-88798129D01*
X151503948Y-88798123D01*
X151497541Y-88738516D01*
X151447247Y-88603671D01*
X151447243Y-88603664D01*
X151360997Y-88488455D01*
X151360994Y-88488452D01*
X151245785Y-88402206D01*
X151245778Y-88402202D01*
X151110934Y-88351909D01*
X151103438Y-88350138D01*
X151042722Y-88315565D01*
X151010336Y-88253654D01*
X151014248Y-88190455D01*
X151025098Y-88157711D01*
X151025099Y-88157709D01*
X151035250Y-88058346D01*
X151035249Y-87511657D01*
X151034249Y-87501872D01*
X151025099Y-87412293D01*
X151025098Y-87412290D01*
X151000384Y-87337707D01*
X150971753Y-87251304D01*
X150971749Y-87251298D01*
X150971748Y-87251295D01*
X150882720Y-87106960D01*
X150882717Y-87106956D01*
X150762794Y-86987033D01*
X150762790Y-86987030D01*
X150618455Y-86898002D01*
X150618449Y-86897999D01*
X150618447Y-86897998D01*
X150570892Y-86882240D01*
X150457459Y-86844652D01*
X150358102Y-86834501D01*
X150358095Y-86834501D01*
X150045202Y-86834501D01*
X149978163Y-86814816D01*
X149957521Y-86798182D01*
X149346819Y-86187479D01*
X149313334Y-86126156D01*
X149310500Y-86099798D01*
X149310500Y-85738687D01*
X149330185Y-85671648D01*
X149342350Y-85655715D01*
X149364340Y-85631292D01*
X149417533Y-85572216D01*
X149512179Y-85408284D01*
X149570674Y-85228256D01*
X149590460Y-85040000D01*
X149570674Y-84851744D01*
X149512179Y-84671716D01*
X149492134Y-84636997D01*
X149475662Y-84569101D01*
X149492133Y-84513003D01*
X149512179Y-84478284D01*
X149570674Y-84298256D01*
X149581001Y-84200000D01*
X150729540Y-84200000D01*
X150749326Y-84388256D01*
X150749327Y-84388259D01*
X150803540Y-84555111D01*
X150807821Y-84568284D01*
X150822997Y-84594570D01*
X150839470Y-84662469D01*
X150833541Y-84694888D01*
X150782577Y-84851740D01*
X150779326Y-84861744D01*
X150759540Y-85050000D01*
X150779326Y-85238256D01*
X150779327Y-85238259D01*
X150837818Y-85418277D01*
X150837821Y-85418284D01*
X150932467Y-85582216D01*
X151012992Y-85671648D01*
X151059129Y-85722888D01*
X151212265Y-85834148D01*
X151212270Y-85834151D01*
X151385192Y-85911142D01*
X151385197Y-85911144D01*
X151570354Y-85950500D01*
X151570355Y-85950500D01*
X151759644Y-85950500D01*
X151759646Y-85950500D01*
X151944803Y-85911144D01*
X152117730Y-85834151D01*
X152270871Y-85722888D01*
X152397533Y-85582216D01*
X152492179Y-85418284D01*
X152550674Y-85238256D01*
X152551542Y-85230000D01*
X153509540Y-85230000D01*
X153529326Y-85418256D01*
X153529327Y-85418259D01*
X153587818Y-85598277D01*
X153587821Y-85598284D01*
X153682467Y-85762216D01*
X153747235Y-85834148D01*
X153809129Y-85902888D01*
X153962265Y-86014148D01*
X153962270Y-86014151D01*
X154135192Y-86091142D01*
X154135197Y-86091144D01*
X154320354Y-86130500D01*
X154320355Y-86130500D01*
X154509644Y-86130500D01*
X154509646Y-86130500D01*
X154694803Y-86091144D01*
X154867730Y-86014151D01*
X155020871Y-85902888D01*
X155147533Y-85762216D01*
X155242179Y-85598284D01*
X155300674Y-85418256D01*
X155320460Y-85230000D01*
X155300674Y-85041744D01*
X155242179Y-84861716D01*
X155147533Y-84697784D01*
X155067163Y-84608524D01*
X155036933Y-84545533D01*
X155045558Y-84476197D01*
X155067160Y-84442584D01*
X155157533Y-84342216D01*
X155252179Y-84178284D01*
X155310674Y-83998256D01*
X155330460Y-83810000D01*
X155310674Y-83621744D01*
X155252179Y-83441716D01*
X155157533Y-83277784D01*
X155030871Y-83137112D01*
X154979791Y-83100000D01*
X154877734Y-83025851D01*
X154877729Y-83025848D01*
X154704807Y-82948857D01*
X154704802Y-82948855D01*
X154530184Y-82911740D01*
X154519646Y-82909500D01*
X154330354Y-82909500D01*
X154319816Y-82911740D01*
X154145197Y-82948855D01*
X154145192Y-82948857D01*
X153972270Y-83025848D01*
X153972265Y-83025851D01*
X153819129Y-83137111D01*
X153692466Y-83277785D01*
X153597821Y-83441715D01*
X153597818Y-83441722D01*
X153544766Y-83605000D01*
X153539326Y-83621744D01*
X153519540Y-83810000D01*
X153539326Y-83998256D01*
X153539327Y-83998259D01*
X153597818Y-84178277D01*
X153597821Y-84178284D01*
X153692464Y-84342212D01*
X153692465Y-84342214D01*
X153692467Y-84342216D01*
X153772837Y-84431476D01*
X153803066Y-84494465D01*
X153794441Y-84563800D01*
X153772836Y-84597418D01*
X153682466Y-84697784D01*
X153587821Y-84861715D01*
X153587818Y-84861722D01*
X153529327Y-85041740D01*
X153529326Y-85041744D01*
X153509540Y-85230000D01*
X152551542Y-85230000D01*
X152570460Y-85050000D01*
X152550674Y-84861744D01*
X152492179Y-84681716D01*
X152477000Y-84655426D01*
X152460529Y-84587531D01*
X152466456Y-84555119D01*
X152520674Y-84388256D01*
X152540460Y-84200000D01*
X152520674Y-84011744D01*
X152462179Y-83831716D01*
X152367533Y-83667784D01*
X152240871Y-83527112D01*
X152240870Y-83527111D01*
X152087734Y-83415851D01*
X152087729Y-83415848D01*
X151914807Y-83338857D01*
X151914802Y-83338855D01*
X151769001Y-83307865D01*
X151729646Y-83299500D01*
X151540354Y-83299500D01*
X151507897Y-83306398D01*
X151355197Y-83338855D01*
X151355192Y-83338857D01*
X151182270Y-83415848D01*
X151182265Y-83415851D01*
X151029129Y-83527111D01*
X150902466Y-83667785D01*
X150807821Y-83831715D01*
X150807818Y-83831722D01*
X150749327Y-84011740D01*
X150749326Y-84011744D01*
X150729540Y-84200000D01*
X149581001Y-84200000D01*
X149590460Y-84110000D01*
X149570674Y-83921744D01*
X149512179Y-83741716D01*
X149469040Y-83666997D01*
X149452568Y-83599100D01*
X149469041Y-83543001D01*
X149512179Y-83468284D01*
X149570674Y-83288256D01*
X149590460Y-83100000D01*
X149570674Y-82911744D01*
X149512179Y-82731716D01*
X149417533Y-82567784D01*
X149290871Y-82427112D01*
X149290870Y-82427111D01*
X149137734Y-82315851D01*
X149137729Y-82315848D01*
X148964807Y-82238857D01*
X148964802Y-82238855D01*
X148819001Y-82207865D01*
X148779646Y-82199500D01*
X148590354Y-82199500D01*
X148557897Y-82206398D01*
X148405197Y-82238855D01*
X148405192Y-82238857D01*
X148232270Y-82315848D01*
X148232265Y-82315851D01*
X148079129Y-82427111D01*
X147952466Y-82567785D01*
X147857821Y-82731715D01*
X147857818Y-82731722D01*
X147800055Y-82909500D01*
X147799326Y-82911744D01*
X147779540Y-83100000D01*
X147799326Y-83288256D01*
X147799327Y-83288259D01*
X147857820Y-83468283D01*
X147900958Y-83543001D01*
X147917430Y-83610901D01*
X147900958Y-83666999D01*
X147857820Y-83741716D01*
X147812366Y-83881611D01*
X147799326Y-83921744D01*
X147779540Y-84110000D01*
X147799326Y-84298256D01*
X147799327Y-84298259D01*
X147857819Y-84478280D01*
X147877865Y-84513002D01*
X147894335Y-84580903D01*
X147877865Y-84636998D01*
X147857819Y-84671719D01*
X147800612Y-84847785D01*
X147799326Y-84851744D01*
X147783942Y-84998114D01*
X147781679Y-85019649D01*
X147755094Y-85084263D01*
X147746039Y-85094368D01*
X146862228Y-85978179D01*
X146800905Y-86011664D01*
X146774551Y-86014498D01*
X146746665Y-86014498D01*
X146746643Y-86014499D01*
X146647292Y-86024648D01*
X146647289Y-86024649D01*
X146486305Y-86077994D01*
X146486294Y-86077999D01*
X146341959Y-86167027D01*
X146222032Y-86286953D01*
X146217724Y-86292403D01*
X146160704Y-86332783D01*
X146120453Y-86339498D01*
X145713245Y-86339498D01*
X145697624Y-86337773D01*
X145697598Y-86338059D01*
X145689836Y-86337325D01*
X145689835Y-86337325D01*
X145627611Y-86339280D01*
X145622629Y-86339437D01*
X145618734Y-86339498D01*
X145591149Y-86339498D01*
X145587163Y-86340001D01*
X145575532Y-86340916D01*
X145541289Y-86341992D01*
X145473665Y-86324422D01*
X145426274Y-86273082D01*
X145414163Y-86204269D01*
X145441178Y-86139834D01*
X145449699Y-86130388D01*
X145489274Y-86090814D01*
X145550598Y-86057330D01*
X145576953Y-86054497D01*
X145932321Y-86054497D01*
X145932322Y-86054497D01*
X145991933Y-86048089D01*
X146126781Y-85997794D01*
X146241996Y-85911544D01*
X146328246Y-85796329D01*
X146378541Y-85661481D01*
X146384950Y-85601871D01*
X146384949Y-84998126D01*
X146378541Y-84938515D01*
X146370286Y-84916383D01*
X146328247Y-84803669D01*
X146328243Y-84803662D01*
X146241997Y-84688453D01*
X146241994Y-84688450D01*
X146126785Y-84602204D01*
X146126775Y-84602199D01*
X146101665Y-84592833D01*
X146045732Y-84550961D01*
X146021316Y-84485496D01*
X146021000Y-84476652D01*
X146021000Y-84285606D01*
X146038883Y-84221456D01*
X146051854Y-84200000D01*
X146103478Y-84114604D01*
X146154086Y-83952194D01*
X146160500Y-83881614D01*
X146160500Y-83218382D01*
X146154086Y-83147802D01*
X146103478Y-82985392D01*
X146015472Y-82839813D01*
X146015470Y-82839811D01*
X146015469Y-82839809D01*
X145895188Y-82719528D01*
X145749606Y-82631520D01*
X145587196Y-82580912D01*
X145587194Y-82580911D01*
X145587192Y-82580911D01*
X145537778Y-82576421D01*
X145516616Y-82574498D01*
X145003384Y-82574498D01*
X144984145Y-82576246D01*
X144932807Y-82580911D01*
X144770393Y-82631520D01*
X144624811Y-82719528D01*
X144624810Y-82719529D01*
X144522681Y-82821659D01*
X144461358Y-82855144D01*
X144391666Y-82850160D01*
X144347319Y-82821659D01*
X144245188Y-82719528D01*
X144099606Y-82631520D01*
X143937196Y-82580912D01*
X143937194Y-82580911D01*
X143937192Y-82580911D01*
X143887778Y-82576421D01*
X143866616Y-82574498D01*
X143414500Y-82574498D01*
X143347461Y-82554813D01*
X143301706Y-82502009D01*
X143290500Y-82450498D01*
X143290500Y-79300452D01*
X143310185Y-79233413D01*
X143326819Y-79212771D01*
X147399590Y-75140000D01*
X150449540Y-75140000D01*
X150469326Y-75328256D01*
X150469327Y-75328259D01*
X150527818Y-75508277D01*
X150527821Y-75508284D01*
X150547155Y-75541771D01*
X150563628Y-75609671D01*
X150557699Y-75642089D01*
X150499327Y-75821740D01*
X150499326Y-75821744D01*
X150479540Y-76010000D01*
X150499326Y-76198256D01*
X150499327Y-76198259D01*
X150557818Y-76378277D01*
X150557821Y-76378284D01*
X150652467Y-76542216D01*
X150779129Y-76682888D01*
X150932265Y-76794148D01*
X150932270Y-76794151D01*
X151105192Y-76871142D01*
X151105197Y-76871144D01*
X151290354Y-76910500D01*
X151290355Y-76910500D01*
X151479644Y-76910500D01*
X151479646Y-76910500D01*
X151664803Y-76871144D01*
X151837730Y-76794151D01*
X151990871Y-76682888D01*
X152117533Y-76542216D01*
X152212179Y-76378284D01*
X152270674Y-76198256D01*
X152290460Y-76010000D01*
X152270674Y-75821744D01*
X152212179Y-75641716D01*
X152192843Y-75608225D01*
X152176371Y-75540329D01*
X152182298Y-75507914D01*
X152240674Y-75328256D01*
X152260460Y-75140000D01*
X152240674Y-74951744D01*
X152236858Y-74940000D01*
X154079540Y-74940000D01*
X154099326Y-75128256D01*
X154099327Y-75128259D01*
X154157818Y-75308277D01*
X154157821Y-75308284D01*
X154223278Y-75421659D01*
X154239751Y-75489559D01*
X154223279Y-75545658D01*
X154167820Y-75641716D01*
X154109327Y-75821740D01*
X154109326Y-75821744D01*
X154089540Y-76010000D01*
X154109326Y-76198256D01*
X154109327Y-76198259D01*
X154167818Y-76378277D01*
X154167821Y-76378284D01*
X154262467Y-76542216D01*
X154389129Y-76682888D01*
X154542265Y-76794148D01*
X154542270Y-76794151D01*
X154715192Y-76871142D01*
X154715197Y-76871144D01*
X154900354Y-76910500D01*
X154900355Y-76910500D01*
X155089644Y-76910500D01*
X155089646Y-76910500D01*
X155274803Y-76871144D01*
X155447730Y-76794151D01*
X155600871Y-76682888D01*
X155727533Y-76542216D01*
X155822179Y-76378284D01*
X155880674Y-76198256D01*
X155900460Y-76010000D01*
X155880674Y-75821744D01*
X155822179Y-75641716D01*
X155756719Y-75528336D01*
X155740247Y-75460439D01*
X155756717Y-75404344D01*
X155812179Y-75308284D01*
X155870674Y-75128256D01*
X155890460Y-74940000D01*
X155870674Y-74751744D01*
X155812179Y-74571716D01*
X155717533Y-74407784D01*
X155590871Y-74267112D01*
X155590870Y-74267111D01*
X155437734Y-74155851D01*
X155437729Y-74155848D01*
X155264807Y-74078857D01*
X155264802Y-74078855D01*
X155119001Y-74047865D01*
X155079646Y-74039500D01*
X154890354Y-74039500D01*
X154857897Y-74046398D01*
X154705197Y-74078855D01*
X154705192Y-74078857D01*
X154532270Y-74155848D01*
X154532265Y-74155851D01*
X154379129Y-74267111D01*
X154252466Y-74407785D01*
X154157821Y-74571715D01*
X154157818Y-74571722D01*
X154099327Y-74751740D01*
X154099326Y-74751744D01*
X154079540Y-74940000D01*
X152236858Y-74940000D01*
X152182179Y-74771716D01*
X152087533Y-74607784D01*
X151960871Y-74467112D01*
X151960870Y-74467111D01*
X151807734Y-74355851D01*
X151807729Y-74355848D01*
X151634807Y-74278857D01*
X151634802Y-74278855D01*
X151489001Y-74247865D01*
X151449646Y-74239500D01*
X151260354Y-74239500D01*
X151227897Y-74246398D01*
X151075197Y-74278855D01*
X151075192Y-74278857D01*
X150902270Y-74355848D01*
X150902265Y-74355851D01*
X150749129Y-74467111D01*
X150622466Y-74607785D01*
X150527821Y-74771715D01*
X150527818Y-74771722D01*
X150473142Y-74940000D01*
X150469326Y-74951744D01*
X150449540Y-75140000D01*
X147399590Y-75140000D01*
X154512772Y-68026819D01*
X154574095Y-67993334D01*
X154600453Y-67990500D01*
X154659644Y-67990500D01*
X154659646Y-67990500D01*
X154844803Y-67951144D01*
X155017730Y-67874151D01*
X155170871Y-67762888D01*
X155297533Y-67622216D01*
X155392179Y-67458284D01*
X155450674Y-67278256D01*
X155470460Y-67090000D01*
X155450674Y-66901744D01*
X155392179Y-66721716D01*
X155297533Y-66557784D01*
X155170871Y-66417112D01*
X155170870Y-66417111D01*
X155017734Y-66305851D01*
X155017729Y-66305848D01*
X154844807Y-66228857D01*
X154844802Y-66228855D01*
X154699001Y-66197865D01*
X154659646Y-66189500D01*
X154470354Y-66189500D01*
X154437897Y-66196398D01*
X154285197Y-66228855D01*
X154285192Y-66228857D01*
X154112270Y-66305848D01*
X154112265Y-66305851D01*
X153959129Y-66417111D01*
X153832466Y-66557785D01*
X153737821Y-66721715D01*
X153737818Y-66721722D01*
X153679327Y-66901740D01*
X153679326Y-66901744D01*
X153661679Y-67069649D01*
X153635094Y-67134263D01*
X153626039Y-67144368D01*
X142281208Y-78489199D01*
X142268951Y-78499020D01*
X142269134Y-78499241D01*
X142263122Y-78504214D01*
X142217098Y-78553223D01*
X142214391Y-78556016D01*
X142194889Y-78575517D01*
X142194875Y-78575534D01*
X142192407Y-78578715D01*
X142184843Y-78587570D01*
X142154937Y-78619418D01*
X142154936Y-78619420D01*
X142145284Y-78636976D01*
X142134610Y-78653226D01*
X142122329Y-78669061D01*
X142122324Y-78669068D01*
X142104975Y-78709158D01*
X142099838Y-78719644D01*
X142078803Y-78757906D01*
X142073822Y-78777307D01*
X142067521Y-78795710D01*
X142059562Y-78814102D01*
X142059561Y-78814105D01*
X142052728Y-78857243D01*
X142050360Y-78868674D01*
X142039501Y-78910971D01*
X142039500Y-78910982D01*
X142039500Y-78931016D01*
X142037973Y-78950415D01*
X142034840Y-78970194D01*
X142034840Y-78970195D01*
X142038950Y-79013674D01*
X142039500Y-79025343D01*
X142039500Y-84476652D01*
X142019815Y-84543691D01*
X141967011Y-84589446D01*
X141958835Y-84592833D01*
X141933724Y-84602199D01*
X141933714Y-84602204D01*
X141818505Y-84688450D01*
X141818502Y-84688453D01*
X141732256Y-84803662D01*
X141732252Y-84803669D01*
X141681958Y-84938515D01*
X141675551Y-84998114D01*
X141675551Y-84998121D01*
X141675550Y-84998133D01*
X141675550Y-85153280D01*
X141655865Y-85220319D01*
X141603061Y-85266074D01*
X141533903Y-85276018D01*
X141512546Y-85270986D01*
X141372709Y-85224649D01*
X141273346Y-85214498D01*
X140676662Y-85214498D01*
X140676644Y-85214499D01*
X140577292Y-85224648D01*
X140577289Y-85224649D01*
X140416305Y-85277994D01*
X140416294Y-85277999D01*
X140271959Y-85367027D01*
X140271955Y-85367030D01*
X140152032Y-85486953D01*
X140152029Y-85486957D01*
X140063001Y-85631292D01*
X140062996Y-85631303D01*
X140009651Y-85792288D01*
X139999500Y-85891645D01*
X139999500Y-86204544D01*
X139979815Y-86271583D01*
X139963181Y-86292225D01*
X139741209Y-86514196D01*
X139728952Y-86524017D01*
X139729135Y-86524238D01*
X139723123Y-86529211D01*
X139677099Y-86578220D01*
X139674392Y-86581013D01*
X139654890Y-86600514D01*
X139654876Y-86600531D01*
X139652408Y-86603712D01*
X139644844Y-86612567D01*
X139614938Y-86644415D01*
X139614937Y-86644417D01*
X139605285Y-86661973D01*
X139594611Y-86678223D01*
X139582330Y-86694058D01*
X139582325Y-86694065D01*
X139564976Y-86734155D01*
X139559839Y-86744641D01*
X139538804Y-86782903D01*
X139533823Y-86802304D01*
X139527522Y-86820707D01*
X139519563Y-86839099D01*
X139519562Y-86839102D01*
X139512729Y-86882240D01*
X139510361Y-86893671D01*
X139499502Y-86935968D01*
X139499501Y-86935979D01*
X139499501Y-86956013D01*
X139497974Y-86975412D01*
X139494841Y-86995191D01*
X139494841Y-86995192D01*
X139498951Y-87038671D01*
X139499501Y-87050340D01*
X139499501Y-89452505D01*
X139497776Y-89468122D01*
X139498062Y-89468149D01*
X139497327Y-89475915D01*
X139499440Y-89543122D01*
X139499501Y-89547017D01*
X139499501Y-89574607D01*
X139500004Y-89578585D01*
X139500919Y-89590217D01*
X139502291Y-89633874D01*
X139502292Y-89633877D01*
X139507881Y-89653117D01*
X139511825Y-89672161D01*
X139514337Y-89692042D01*
X139530415Y-89732653D01*
X139534198Y-89743702D01*
X139546383Y-89785640D01*
X139555788Y-89801544D01*
X139556581Y-89802884D01*
X139565139Y-89820353D01*
X139572515Y-89838982D01*
X139598182Y-89874310D01*
X139604594Y-89884071D01*
X139626829Y-89921667D01*
X139626834Y-89921674D01*
X139640991Y-89935830D01*
X139653629Y-89950626D01*
X139665406Y-89966836D01*
X139665407Y-89966837D01*
X139699058Y-89994675D01*
X139707699Y-90002538D01*
X139913182Y-90208021D01*
X139946667Y-90269344D01*
X139949501Y-90295702D01*
X139949501Y-90608586D01*
X139949502Y-90608605D01*
X139959651Y-90707957D01*
X139961070Y-90714583D01*
X139958231Y-90715190D01*
X139960159Y-90772195D01*
X139924392Y-90832216D01*
X139861853Y-90863371D01*
X139840070Y-90865300D01*
X139663129Y-90865300D01*
X139663122Y-90865301D01*
X139603515Y-90871708D01*
X139468670Y-90922002D01*
X139468663Y-90922006D01*
X139353454Y-91008252D01*
X139353451Y-91008255D01*
X139267205Y-91123464D01*
X139267201Y-91123471D01*
X139216907Y-91258317D01*
X139210500Y-91317916D01*
X139210499Y-91317935D01*
X139210499Y-92391570D01*
X139210500Y-92391576D01*
X139216907Y-92451183D01*
X139267201Y-92586028D01*
X139267205Y-92586034D01*
X139343685Y-92688200D01*
X139367357Y-92746324D01*
X139372778Y-92787496D01*
X139379399Y-92837789D01*
X139379955Y-92842008D01*
X139379955Y-92842010D01*
X139435392Y-92975848D01*
X139440463Y-92988089D01*
X139488829Y-93051121D01*
X139536718Y-93113531D01*
X139561768Y-93132752D01*
X139573963Y-93143447D01*
X139814635Y-93384119D01*
X139848120Y-93445442D01*
X139843136Y-93515134D01*
X139801264Y-93571067D01*
X139735800Y-93595484D01*
X139726956Y-93595800D01*
X139663129Y-93595800D01*
X139663122Y-93595801D01*
X139603515Y-93602208D01*
X139468670Y-93652502D01*
X139468663Y-93652506D01*
X139353454Y-93738752D01*
X139353451Y-93738755D01*
X139267205Y-93853964D01*
X139267201Y-93853971D01*
X139216907Y-93988817D01*
X139210500Y-94048416D01*
X139210499Y-94048435D01*
X139210499Y-95122070D01*
X139210500Y-95122076D01*
X139216907Y-95181683D01*
X139267201Y-95316528D01*
X139267203Y-95316532D01*
X139267434Y-95316840D01*
X139267568Y-95317199D01*
X139271453Y-95324314D01*
X139270429Y-95324872D01*
X139291847Y-95382306D01*
X139276992Y-95450578D01*
X139273702Y-95456243D01*
X139217999Y-95546550D01*
X139217997Y-95546555D01*
X139164652Y-95707540D01*
X139154501Y-95806897D01*
X139154501Y-96403587D01*
X139154502Y-96403605D01*
X139164651Y-96502957D01*
X139164652Y-96502960D01*
X139217997Y-96663944D01*
X139218002Y-96663955D01*
X139310570Y-96814029D01*
X139329011Y-96881421D01*
X139322963Y-96917443D01*
X139279326Y-97051744D01*
X139259540Y-97240000D01*
X139279326Y-97428256D01*
X139279327Y-97428259D01*
X139337818Y-97608277D01*
X139337821Y-97608284D01*
X139432467Y-97772216D01*
X139432470Y-97772219D01*
X139434190Y-97774587D01*
X139434763Y-97776193D01*
X139435716Y-97777844D01*
X139435414Y-97778018D01*
X139457669Y-97840394D01*
X139441843Y-97908447D01*
X139391737Y-97957142D01*
X139333740Y-97971471D01*
X138186271Y-97970263D01*
X138119254Y-97950509D01*
X138098737Y-97933960D01*
X137970983Y-97806250D01*
X137937487Y-97744933D01*
X137934649Y-97718727D01*
X137934244Y-97428259D01*
X137918764Y-86329213D01*
X137938354Y-86262152D01*
X137991094Y-86216324D01*
X138060239Y-86206284D01*
X138093199Y-86215767D01*
X138150192Y-86241142D01*
X138150197Y-86241144D01*
X138335354Y-86280500D01*
X138335355Y-86280500D01*
X138524644Y-86280500D01*
X138524646Y-86280500D01*
X138709803Y-86241144D01*
X138882730Y-86164151D01*
X139035871Y-86052888D01*
X139162533Y-85912216D01*
X139257179Y-85748284D01*
X139315674Y-85568256D01*
X139335460Y-85380000D01*
X139315674Y-85191744D01*
X139257179Y-85011716D01*
X139162533Y-84847784D01*
X139035871Y-84707112D01*
X139035870Y-84707111D01*
X138882734Y-84595851D01*
X138882729Y-84595848D01*
X138709807Y-84518857D01*
X138709802Y-84518855D01*
X138540585Y-84482888D01*
X138524646Y-84479500D01*
X138335354Y-84479500D01*
X138319415Y-84482888D01*
X138150197Y-84518855D01*
X138090553Y-84545411D01*
X138021303Y-84554695D01*
X137958027Y-84525067D01*
X137920814Y-84465931D01*
X137916118Y-84432310D01*
X137888891Y-64910000D01*
X150649540Y-64910000D01*
X150669326Y-65098256D01*
X150669327Y-65098259D01*
X150727818Y-65278277D01*
X150727821Y-65278284D01*
X150822466Y-65442215D01*
X150833743Y-65454740D01*
X150863971Y-65517733D01*
X150855344Y-65587068D01*
X150848985Y-65599699D01*
X150847821Y-65601715D01*
X150847821Y-65601716D01*
X150789326Y-65781744D01*
X150769540Y-65970000D01*
X150789326Y-66158256D01*
X150789327Y-66158259D01*
X150847818Y-66338277D01*
X150847821Y-66338284D01*
X150942467Y-66502216D01*
X150992501Y-66557784D01*
X151069129Y-66642888D01*
X151222265Y-66754148D01*
X151222270Y-66754151D01*
X151395192Y-66831142D01*
X151395197Y-66831144D01*
X151580354Y-66870500D01*
X151580355Y-66870500D01*
X151769644Y-66870500D01*
X151769646Y-66870500D01*
X151954803Y-66831144D01*
X152127730Y-66754151D01*
X152280871Y-66642888D01*
X152407533Y-66502216D01*
X152502179Y-66338284D01*
X152560674Y-66158256D01*
X152580460Y-65970000D01*
X152560674Y-65781744D01*
X152502179Y-65601716D01*
X152407533Y-65437784D01*
X152396257Y-65425261D01*
X152366027Y-65362270D01*
X152374652Y-65292935D01*
X152381014Y-65280301D01*
X152382179Y-65278284D01*
X152440674Y-65098256D01*
X152460460Y-64910000D01*
X152440674Y-64721744D01*
X152382179Y-64541716D01*
X152287533Y-64377784D01*
X152160871Y-64237112D01*
X152160870Y-64237111D01*
X152007734Y-64125851D01*
X152007729Y-64125848D01*
X151834807Y-64048857D01*
X151834802Y-64048855D01*
X151689001Y-64017865D01*
X151649646Y-64009500D01*
X151460354Y-64009500D01*
X151427897Y-64016398D01*
X151275197Y-64048855D01*
X151275192Y-64048857D01*
X151102270Y-64125848D01*
X151102265Y-64125851D01*
X150949129Y-64237111D01*
X150822466Y-64377785D01*
X150727821Y-64541715D01*
X150727818Y-64541722D01*
X150669327Y-64721740D01*
X150669326Y-64721744D01*
X150649540Y-64910000D01*
X137888891Y-64910000D01*
X137885350Y-62371409D01*
X137904941Y-62304345D01*
X137921598Y-62283629D01*
X138048672Y-62156378D01*
X138109971Y-62122852D01*
X138136413Y-62120000D01*
X156683638Y-62120000D01*
X156750677Y-62139685D01*
G37*
G04 #@! TD.AperFunction*
G04 #@! TA.AperFunction,Conductor*
G36*
X141642416Y-87092339D02*
G01*
X141673609Y-87154859D01*
X141675550Y-87176715D01*
X141675550Y-87501869D01*
X141675551Y-87501876D01*
X141681958Y-87561483D01*
X141732252Y-87696328D01*
X141732256Y-87696335D01*
X141818502Y-87811544D01*
X141818505Y-87811547D01*
X141933714Y-87897793D01*
X141933723Y-87897798D01*
X141983832Y-87916487D01*
X142039766Y-87958357D01*
X142064184Y-88023821D01*
X142064500Y-88032669D01*
X142064500Y-88522512D01*
X142063439Y-88538697D01*
X142059318Y-88569998D01*
X142059318Y-88570000D01*
X142064500Y-88609360D01*
X142064500Y-88609361D01*
X142079955Y-88726760D01*
X142079956Y-88726762D01*
X142130210Y-88848087D01*
X142140464Y-88872841D01*
X142217673Y-88973462D01*
X142236719Y-88998283D01*
X142261769Y-89017504D01*
X142273964Y-89028199D01*
X143172739Y-89926974D01*
X143206224Y-89988297D01*
X143203444Y-90051543D01*
X143185915Y-90107797D01*
X143185914Y-90107803D01*
X143179500Y-90178386D01*
X143179500Y-90474546D01*
X143159815Y-90541585D01*
X143143181Y-90562227D01*
X142672180Y-91033227D01*
X142610857Y-91066712D01*
X142541165Y-91061728D01*
X142485232Y-91019856D01*
X142476547Y-91008255D01*
X142476547Y-91008254D01*
X142476546Y-91008253D01*
X142476545Y-91008252D01*
X142361336Y-90922006D01*
X142361329Y-90922002D01*
X142226483Y-90871708D01*
X142226484Y-90871708D01*
X142166884Y-90865301D01*
X142166882Y-90865300D01*
X142166874Y-90865300D01*
X142166866Y-90865300D01*
X142009932Y-90865300D01*
X141942893Y-90845615D01*
X141897138Y-90792811D01*
X141887194Y-90723653D01*
X141889311Y-90714653D01*
X141888933Y-90714572D01*
X141890345Y-90707970D01*
X141890350Y-90707958D01*
X141900501Y-90608595D01*
X141900500Y-90061906D01*
X141899441Y-90051543D01*
X141890350Y-89962542D01*
X141890349Y-89962539D01*
X141883786Y-89942734D01*
X141837004Y-89801553D01*
X141837000Y-89801547D01*
X141836999Y-89801544D01*
X141747971Y-89657209D01*
X141747968Y-89657205D01*
X141628045Y-89537282D01*
X141628041Y-89537279D01*
X141483706Y-89448251D01*
X141483700Y-89448248D01*
X141483698Y-89448247D01*
X141483695Y-89448246D01*
X141322710Y-89394901D01*
X141223353Y-89384750D01*
X141223346Y-89384750D01*
X140910454Y-89384750D01*
X140843415Y-89365065D01*
X140822773Y-89348431D01*
X140786820Y-89312478D01*
X140753335Y-89251155D01*
X140750501Y-89224797D01*
X140750501Y-87325449D01*
X140770186Y-87258410D01*
X140786820Y-87237768D01*
X140872772Y-87151816D01*
X140934095Y-87118331D01*
X140960453Y-87115497D01*
X141273338Y-87115497D01*
X141273344Y-87115497D01*
X141273352Y-87115496D01*
X141273355Y-87115496D01*
X141356917Y-87106960D01*
X141372708Y-87105347D01*
X141512548Y-87059008D01*
X141582374Y-87056607D01*
X141642416Y-87092339D01*
G37*
G04 #@! TD.AperFunction*
M02*
