G04 #@! TF.GenerationSoftware,KiCad,Pcbnew,7.0.10*
G04 #@! TF.CreationDate,2024-08-16T14:30:36-05:00*
G04 #@! TF.ProjectId,DiffPCB,44696666-5043-4422-9e6b-696361645f70,rev?*
G04 #@! TF.SameCoordinates,Original*
G04 #@! TF.FileFunction,Paste,Top*
G04 #@! TF.FilePolarity,Positive*
%FSLAX46Y46*%
G04 Gerber Fmt 4.6, Leading zero omitted, Abs format (unit mm)*
G04 Created by KiCad (PCBNEW 7.0.10) date 2024-08-16 14:30:36*
%MOMM*%
%LPD*%
G01*
G04 APERTURE LIST*
G04 Aperture macros list*
%AMRoundRect*
0 Rectangle with rounded corners*
0 $1 Rounding radius*
0 $2 $3 $4 $5 $6 $7 $8 $9 X,Y pos of 4 corners*
0 Add a 4 corners polygon primitive as box body*
4,1,4,$2,$3,$4,$5,$6,$7,$8,$9,$2,$3,0*
0 Add four circle primitives for the rounded corners*
1,1,$1+$1,$2,$3*
1,1,$1+$1,$4,$5*
1,1,$1+$1,$6,$7*
1,1,$1+$1,$8,$9*
0 Add four rect primitives between the rounded corners*
20,1,$1+$1,$2,$3,$4,$5,0*
20,1,$1+$1,$4,$5,$6,$7,0*
20,1,$1+$1,$6,$7,$8,$9,0*
20,1,$1+$1,$8,$9,$2,$3,0*%
G04 Aperture macros list end*
%ADD10R,0.549999X0.800001*%
%ADD11RoundRect,0.225000X0.225000X0.250000X-0.225000X0.250000X-0.225000X-0.250000X0.225000X-0.250000X0*%
%ADD12RoundRect,0.225000X-0.225000X-0.250000X0.225000X-0.250000X0.225000X0.250000X-0.225000X0.250000X0*%
%ADD13RoundRect,0.150000X-0.150000X-0.700000X0.150000X-0.700000X0.150000X0.700000X-0.150000X0.700000X0*%
%ADD14RoundRect,0.250000X-0.250000X-1.100000X0.250000X-1.100000X0.250000X1.100000X-0.250000X1.100000X0*%
%ADD15RoundRect,0.225000X0.250000X-0.225000X0.250000X0.225000X-0.250000X0.225000X-0.250000X-0.225000X0*%
%ADD16RoundRect,0.200000X-0.200000X-0.275000X0.200000X-0.275000X0.200000X0.275000X-0.200000X0.275000X0*%
%ADD17RoundRect,0.250000X0.400000X0.450000X-0.400000X0.450000X-0.400000X-0.450000X0.400000X-0.450000X0*%
%ADD18RoundRect,0.225000X-0.250000X0.225000X-0.250000X-0.225000X0.250000X-0.225000X0.250000X0.225000X0*%
%ADD19R,1.016000X2.692400*%
%ADD20R,10.414000X10.464800*%
%ADD21RoundRect,0.150000X0.150000X-0.512500X0.150000X0.512500X-0.150000X0.512500X-0.150000X-0.512500X0*%
%ADD22R,0.650000X0.400000*%
%ADD23RoundRect,0.200000X-0.275000X0.200000X-0.275000X-0.200000X0.275000X-0.200000X0.275000X0.200000X0*%
%ADD24R,0.889000X1.765300*%
%ADD25R,3.149600X1.765300*%
G04 APERTURE END LIST*
D10*
X154554999Y-63910000D03*
X153604998Y-63910000D03*
X152655000Y-63910000D03*
X152655000Y-66460000D03*
X153604998Y-66460000D03*
X154554999Y-66460000D03*
D11*
X153355000Y-71600000D03*
X151805000Y-71600000D03*
D12*
X150840000Y-86290000D03*
X152390000Y-86290000D03*
D11*
X151129999Y-64030000D03*
X149579999Y-64030000D03*
X145750000Y-87730000D03*
X144200000Y-87730000D03*
D13*
X145765000Y-92490000D03*
X147015000Y-92490000D03*
X148265000Y-92490000D03*
X149515000Y-92490000D03*
X150765000Y-92490000D03*
X152015000Y-92490000D03*
X153265000Y-92490000D03*
D14*
X143915000Y-95690000D03*
X155115000Y-95690000D03*
D15*
X150585000Y-75805000D03*
X150585000Y-74255000D03*
D16*
X138795000Y-86540000D03*
X140445000Y-86540000D03*
X141815000Y-86530000D03*
X143465000Y-86530000D03*
D17*
X145752500Y-89810000D03*
X142852500Y-89810000D03*
D18*
X155825000Y-75715000D03*
X155825000Y-77265000D03*
X155505000Y-86360000D03*
X155505000Y-87910000D03*
D11*
X153355000Y-70070000D03*
X151805000Y-70070000D03*
D12*
X147270000Y-86500000D03*
X148820000Y-86500000D03*
D19*
X140417800Y-83940000D03*
X142119600Y-83940000D03*
X143821400Y-83940000D03*
X145523200Y-83940000D03*
X147225000Y-83940000D03*
D20*
X143821400Y-75507200D03*
D21*
X152205000Y-75600000D03*
X153155000Y-75600000D03*
X154105000Y-75600000D03*
X154105000Y-73325000D03*
X153155000Y-73325000D03*
X152205000Y-73325000D03*
D18*
X154885000Y-67765000D03*
X154885000Y-69315000D03*
D22*
X150805000Y-90230000D03*
X150805000Y-89580000D03*
X150805000Y-88930000D03*
X148905000Y-88930000D03*
X148905000Y-90230000D03*
D23*
X155795000Y-72415000D03*
X155795000Y-74065000D03*
D24*
X150853600Y-84395700D03*
X153165000Y-84395700D03*
X155476400Y-84395700D03*
D25*
X153165000Y-78160000D03*
M02*
