M48
; DRILL file {KiCad 7.0.10} date Fri Aug 16 14:30:42 2024
; FORMAT={-:-/ absolute / metric / decimal}
; #@! TF.CreationDate,2024-08-16T14:30:42-05:00
; #@! TF.GenerationSoftware,Kicad,Pcbnew,7.0.10
; #@! TF.FileFunction,Plated,1,6,PTH
FMAT,2
METRIC
; #@! TA.AperFunction,Plated,PTH,ViaDrill
T1C0.400
%
G90
G05
T1
X138.43Y-85.38
X138.585Y-97.3
X139.355Y-63.51
X139.355Y-64.47
X139.355Y-65.56
X139.355Y-66.52
X139.355Y-67.59
X139.355Y-68.55
X140.165Y-97.24
X140.315Y-63.51
X140.315Y-64.47
X140.315Y-65.56
X140.315Y-66.52
X140.315Y-67.59
X140.315Y-68.55
X140.895Y-91.03
X141.365Y-63.53
X141.365Y-64.49
X141.365Y-65.58
X141.365Y-66.54
X141.365Y-67.61
X141.365Y-68.57
X141.755Y-88.97
X142.325Y-63.53
X142.325Y-64.49
X142.325Y-65.58
X142.325Y-66.54
X142.325Y-67.61
X142.325Y-68.57
X143.915Y-63.54
X143.915Y-64.5
X143.915Y-65.59
X143.915Y-66.55
X143.915Y-67.62
X143.915Y-68.58
X144.875Y-63.54
X144.875Y-64.5
X144.875Y-65.59
X144.875Y-66.55
X144.875Y-67.62
X144.875Y-68.58
X145.925Y-63.56
X145.925Y-64.52
X145.925Y-65.61
X145.925Y-66.57
X145.925Y-67.64
X145.925Y-68.6
X146.885Y-63.56
X146.885Y-64.52
X146.885Y-65.61
X146.885Y-66.57
X146.885Y-67.64
X146.885Y-68.6
X147.025Y-94.21
X148.295Y-90.88
X148.685Y-83.1
X148.685Y-84.11
X148.685Y-85.04
X149.515Y-93.81
X150.725Y-93.76
X150.725Y-94.94
X151.355Y-75.14
X151.385Y-76.01
X151.555Y-64.91
X151.635Y-84.2
X151.665Y-85.05
X151.675Y-65.97
X152.035Y-91.19
X154.115Y-92.48
X154.415Y-85.23
X154.425Y-83.81
X154.565Y-67.09
X154.985Y-74.94
X154.995Y-76.01
X155.895Y-90.02
X156.475Y-97.56
X156.575Y-62.47
M30
