G04 #@! TF.GenerationSoftware,KiCad,Pcbnew,7.0.10*
G04 #@! TF.CreationDate,2024-08-16T14:30:36-05:00*
G04 #@! TF.ProjectId,DiffPCB,44696666-5043-4422-9e6b-696361645f70,rev?*
G04 #@! TF.SameCoordinates,Original*
G04 #@! TF.FileFunction,Copper,L3,Inr*
G04 #@! TF.FilePolarity,Positive*
%FSLAX46Y46*%
G04 Gerber Fmt 4.6, Leading zero omitted, Abs format (unit mm)*
G04 Created by KiCad (PCBNEW 7.0.10) date 2024-08-16 14:30:36*
%MOMM*%
%LPD*%
G01*
G04 APERTURE LIST*
G04 #@! TA.AperFunction,ViaPad*
%ADD10C,0.800000*%
G04 #@! TD*
G04 APERTURE END LIST*
D10*
X155895000Y-90020000D03*
X151355000Y-75140000D03*
X151385000Y-76010000D03*
X140895000Y-91030000D03*
X149515000Y-93810000D03*
X144875000Y-64500000D03*
X143915000Y-66550000D03*
X156475000Y-97560000D03*
X145925000Y-64520000D03*
X143915000Y-64500000D03*
X143915000Y-65590000D03*
X156575000Y-62470000D03*
X154115000Y-92480000D03*
X140315000Y-64470000D03*
X141365000Y-67610000D03*
X143915000Y-63540000D03*
X146885000Y-65610000D03*
X145925000Y-68600000D03*
X144875000Y-65590000D03*
X144875000Y-66550000D03*
X142325000Y-66540000D03*
X141365000Y-65580000D03*
X142325000Y-63530000D03*
X145925000Y-63560000D03*
X141365000Y-63530000D03*
X140315000Y-67590000D03*
X144875000Y-67620000D03*
X146885000Y-66570000D03*
X146885000Y-67640000D03*
X140315000Y-66520000D03*
X143915000Y-67620000D03*
X142325000Y-67610000D03*
X145925000Y-65610000D03*
X140315000Y-63510000D03*
X143915000Y-68580000D03*
X139355000Y-65560000D03*
X140315000Y-65560000D03*
X142325000Y-64490000D03*
X142325000Y-65580000D03*
X142325000Y-68570000D03*
X146885000Y-68600000D03*
X144875000Y-63540000D03*
X145925000Y-66570000D03*
X144875000Y-68580000D03*
X141365000Y-68570000D03*
X146885000Y-63560000D03*
X139355000Y-64470000D03*
X141365000Y-66540000D03*
X139355000Y-66520000D03*
X141365000Y-64490000D03*
X138585000Y-97300000D03*
X140315000Y-68550000D03*
X139355000Y-68550000D03*
X139355000Y-67590000D03*
X145925000Y-67640000D03*
X146885000Y-64520000D03*
X141755000Y-88970000D03*
X139355000Y-63510000D03*
X151635000Y-84200000D03*
X151555000Y-64910000D03*
X154985000Y-74940000D03*
X150725000Y-94940000D03*
X154995000Y-76010000D03*
X150725000Y-93760000D03*
X151675000Y-65970000D03*
X151665000Y-85050000D03*
X140165000Y-97240000D03*
X148685000Y-83100000D03*
X148685000Y-85040000D03*
X148685000Y-84110000D03*
X138430000Y-85380000D03*
X154415000Y-85230000D03*
X154425000Y-83810000D03*
X154565000Y-67090000D03*
X147025000Y-94210000D03*
X148295000Y-90880000D03*
X152035000Y-91190000D03*
G04 #@! TA.AperFunction,Conductor*
G36*
X155638248Y-62139685D02*
G01*
X155684003Y-62192489D01*
X155693947Y-62261647D01*
X155689891Y-62279085D01*
X155689327Y-62281738D01*
X155689326Y-62281742D01*
X155689326Y-62281744D01*
X155669540Y-62470000D01*
X155689326Y-62658256D01*
X155689327Y-62658259D01*
X155747818Y-62838277D01*
X155747821Y-62838284D01*
X155842467Y-63002216D01*
X155940399Y-63110980D01*
X155969129Y-63142888D01*
X156122265Y-63254148D01*
X156122270Y-63254151D01*
X156295192Y-63331142D01*
X156295197Y-63331144D01*
X156480354Y-63370500D01*
X156480355Y-63370500D01*
X156669644Y-63370500D01*
X156669646Y-63370500D01*
X156785220Y-63345934D01*
X156854886Y-63351250D01*
X156910620Y-63393387D01*
X156934725Y-63458967D01*
X156935000Y-63467224D01*
X156935000Y-89557558D01*
X156915315Y-89624597D01*
X156862511Y-89670352D01*
X156793353Y-89680296D01*
X156729797Y-89651271D01*
X156703613Y-89619558D01*
X156627534Y-89487785D01*
X156500870Y-89347111D01*
X156347734Y-89235851D01*
X156347729Y-89235848D01*
X156174807Y-89158857D01*
X156174802Y-89158855D01*
X156029001Y-89127865D01*
X155989646Y-89119500D01*
X155800354Y-89119500D01*
X155767897Y-89126398D01*
X155615197Y-89158855D01*
X155615192Y-89158857D01*
X155442270Y-89235848D01*
X155442265Y-89235851D01*
X155289129Y-89347111D01*
X155162466Y-89487785D01*
X155067821Y-89651715D01*
X155067818Y-89651722D01*
X155009521Y-89831144D01*
X155009326Y-89831744D01*
X154989540Y-90020000D01*
X155009326Y-90208256D01*
X155009327Y-90208259D01*
X155067818Y-90388277D01*
X155067821Y-90388284D01*
X155162467Y-90552216D01*
X155257521Y-90657784D01*
X155289129Y-90692888D01*
X155442265Y-90804148D01*
X155442270Y-90804151D01*
X155615192Y-90881142D01*
X155615197Y-90881144D01*
X155800354Y-90920500D01*
X155800355Y-90920500D01*
X155989644Y-90920500D01*
X155989646Y-90920500D01*
X156174803Y-90881144D01*
X156347730Y-90804151D01*
X156500871Y-90692888D01*
X156627533Y-90552216D01*
X156703613Y-90420440D01*
X156754180Y-90372226D01*
X156822787Y-90359002D01*
X156887651Y-90384970D01*
X156928180Y-90441884D01*
X156935000Y-90482441D01*
X156935000Y-96588141D01*
X156915315Y-96655180D01*
X156862511Y-96700935D01*
X156793353Y-96710879D01*
X156760567Y-96701422D01*
X156754802Y-96698855D01*
X156609001Y-96667865D01*
X156569646Y-96659500D01*
X156380354Y-96659500D01*
X156347897Y-96666398D01*
X156195197Y-96698855D01*
X156195192Y-96698857D01*
X156022270Y-96775848D01*
X156022265Y-96775851D01*
X155869129Y-96887111D01*
X155742466Y-97027785D01*
X155647821Y-97191715D01*
X155647818Y-97191722D01*
X155612637Y-97300000D01*
X155589326Y-97371744D01*
X155569540Y-97560000D01*
X155589326Y-97748256D01*
X155589326Y-97748258D01*
X155589327Y-97748260D01*
X155614640Y-97826168D01*
X155616635Y-97896009D01*
X155580554Y-97955842D01*
X155517853Y-97986669D01*
X155496578Y-97988485D01*
X139451705Y-97971596D01*
X139384687Y-97951841D01*
X139338987Y-97898989D01*
X139329117Y-97829820D01*
X139344449Y-97785596D01*
X139366007Y-97748256D01*
X139412179Y-97668284D01*
X139470674Y-97488256D01*
X139490460Y-97300000D01*
X139470674Y-97111744D01*
X139412179Y-96931716D01*
X139317533Y-96767784D01*
X139190871Y-96627112D01*
X139137232Y-96588141D01*
X139037734Y-96515851D01*
X139037729Y-96515848D01*
X138864807Y-96438857D01*
X138864802Y-96438855D01*
X138719001Y-96407865D01*
X138679646Y-96399500D01*
X138490354Y-96399500D01*
X138457897Y-96406398D01*
X138305197Y-96438855D01*
X138305192Y-96438857D01*
X138132270Y-96515848D01*
X138132261Y-96515854D01*
X138129712Y-96517706D01*
X138127988Y-96518320D01*
X138126637Y-96519101D01*
X138126494Y-96518853D01*
X138063904Y-96541181D01*
X137995851Y-96525351D01*
X137947160Y-96475242D01*
X137932834Y-96417559D01*
X137929755Y-94210000D01*
X146119540Y-94210000D01*
X146139326Y-94398256D01*
X146139327Y-94398259D01*
X146197818Y-94578277D01*
X146197821Y-94578284D01*
X146292467Y-94742216D01*
X146419129Y-94882888D01*
X146572265Y-94994148D01*
X146572270Y-94994151D01*
X146745192Y-95071142D01*
X146745197Y-95071144D01*
X146930354Y-95110500D01*
X146930355Y-95110500D01*
X147119644Y-95110500D01*
X147119646Y-95110500D01*
X147304803Y-95071144D01*
X147477730Y-94994151D01*
X147630871Y-94882888D01*
X147757533Y-94742216D01*
X147852179Y-94578284D01*
X147910674Y-94398256D01*
X147930460Y-94210000D01*
X147910674Y-94021744D01*
X147852179Y-93841716D01*
X147833868Y-93810000D01*
X148609540Y-93810000D01*
X148629326Y-93998256D01*
X148629327Y-93998259D01*
X148687818Y-94178277D01*
X148687821Y-94178284D01*
X148782467Y-94342216D01*
X148841505Y-94407784D01*
X148909129Y-94482888D01*
X149062265Y-94594148D01*
X149062270Y-94594151D01*
X149235192Y-94671142D01*
X149235197Y-94671144D01*
X149420354Y-94710500D01*
X149420355Y-94710500D01*
X149609644Y-94710500D01*
X149609646Y-94710500D01*
X149682068Y-94695106D01*
X149751734Y-94700422D01*
X149807468Y-94742559D01*
X149831573Y-94808138D01*
X149831169Y-94829354D01*
X149819540Y-94940000D01*
X149839326Y-95128256D01*
X149839327Y-95128259D01*
X149897818Y-95308277D01*
X149897821Y-95308284D01*
X149992467Y-95472216D01*
X150119129Y-95612888D01*
X150272265Y-95724148D01*
X150272270Y-95724151D01*
X150445192Y-95801142D01*
X150445197Y-95801144D01*
X150630354Y-95840500D01*
X150630355Y-95840500D01*
X150819644Y-95840500D01*
X150819646Y-95840500D01*
X151004803Y-95801144D01*
X151177730Y-95724151D01*
X151330871Y-95612888D01*
X151457533Y-95472216D01*
X151552179Y-95308284D01*
X151610674Y-95128256D01*
X151630460Y-94940000D01*
X151610674Y-94751744D01*
X151552179Y-94571716D01*
X151459966Y-94411999D01*
X151443494Y-94344100D01*
X151459967Y-94288000D01*
X151505000Y-94210000D01*
X151552179Y-94128284D01*
X151610674Y-93948256D01*
X151630460Y-93760000D01*
X151610674Y-93571744D01*
X151552179Y-93391716D01*
X151457533Y-93227784D01*
X151330871Y-93087112D01*
X151330870Y-93087111D01*
X151177734Y-92975851D01*
X151177729Y-92975848D01*
X151004807Y-92898857D01*
X151004802Y-92898855D01*
X150859001Y-92867865D01*
X150819646Y-92859500D01*
X150630354Y-92859500D01*
X150597897Y-92866398D01*
X150445197Y-92898855D01*
X150445192Y-92898857D01*
X150272271Y-92975848D01*
X150158475Y-93058525D01*
X150092668Y-93082004D01*
X150024614Y-93066178D01*
X150012706Y-93058525D01*
X149967733Y-93025850D01*
X149967729Y-93025848D01*
X149794807Y-92948857D01*
X149794802Y-92948855D01*
X149649001Y-92917865D01*
X149609646Y-92909500D01*
X149420354Y-92909500D01*
X149387897Y-92916398D01*
X149235197Y-92948855D01*
X149235192Y-92948857D01*
X149062270Y-93025848D01*
X149062265Y-93025851D01*
X148909129Y-93137111D01*
X148782466Y-93277785D01*
X148687821Y-93441715D01*
X148687818Y-93441722D01*
X148645573Y-93571740D01*
X148629326Y-93621744D01*
X148609540Y-93810000D01*
X147833868Y-93810000D01*
X147757533Y-93677784D01*
X147630871Y-93537112D01*
X147630870Y-93537111D01*
X147477734Y-93425851D01*
X147477729Y-93425848D01*
X147304807Y-93348857D01*
X147304802Y-93348855D01*
X147159001Y-93317865D01*
X147119646Y-93309500D01*
X146930354Y-93309500D01*
X146897897Y-93316398D01*
X146745197Y-93348855D01*
X146745192Y-93348857D01*
X146572270Y-93425848D01*
X146572265Y-93425851D01*
X146419129Y-93537111D01*
X146292466Y-93677785D01*
X146197821Y-93841715D01*
X146197818Y-93841722D01*
X146139327Y-94021740D01*
X146139326Y-94021744D01*
X146119540Y-94210000D01*
X137929755Y-94210000D01*
X137927342Y-92480000D01*
X153209540Y-92480000D01*
X153229326Y-92668256D01*
X153229327Y-92668259D01*
X153287818Y-92848277D01*
X153287821Y-92848284D01*
X153382467Y-93012216D01*
X153424164Y-93058525D01*
X153509129Y-93152888D01*
X153662265Y-93264148D01*
X153662270Y-93264151D01*
X153835192Y-93341142D01*
X153835197Y-93341144D01*
X154020354Y-93380500D01*
X154020355Y-93380500D01*
X154209644Y-93380500D01*
X154209646Y-93380500D01*
X154394803Y-93341144D01*
X154567730Y-93264151D01*
X154720871Y-93152888D01*
X154847533Y-93012216D01*
X154942179Y-92848284D01*
X155000674Y-92668256D01*
X155020460Y-92480000D01*
X155000674Y-92291744D01*
X154942179Y-92111716D01*
X154847533Y-91947784D01*
X154720871Y-91807112D01*
X154684243Y-91780500D01*
X154567734Y-91695851D01*
X154567729Y-91695848D01*
X154394807Y-91618857D01*
X154394802Y-91618855D01*
X154249001Y-91587865D01*
X154209646Y-91579500D01*
X154020354Y-91579500D01*
X153987897Y-91586398D01*
X153835197Y-91618855D01*
X153835192Y-91618857D01*
X153662270Y-91695848D01*
X153662265Y-91695851D01*
X153509129Y-91807111D01*
X153382466Y-91947785D01*
X153287821Y-92111715D01*
X153287818Y-92111722D01*
X153229327Y-92291740D01*
X153229326Y-92291744D01*
X153209540Y-92480000D01*
X137927342Y-92480000D01*
X137925320Y-91030000D01*
X139989540Y-91030000D01*
X140009326Y-91218256D01*
X140009327Y-91218259D01*
X140067818Y-91398277D01*
X140067821Y-91398284D01*
X140162467Y-91562216D01*
X140213467Y-91618857D01*
X140289129Y-91702888D01*
X140442265Y-91814148D01*
X140442270Y-91814151D01*
X140615192Y-91891142D01*
X140615197Y-91891144D01*
X140800354Y-91930500D01*
X140800355Y-91930500D01*
X140989644Y-91930500D01*
X140989646Y-91930500D01*
X141174803Y-91891144D01*
X141347730Y-91814151D01*
X141500871Y-91702888D01*
X141627533Y-91562216D01*
X141722179Y-91398284D01*
X141780674Y-91218256D01*
X141800460Y-91030000D01*
X141784695Y-90880000D01*
X147389540Y-90880000D01*
X147409326Y-91068256D01*
X147409327Y-91068259D01*
X147467818Y-91248277D01*
X147467821Y-91248284D01*
X147562467Y-91412216D01*
X147689129Y-91552888D01*
X147842265Y-91664148D01*
X147842270Y-91664151D01*
X148015192Y-91741142D01*
X148015197Y-91741144D01*
X148200354Y-91780500D01*
X148200355Y-91780500D01*
X148389644Y-91780500D01*
X148389646Y-91780500D01*
X148574803Y-91741144D01*
X148747730Y-91664151D01*
X148900871Y-91552888D01*
X149027533Y-91412216D01*
X149122179Y-91248284D01*
X149141117Y-91190000D01*
X151129540Y-91190000D01*
X151149326Y-91378256D01*
X151149327Y-91378259D01*
X151207818Y-91558277D01*
X151207821Y-91558284D01*
X151302467Y-91722216D01*
X151378907Y-91807111D01*
X151429129Y-91862888D01*
X151582265Y-91974148D01*
X151582270Y-91974151D01*
X151755192Y-92051142D01*
X151755197Y-92051144D01*
X151940354Y-92090500D01*
X151940355Y-92090500D01*
X152129644Y-92090500D01*
X152129646Y-92090500D01*
X152314803Y-92051144D01*
X152487730Y-91974151D01*
X152640871Y-91862888D01*
X152767533Y-91722216D01*
X152862179Y-91558284D01*
X152920674Y-91378256D01*
X152940460Y-91190000D01*
X152920674Y-91001744D01*
X152862179Y-90821716D01*
X152767533Y-90657784D01*
X152640871Y-90517112D01*
X152640870Y-90517111D01*
X152487734Y-90405851D01*
X152487729Y-90405848D01*
X152314807Y-90328857D01*
X152314802Y-90328855D01*
X152169001Y-90297865D01*
X152129646Y-90289500D01*
X151940354Y-90289500D01*
X151907897Y-90296398D01*
X151755197Y-90328855D01*
X151755192Y-90328857D01*
X151582270Y-90405848D01*
X151582265Y-90405851D01*
X151429129Y-90517111D01*
X151302466Y-90657785D01*
X151207821Y-90821715D01*
X151207818Y-90821722D01*
X151149327Y-91001740D01*
X151149326Y-91001744D01*
X151129540Y-91190000D01*
X149141117Y-91190000D01*
X149180674Y-91068256D01*
X149200460Y-90880000D01*
X149180674Y-90691744D01*
X149122179Y-90511716D01*
X149027533Y-90347784D01*
X148900871Y-90207112D01*
X148900870Y-90207111D01*
X148747734Y-90095851D01*
X148747729Y-90095848D01*
X148574807Y-90018857D01*
X148574802Y-90018855D01*
X148429001Y-89987865D01*
X148389646Y-89979500D01*
X148200354Y-89979500D01*
X148167897Y-89986398D01*
X148015197Y-90018855D01*
X148015192Y-90018857D01*
X147842270Y-90095848D01*
X147842265Y-90095851D01*
X147689129Y-90207111D01*
X147562466Y-90347785D01*
X147467821Y-90511715D01*
X147467818Y-90511722D01*
X147409327Y-90691740D01*
X147409326Y-90691744D01*
X147389540Y-90880000D01*
X141784695Y-90880000D01*
X141780674Y-90841744D01*
X141722179Y-90661716D01*
X141627533Y-90497784D01*
X141500871Y-90357112D01*
X141500870Y-90357111D01*
X141347734Y-90245851D01*
X141347729Y-90245848D01*
X141174807Y-90168857D01*
X141174802Y-90168855D01*
X141029001Y-90137865D01*
X140989646Y-90129500D01*
X140800354Y-90129500D01*
X140767897Y-90136398D01*
X140615197Y-90168855D01*
X140615192Y-90168857D01*
X140442270Y-90245848D01*
X140442265Y-90245851D01*
X140289129Y-90357111D01*
X140162466Y-90497785D01*
X140067821Y-90661715D01*
X140067818Y-90661722D01*
X140009327Y-90841740D01*
X140009326Y-90841744D01*
X139989540Y-91030000D01*
X137925320Y-91030000D01*
X137922447Y-88970000D01*
X140849540Y-88970000D01*
X140869326Y-89158256D01*
X140869327Y-89158259D01*
X140927818Y-89338277D01*
X140927821Y-89338284D01*
X141022467Y-89502216D01*
X141128123Y-89619558D01*
X141149129Y-89642888D01*
X141302265Y-89754148D01*
X141302270Y-89754151D01*
X141475192Y-89831142D01*
X141475197Y-89831144D01*
X141660354Y-89870500D01*
X141660355Y-89870500D01*
X141849644Y-89870500D01*
X141849646Y-89870500D01*
X142034803Y-89831144D01*
X142207730Y-89754151D01*
X142360871Y-89642888D01*
X142487533Y-89502216D01*
X142582179Y-89338284D01*
X142640674Y-89158256D01*
X142660460Y-88970000D01*
X142640674Y-88781744D01*
X142582179Y-88601716D01*
X142487533Y-88437784D01*
X142360871Y-88297112D01*
X142360870Y-88297111D01*
X142207734Y-88185851D01*
X142207729Y-88185848D01*
X142034807Y-88108857D01*
X142034802Y-88108855D01*
X141889001Y-88077865D01*
X141849646Y-88069500D01*
X141660354Y-88069500D01*
X141627897Y-88076398D01*
X141475197Y-88108855D01*
X141475192Y-88108857D01*
X141302270Y-88185848D01*
X141302265Y-88185851D01*
X141149129Y-88297111D01*
X141022466Y-88437785D01*
X140927821Y-88601715D01*
X140927818Y-88601722D01*
X140869327Y-88781740D01*
X140869326Y-88781744D01*
X140849540Y-88970000D01*
X137922447Y-88970000D01*
X137915794Y-84200000D01*
X150729540Y-84200000D01*
X150749326Y-84388256D01*
X150749327Y-84388259D01*
X150803540Y-84555111D01*
X150807821Y-84568284D01*
X150822997Y-84594570D01*
X150839470Y-84662469D01*
X150833540Y-84694888D01*
X150779326Y-84861744D01*
X150759540Y-85050000D01*
X150779326Y-85238256D01*
X150779327Y-85238259D01*
X150837818Y-85418277D01*
X150837821Y-85418284D01*
X150932467Y-85582216D01*
X151059129Y-85722888D01*
X151212265Y-85834148D01*
X151212270Y-85834151D01*
X151385192Y-85911142D01*
X151385197Y-85911144D01*
X151570354Y-85950500D01*
X151570355Y-85950500D01*
X151759644Y-85950500D01*
X151759646Y-85950500D01*
X151944803Y-85911144D01*
X152117730Y-85834151D01*
X152270871Y-85722888D01*
X152397533Y-85582216D01*
X152492179Y-85418284D01*
X152550674Y-85238256D01*
X152570460Y-85050000D01*
X152550674Y-84861744D01*
X152492179Y-84681716D01*
X152477000Y-84655426D01*
X152460529Y-84587531D01*
X152466456Y-84555119D01*
X152520674Y-84388256D01*
X152540460Y-84200000D01*
X152520674Y-84011744D01*
X152462179Y-83831716D01*
X152367533Y-83667784D01*
X152240871Y-83527112D01*
X152240870Y-83527111D01*
X152087734Y-83415851D01*
X152087729Y-83415848D01*
X151914807Y-83338857D01*
X151914802Y-83338855D01*
X151769001Y-83307865D01*
X151729646Y-83299500D01*
X151540354Y-83299500D01*
X151507897Y-83306398D01*
X151355197Y-83338855D01*
X151355192Y-83338857D01*
X151182270Y-83415848D01*
X151182265Y-83415851D01*
X151029129Y-83527111D01*
X150902466Y-83667785D01*
X150807821Y-83831715D01*
X150807818Y-83831722D01*
X150749327Y-84011740D01*
X150749326Y-84011744D01*
X150729540Y-84200000D01*
X137915794Y-84200000D01*
X137903158Y-75140000D01*
X150449540Y-75140000D01*
X150469326Y-75328256D01*
X150469327Y-75328259D01*
X150527818Y-75508277D01*
X150527821Y-75508284D01*
X150547155Y-75541771D01*
X150563628Y-75609671D01*
X150557699Y-75642089D01*
X150499327Y-75821740D01*
X150499326Y-75821744D01*
X150479540Y-76010000D01*
X150499326Y-76198256D01*
X150499327Y-76198259D01*
X150557818Y-76378277D01*
X150557821Y-76378284D01*
X150652467Y-76542216D01*
X150779129Y-76682888D01*
X150932265Y-76794148D01*
X150932270Y-76794151D01*
X151105192Y-76871142D01*
X151105197Y-76871144D01*
X151290354Y-76910500D01*
X151290355Y-76910500D01*
X151479644Y-76910500D01*
X151479646Y-76910500D01*
X151664803Y-76871144D01*
X151837730Y-76794151D01*
X151990871Y-76682888D01*
X152117533Y-76542216D01*
X152212179Y-76378284D01*
X152270674Y-76198256D01*
X152290460Y-76010000D01*
X152270674Y-75821744D01*
X152212179Y-75641716D01*
X152192843Y-75608225D01*
X152176371Y-75540329D01*
X152182298Y-75507914D01*
X152240674Y-75328256D01*
X152260460Y-75140000D01*
X152240674Y-74951744D01*
X152236858Y-74940000D01*
X154079540Y-74940000D01*
X154099326Y-75128256D01*
X154099327Y-75128259D01*
X154157818Y-75308277D01*
X154157821Y-75308284D01*
X154223278Y-75421659D01*
X154239751Y-75489559D01*
X154223279Y-75545658D01*
X154167820Y-75641716D01*
X154109327Y-75821740D01*
X154109326Y-75821744D01*
X154089540Y-76010000D01*
X154109326Y-76198256D01*
X154109327Y-76198259D01*
X154167818Y-76378277D01*
X154167821Y-76378284D01*
X154262467Y-76542216D01*
X154389129Y-76682888D01*
X154542265Y-76794148D01*
X154542270Y-76794151D01*
X154715192Y-76871142D01*
X154715197Y-76871144D01*
X154900354Y-76910500D01*
X154900355Y-76910500D01*
X155089644Y-76910500D01*
X155089646Y-76910500D01*
X155274803Y-76871144D01*
X155447730Y-76794151D01*
X155600871Y-76682888D01*
X155727533Y-76542216D01*
X155822179Y-76378284D01*
X155880674Y-76198256D01*
X155900460Y-76010000D01*
X155880674Y-75821744D01*
X155822179Y-75641716D01*
X155756719Y-75528336D01*
X155740247Y-75460439D01*
X155756717Y-75404344D01*
X155812179Y-75308284D01*
X155870674Y-75128256D01*
X155890460Y-74940000D01*
X155870674Y-74751744D01*
X155812179Y-74571716D01*
X155717533Y-74407784D01*
X155590871Y-74267112D01*
X155590870Y-74267111D01*
X155437734Y-74155851D01*
X155437729Y-74155848D01*
X155264807Y-74078857D01*
X155264802Y-74078855D01*
X155119001Y-74047865D01*
X155079646Y-74039500D01*
X154890354Y-74039500D01*
X154857897Y-74046398D01*
X154705197Y-74078855D01*
X154705192Y-74078857D01*
X154532270Y-74155848D01*
X154532265Y-74155851D01*
X154379129Y-74267111D01*
X154252466Y-74407785D01*
X154157821Y-74571715D01*
X154157818Y-74571722D01*
X154099327Y-74751740D01*
X154099326Y-74751744D01*
X154079540Y-74940000D01*
X152236858Y-74940000D01*
X152182179Y-74771716D01*
X152087533Y-74607784D01*
X151960871Y-74467112D01*
X151960870Y-74467111D01*
X151807734Y-74355851D01*
X151807729Y-74355848D01*
X151634807Y-74278857D01*
X151634802Y-74278855D01*
X151489001Y-74247865D01*
X151449646Y-74239500D01*
X151260354Y-74239500D01*
X151227897Y-74246398D01*
X151075197Y-74278855D01*
X151075192Y-74278857D01*
X150902270Y-74355848D01*
X150902265Y-74355851D01*
X150749129Y-74467111D01*
X150622466Y-74607785D01*
X150527821Y-74771715D01*
X150527818Y-74771722D01*
X150473142Y-74940000D01*
X150469326Y-74951744D01*
X150449540Y-75140000D01*
X137903158Y-75140000D01*
X137893967Y-68550000D01*
X138449540Y-68550000D01*
X138469326Y-68738256D01*
X138469327Y-68738259D01*
X138527818Y-68918277D01*
X138527821Y-68918284D01*
X138622467Y-69082216D01*
X138674660Y-69140182D01*
X138749129Y-69222888D01*
X138902265Y-69334148D01*
X138902270Y-69334151D01*
X139075192Y-69411142D01*
X139075197Y-69411144D01*
X139260354Y-69450500D01*
X139260355Y-69450500D01*
X139449644Y-69450500D01*
X139449646Y-69450500D01*
X139634803Y-69411144D01*
X139784564Y-69344464D01*
X139853814Y-69335180D01*
X139885434Y-69344464D01*
X140035197Y-69411144D01*
X140220354Y-69450500D01*
X140220355Y-69450500D01*
X140409644Y-69450500D01*
X140409646Y-69450500D01*
X140594803Y-69411144D01*
X140678586Y-69373841D01*
X140773667Y-69331508D01*
X140774768Y-69333981D01*
X140830984Y-69320292D01*
X140897031Y-69343087D01*
X140898080Y-69343841D01*
X140912270Y-69354151D01*
X141085192Y-69431142D01*
X141085197Y-69431144D01*
X141270354Y-69470500D01*
X141270355Y-69470500D01*
X141459644Y-69470500D01*
X141459646Y-69470500D01*
X141644803Y-69431144D01*
X141794564Y-69364464D01*
X141863814Y-69355180D01*
X141895434Y-69364464D01*
X142045197Y-69431144D01*
X142230354Y-69470500D01*
X142230355Y-69470500D01*
X142419644Y-69470500D01*
X142419646Y-69470500D01*
X142604803Y-69431144D01*
X142777730Y-69354151D01*
X142930871Y-69242888D01*
X143023349Y-69140180D01*
X143082833Y-69103533D01*
X143152690Y-69104863D01*
X143207646Y-69140180D01*
X143309129Y-69252888D01*
X143309132Y-69252890D01*
X143462265Y-69364148D01*
X143462270Y-69364151D01*
X143635192Y-69441142D01*
X143635197Y-69441144D01*
X143820354Y-69480500D01*
X143820355Y-69480500D01*
X144009644Y-69480500D01*
X144009646Y-69480500D01*
X144194803Y-69441144D01*
X144344564Y-69374464D01*
X144413814Y-69365180D01*
X144445434Y-69374464D01*
X144595197Y-69441144D01*
X144780354Y-69480500D01*
X144780355Y-69480500D01*
X144969644Y-69480500D01*
X144969646Y-69480500D01*
X145154803Y-69441144D01*
X145223066Y-69410750D01*
X145333667Y-69361508D01*
X145334768Y-69363981D01*
X145390984Y-69350292D01*
X145457031Y-69373087D01*
X145458080Y-69373841D01*
X145472270Y-69384151D01*
X145645192Y-69461142D01*
X145645197Y-69461144D01*
X145830354Y-69500500D01*
X145830355Y-69500500D01*
X146019644Y-69500500D01*
X146019646Y-69500500D01*
X146204803Y-69461144D01*
X146354564Y-69394464D01*
X146423814Y-69385180D01*
X146455434Y-69394464D01*
X146605197Y-69461144D01*
X146790354Y-69500500D01*
X146790355Y-69500500D01*
X146979644Y-69500500D01*
X146979646Y-69500500D01*
X147164803Y-69461144D01*
X147337730Y-69384151D01*
X147490871Y-69272888D01*
X147617533Y-69132216D01*
X147712179Y-68968284D01*
X147770674Y-68788256D01*
X147790460Y-68600000D01*
X147770674Y-68411744D01*
X147712179Y-68231716D01*
X147683474Y-68181998D01*
X147667002Y-68114101D01*
X147683474Y-68058001D01*
X147712179Y-68008284D01*
X147770674Y-67828256D01*
X147790460Y-67640000D01*
X147770674Y-67451744D01*
X147712179Y-67271716D01*
X147651720Y-67166999D01*
X147635248Y-67099100D01*
X147637920Y-67090000D01*
X153659540Y-67090000D01*
X153679326Y-67278256D01*
X153679327Y-67278259D01*
X153737818Y-67458277D01*
X153737821Y-67458284D01*
X153832467Y-67622216D01*
X153959129Y-67762888D01*
X154112265Y-67874148D01*
X154112270Y-67874151D01*
X154285192Y-67951142D01*
X154285197Y-67951144D01*
X154470354Y-67990500D01*
X154470355Y-67990500D01*
X154659644Y-67990500D01*
X154659646Y-67990500D01*
X154844803Y-67951144D01*
X155017730Y-67874151D01*
X155170871Y-67762888D01*
X155297533Y-67622216D01*
X155392179Y-67458284D01*
X155450674Y-67278256D01*
X155470460Y-67090000D01*
X155450674Y-66901744D01*
X155392179Y-66721716D01*
X155297533Y-66557784D01*
X155170871Y-66417112D01*
X155170870Y-66417111D01*
X155017734Y-66305851D01*
X155017729Y-66305848D01*
X154844807Y-66228857D01*
X154844802Y-66228855D01*
X154699001Y-66197865D01*
X154659646Y-66189500D01*
X154470354Y-66189500D01*
X154437897Y-66196398D01*
X154285197Y-66228855D01*
X154285192Y-66228857D01*
X154112270Y-66305848D01*
X154112265Y-66305851D01*
X153959129Y-66417111D01*
X153832466Y-66557785D01*
X153737821Y-66721715D01*
X153737818Y-66721722D01*
X153683700Y-66888281D01*
X153679326Y-66901744D01*
X153659540Y-67090000D01*
X147637920Y-67090000D01*
X147651721Y-67043000D01*
X147680588Y-66993001D01*
X147712179Y-66938284D01*
X147770674Y-66758256D01*
X147790460Y-66570000D01*
X147770674Y-66381744D01*
X147720998Y-66228857D01*
X147712180Y-66201718D01*
X147705126Y-66189500D01*
X147683474Y-66151998D01*
X147667002Y-66084101D01*
X147683474Y-66028001D01*
X147712179Y-65978284D01*
X147770674Y-65798256D01*
X147790460Y-65610000D01*
X147770674Y-65421744D01*
X147712179Y-65241716D01*
X147645946Y-65126997D01*
X147629474Y-65059100D01*
X147645946Y-65003002D01*
X147699641Y-64910000D01*
X150649540Y-64910000D01*
X150669326Y-65098256D01*
X150669327Y-65098259D01*
X150727818Y-65278277D01*
X150727821Y-65278284D01*
X150822466Y-65442215D01*
X150833743Y-65454740D01*
X150863971Y-65517733D01*
X150855344Y-65587068D01*
X150848985Y-65599699D01*
X150847821Y-65601715D01*
X150847821Y-65601716D01*
X150789326Y-65781744D01*
X150769540Y-65970000D01*
X150789326Y-66158256D01*
X150789327Y-66158259D01*
X150847818Y-66338277D01*
X150847821Y-66338284D01*
X150942467Y-66502216D01*
X151069129Y-66642888D01*
X151222265Y-66754148D01*
X151222270Y-66754151D01*
X151395192Y-66831142D01*
X151395197Y-66831144D01*
X151580354Y-66870500D01*
X151580355Y-66870500D01*
X151769644Y-66870500D01*
X151769646Y-66870500D01*
X151954803Y-66831144D01*
X152127730Y-66754151D01*
X152280871Y-66642888D01*
X152407533Y-66502216D01*
X152502179Y-66338284D01*
X152560674Y-66158256D01*
X152580460Y-65970000D01*
X152560674Y-65781744D01*
X152502179Y-65601716D01*
X152407533Y-65437784D01*
X152396257Y-65425261D01*
X152366027Y-65362270D01*
X152374652Y-65292935D01*
X152381014Y-65280301D01*
X152382179Y-65278284D01*
X152440674Y-65098256D01*
X152460460Y-64910000D01*
X152440674Y-64721744D01*
X152382179Y-64541716D01*
X152287533Y-64377784D01*
X152160871Y-64237112D01*
X152160870Y-64237111D01*
X152007734Y-64125851D01*
X152007729Y-64125848D01*
X151834807Y-64048857D01*
X151834802Y-64048855D01*
X151689001Y-64017865D01*
X151649646Y-64009500D01*
X151460354Y-64009500D01*
X151427897Y-64016398D01*
X151275197Y-64048855D01*
X151275192Y-64048857D01*
X151102270Y-64125848D01*
X151102265Y-64125851D01*
X150949129Y-64237111D01*
X150822466Y-64377785D01*
X150727821Y-64541715D01*
X150727818Y-64541722D01*
X150669327Y-64721740D01*
X150669326Y-64721744D01*
X150649540Y-64910000D01*
X147699641Y-64910000D01*
X147712179Y-64888284D01*
X147770674Y-64708256D01*
X147790460Y-64520000D01*
X147770674Y-64331744D01*
X147712179Y-64151716D01*
X147683474Y-64101998D01*
X147667002Y-64034101D01*
X147683474Y-63978001D01*
X147712179Y-63928284D01*
X147770674Y-63748256D01*
X147790460Y-63560000D01*
X147770674Y-63371744D01*
X147712179Y-63191716D01*
X147617533Y-63027784D01*
X147490871Y-62887112D01*
X147490870Y-62887111D01*
X147337734Y-62775851D01*
X147337729Y-62775848D01*
X147164807Y-62698857D01*
X147164802Y-62698855D01*
X147019001Y-62667865D01*
X146979646Y-62659500D01*
X146790354Y-62659500D01*
X146757897Y-62666398D01*
X146605197Y-62698855D01*
X146605192Y-62698857D01*
X146455436Y-62765534D01*
X146386186Y-62774819D01*
X146354564Y-62765534D01*
X146204807Y-62698857D01*
X146204802Y-62698855D01*
X146059001Y-62667865D01*
X146019646Y-62659500D01*
X145830354Y-62659500D01*
X145797897Y-62666398D01*
X145645197Y-62698855D01*
X145645192Y-62698857D01*
X145466334Y-62778492D01*
X145465242Y-62776039D01*
X145408881Y-62789700D01*
X145342859Y-62766834D01*
X145341923Y-62766161D01*
X145327727Y-62755847D01*
X145154807Y-62678857D01*
X145154802Y-62678855D01*
X145009001Y-62647865D01*
X144969646Y-62639500D01*
X144780354Y-62639500D01*
X144747897Y-62646398D01*
X144595197Y-62678855D01*
X144595192Y-62678857D01*
X144445436Y-62745534D01*
X144376186Y-62754819D01*
X144344564Y-62745534D01*
X144194807Y-62678857D01*
X144194802Y-62678855D01*
X144049001Y-62647865D01*
X144009646Y-62639500D01*
X143820354Y-62639500D01*
X143787897Y-62646398D01*
X143635197Y-62678855D01*
X143635192Y-62678857D01*
X143462270Y-62755848D01*
X143462265Y-62755851D01*
X143309132Y-62867109D01*
X143216652Y-62969818D01*
X143157165Y-63006466D01*
X143087308Y-63005135D01*
X143032352Y-62969818D01*
X142930871Y-62857112D01*
X142930867Y-62857109D01*
X142777734Y-62745851D01*
X142777729Y-62745848D01*
X142604807Y-62668857D01*
X142604802Y-62668855D01*
X142459001Y-62637865D01*
X142419646Y-62629500D01*
X142230354Y-62629500D01*
X142197897Y-62636398D01*
X142045197Y-62668855D01*
X142045192Y-62668857D01*
X141895436Y-62735534D01*
X141826186Y-62744819D01*
X141794564Y-62735534D01*
X141644807Y-62668857D01*
X141644802Y-62668855D01*
X141499001Y-62637865D01*
X141459646Y-62629500D01*
X141270354Y-62629500D01*
X141237897Y-62636398D01*
X141085197Y-62668855D01*
X141085192Y-62668857D01*
X140934029Y-62736161D01*
X140912978Y-62745534D01*
X140906334Y-62748492D01*
X140905242Y-62746039D01*
X140848881Y-62759700D01*
X140782859Y-62736834D01*
X140781923Y-62736161D01*
X140767727Y-62725847D01*
X140594807Y-62648857D01*
X140594802Y-62648855D01*
X140449001Y-62617865D01*
X140409646Y-62609500D01*
X140220354Y-62609500D01*
X140187897Y-62616398D01*
X140035197Y-62648855D01*
X140035192Y-62648857D01*
X139885436Y-62715534D01*
X139816186Y-62724819D01*
X139784564Y-62715534D01*
X139634807Y-62648857D01*
X139634802Y-62648855D01*
X139489001Y-62617865D01*
X139449646Y-62609500D01*
X139260354Y-62609500D01*
X139227897Y-62616398D01*
X139075197Y-62648855D01*
X139075192Y-62648857D01*
X138902270Y-62725848D01*
X138902265Y-62725851D01*
X138749129Y-62837111D01*
X138622466Y-62977785D01*
X138527821Y-63141715D01*
X138527818Y-63141722D01*
X138491289Y-63254148D01*
X138469326Y-63321744D01*
X138449540Y-63510000D01*
X138469326Y-63698256D01*
X138469327Y-63698259D01*
X138527818Y-63878277D01*
X138527820Y-63878281D01*
X138527821Y-63878284D01*
X138556274Y-63927567D01*
X138556525Y-63928001D01*
X138572996Y-63995902D01*
X138556525Y-64051999D01*
X138527820Y-64101718D01*
X138527818Y-64101722D01*
X138469327Y-64281740D01*
X138469326Y-64281744D01*
X138449540Y-64470000D01*
X138469326Y-64658256D01*
X138469327Y-64658259D01*
X138527818Y-64838277D01*
X138527821Y-64838284D01*
X138594052Y-64953000D01*
X138610525Y-65020901D01*
X138594052Y-65077000D01*
X138527821Y-65191715D01*
X138527818Y-65191722D01*
X138472404Y-65362270D01*
X138469326Y-65371744D01*
X138449540Y-65560000D01*
X138469326Y-65748256D01*
X138469327Y-65748259D01*
X138527818Y-65928277D01*
X138527820Y-65928281D01*
X138527821Y-65928284D01*
X138551906Y-65970000D01*
X138556525Y-65978001D01*
X138572996Y-66045902D01*
X138556525Y-66101999D01*
X138527820Y-66151718D01*
X138527818Y-66151722D01*
X138477739Y-66305851D01*
X138469326Y-66331744D01*
X138449540Y-66520000D01*
X138469326Y-66708256D01*
X138469327Y-66708259D01*
X138527818Y-66888277D01*
X138527820Y-66888281D01*
X138527821Y-66888284D01*
X138571971Y-66964754D01*
X138588279Y-66993001D01*
X138604751Y-67060901D01*
X138588279Y-67116999D01*
X138527820Y-67221718D01*
X138527818Y-67221722D01*
X138469327Y-67401740D01*
X138469326Y-67401744D01*
X138449540Y-67590000D01*
X138469326Y-67778256D01*
X138469327Y-67778259D01*
X138527818Y-67958277D01*
X138527820Y-67958281D01*
X138527821Y-67958284D01*
X138546421Y-67990500D01*
X138556525Y-68008001D01*
X138572996Y-68075902D01*
X138556525Y-68131999D01*
X138527820Y-68181718D01*
X138527818Y-68181722D01*
X138469327Y-68361740D01*
X138469326Y-68361744D01*
X138449540Y-68550000D01*
X137893967Y-68550000D01*
X137885350Y-62371409D01*
X137904941Y-62304345D01*
X137921598Y-62283629D01*
X138048672Y-62156378D01*
X138109971Y-62122852D01*
X138136413Y-62120000D01*
X155571209Y-62120000D01*
X155638248Y-62139685D01*
G37*
G04 #@! TD.AperFunction*
M02*
