G04 #@! TF.GenerationSoftware,KiCad,Pcbnew,7.0.10*
G04 #@! TF.CreationDate,2024-08-16T14:30:36-05:00*
G04 #@! TF.ProjectId,DiffPCB,44696666-5043-4422-9e6b-696361645f70,rev?*
G04 #@! TF.SameCoordinates,Original*
G04 #@! TF.FileFunction,Legend,Top*
G04 #@! TF.FilePolarity,Positive*
%FSLAX46Y46*%
G04 Gerber Fmt 4.6, Leading zero omitted, Abs format (unit mm)*
G04 Created by KiCad (PCBNEW 7.0.10) date 2024-08-16 14:30:36*
%MOMM*%
%LPD*%
G01*
G04 APERTURE LIST*
G04 Aperture macros list*
%AMRoundRect*
0 Rectangle with rounded corners*
0 $1 Rounding radius*
0 $2 $3 $4 $5 $6 $7 $8 $9 X,Y pos of 4 corners*
0 Add a 4 corners polygon primitive as box body*
4,1,4,$2,$3,$4,$5,$6,$7,$8,$9,$2,$3,0*
0 Add four circle primitives for the rounded corners*
1,1,$1+$1,$2,$3*
1,1,$1+$1,$4,$5*
1,1,$1+$1,$6,$7*
1,1,$1+$1,$8,$9*
0 Add four rect primitives between the rounded corners*
20,1,$1+$1,$2,$3,$4,$5,0*
20,1,$1+$1,$4,$5,$6,$7,0*
20,1,$1+$1,$6,$7,$8,$9,0*
20,1,$1+$1,$8,$9,$2,$3,0*%
G04 Aperture macros list end*
%ADD10C,0.040000*%
%ADD11C,0.200000*%
%ADD12C,0.120000*%
%ADD13C,0.152400*%
%ADD14R,0.549999X0.800001*%
%ADD15RoundRect,0.225000X0.225000X0.250000X-0.225000X0.250000X-0.225000X-0.250000X0.225000X-0.250000X0*%
%ADD16RoundRect,0.225000X-0.225000X-0.250000X0.225000X-0.250000X0.225000X0.250000X-0.225000X0.250000X0*%
%ADD17RoundRect,0.150000X-0.150000X-0.700000X0.150000X-0.700000X0.150000X0.700000X-0.150000X0.700000X0*%
%ADD18RoundRect,0.250000X-0.250000X-1.100000X0.250000X-1.100000X0.250000X1.100000X-0.250000X1.100000X0*%
%ADD19RoundRect,0.225000X0.250000X-0.225000X0.250000X0.225000X-0.250000X0.225000X-0.250000X-0.225000X0*%
%ADD20RoundRect,0.200000X-0.200000X-0.275000X0.200000X-0.275000X0.200000X0.275000X-0.200000X0.275000X0*%
%ADD21RoundRect,0.250000X0.400000X0.450000X-0.400000X0.450000X-0.400000X-0.450000X0.400000X-0.450000X0*%
%ADD22RoundRect,0.225000X-0.250000X0.225000X-0.250000X-0.225000X0.250000X-0.225000X0.250000X0.225000X0*%
%ADD23R,1.016000X2.692400*%
%ADD24R,10.414000X10.464800*%
%ADD25RoundRect,0.150000X0.150000X-0.512500X0.150000X0.512500X-0.150000X0.512500X-0.150000X-0.512500X0*%
%ADD26R,0.650000X0.400000*%
%ADD27RoundRect,0.200000X-0.275000X0.200000X-0.275000X-0.200000X0.275000X-0.200000X0.275000X0.200000X0*%
%ADD28R,0.889000X1.765300*%
%ADD29R,3.149600X1.765300*%
G04 APERTURE END LIST*
D10*
X153875768Y-64804048D02*
X153471006Y-64804048D01*
X153471006Y-64804048D02*
X153423387Y-64827858D01*
X153423387Y-64827858D02*
X153399578Y-64851667D01*
X153399578Y-64851667D02*
X153375768Y-64899286D01*
X153375768Y-64899286D02*
X153375768Y-64994524D01*
X153375768Y-64994524D02*
X153399578Y-65042143D01*
X153399578Y-65042143D02*
X153423387Y-65065953D01*
X153423387Y-65065953D02*
X153471006Y-65089762D01*
X153471006Y-65089762D02*
X153875768Y-65089762D01*
X153709101Y-65542144D02*
X153375768Y-65542144D01*
X153899578Y-65423096D02*
X153542435Y-65304049D01*
X153542435Y-65304049D02*
X153542435Y-65613572D01*
X150526666Y-71701610D02*
X150502857Y-71725420D01*
X150502857Y-71725420D02*
X150431428Y-71749229D01*
X150431428Y-71749229D02*
X150383809Y-71749229D01*
X150383809Y-71749229D02*
X150312381Y-71725420D01*
X150312381Y-71725420D02*
X150264762Y-71677800D01*
X150264762Y-71677800D02*
X150240952Y-71630181D01*
X150240952Y-71630181D02*
X150217143Y-71534943D01*
X150217143Y-71534943D02*
X150217143Y-71463515D01*
X150217143Y-71463515D02*
X150240952Y-71368277D01*
X150240952Y-71368277D02*
X150264762Y-71320658D01*
X150264762Y-71320658D02*
X150312381Y-71273039D01*
X150312381Y-71273039D02*
X150383809Y-71249229D01*
X150383809Y-71249229D02*
X150431428Y-71249229D01*
X150431428Y-71249229D02*
X150502857Y-71273039D01*
X150502857Y-71273039D02*
X150526666Y-71296848D01*
X151002857Y-71749229D02*
X150717143Y-71749229D01*
X150860000Y-71749229D02*
X150860000Y-71249229D01*
X150860000Y-71249229D02*
X150812381Y-71320658D01*
X150812381Y-71320658D02*
X150764762Y-71368277D01*
X150764762Y-71368277D02*
X150717143Y-71392086D01*
X150406666Y-87611610D02*
X150382857Y-87635420D01*
X150382857Y-87635420D02*
X150311428Y-87659229D01*
X150311428Y-87659229D02*
X150263809Y-87659229D01*
X150263809Y-87659229D02*
X150192381Y-87635420D01*
X150192381Y-87635420D02*
X150144762Y-87587800D01*
X150144762Y-87587800D02*
X150120952Y-87540181D01*
X150120952Y-87540181D02*
X150097143Y-87444943D01*
X150097143Y-87444943D02*
X150097143Y-87373515D01*
X150097143Y-87373515D02*
X150120952Y-87278277D01*
X150120952Y-87278277D02*
X150144762Y-87230658D01*
X150144762Y-87230658D02*
X150192381Y-87183039D01*
X150192381Y-87183039D02*
X150263809Y-87159229D01*
X150263809Y-87159229D02*
X150311428Y-87159229D01*
X150311428Y-87159229D02*
X150382857Y-87183039D01*
X150382857Y-87183039D02*
X150406666Y-87206848D01*
X150859047Y-87159229D02*
X150620952Y-87159229D01*
X150620952Y-87159229D02*
X150597143Y-87397324D01*
X150597143Y-87397324D02*
X150620952Y-87373515D01*
X150620952Y-87373515D02*
X150668571Y-87349705D01*
X150668571Y-87349705D02*
X150787619Y-87349705D01*
X150787619Y-87349705D02*
X150835238Y-87373515D01*
X150835238Y-87373515D02*
X150859047Y-87397324D01*
X150859047Y-87397324D02*
X150882857Y-87444943D01*
X150882857Y-87444943D02*
X150882857Y-87563991D01*
X150882857Y-87563991D02*
X150859047Y-87611610D01*
X150859047Y-87611610D02*
X150835238Y-87635420D01*
X150835238Y-87635420D02*
X150787619Y-87659229D01*
X150787619Y-87659229D02*
X150668571Y-87659229D01*
X150668571Y-87659229D02*
X150620952Y-87635420D01*
X150620952Y-87635420D02*
X150597143Y-87611610D01*
X150921665Y-65281610D02*
X150897856Y-65305420D01*
X150897856Y-65305420D02*
X150826427Y-65329229D01*
X150826427Y-65329229D02*
X150778808Y-65329229D01*
X150778808Y-65329229D02*
X150707380Y-65305420D01*
X150707380Y-65305420D02*
X150659761Y-65257800D01*
X150659761Y-65257800D02*
X150635951Y-65210181D01*
X150635951Y-65210181D02*
X150612142Y-65114943D01*
X150612142Y-65114943D02*
X150612142Y-65043515D01*
X150612142Y-65043515D02*
X150635951Y-64948277D01*
X150635951Y-64948277D02*
X150659761Y-64900658D01*
X150659761Y-64900658D02*
X150707380Y-64853039D01*
X150707380Y-64853039D02*
X150778808Y-64829229D01*
X150778808Y-64829229D02*
X150826427Y-64829229D01*
X150826427Y-64829229D02*
X150897856Y-64853039D01*
X150897856Y-64853039D02*
X150921665Y-64876848D01*
X151207380Y-65043515D02*
X151159761Y-65019705D01*
X151159761Y-65019705D02*
X151135951Y-64995896D01*
X151135951Y-64995896D02*
X151112142Y-64948277D01*
X151112142Y-64948277D02*
X151112142Y-64924467D01*
X151112142Y-64924467D02*
X151135951Y-64876848D01*
X151135951Y-64876848D02*
X151159761Y-64853039D01*
X151159761Y-64853039D02*
X151207380Y-64829229D01*
X151207380Y-64829229D02*
X151302618Y-64829229D01*
X151302618Y-64829229D02*
X151350237Y-64853039D01*
X151350237Y-64853039D02*
X151374046Y-64876848D01*
X151374046Y-64876848D02*
X151397856Y-64924467D01*
X151397856Y-64924467D02*
X151397856Y-64948277D01*
X151397856Y-64948277D02*
X151374046Y-64995896D01*
X151374046Y-64995896D02*
X151350237Y-65019705D01*
X151350237Y-65019705D02*
X151302618Y-65043515D01*
X151302618Y-65043515D02*
X151207380Y-65043515D01*
X151207380Y-65043515D02*
X151159761Y-65067324D01*
X151159761Y-65067324D02*
X151135951Y-65091134D01*
X151135951Y-65091134D02*
X151112142Y-65138753D01*
X151112142Y-65138753D02*
X151112142Y-65233991D01*
X151112142Y-65233991D02*
X151135951Y-65281610D01*
X151135951Y-65281610D02*
X151159761Y-65305420D01*
X151159761Y-65305420D02*
X151207380Y-65329229D01*
X151207380Y-65329229D02*
X151302618Y-65329229D01*
X151302618Y-65329229D02*
X151350237Y-65305420D01*
X151350237Y-65305420D02*
X151374046Y-65281610D01*
X151374046Y-65281610D02*
X151397856Y-65233991D01*
X151397856Y-65233991D02*
X151397856Y-65138753D01*
X151397856Y-65138753D02*
X151374046Y-65091134D01*
X151374046Y-65091134D02*
X151350237Y-65067324D01*
X151350237Y-65067324D02*
X151302618Y-65043515D01*
X142966666Y-87941610D02*
X142942857Y-87965420D01*
X142942857Y-87965420D02*
X142871428Y-87989229D01*
X142871428Y-87989229D02*
X142823809Y-87989229D01*
X142823809Y-87989229D02*
X142752381Y-87965420D01*
X142752381Y-87965420D02*
X142704762Y-87917800D01*
X142704762Y-87917800D02*
X142680952Y-87870181D01*
X142680952Y-87870181D02*
X142657143Y-87774943D01*
X142657143Y-87774943D02*
X142657143Y-87703515D01*
X142657143Y-87703515D02*
X142680952Y-87608277D01*
X142680952Y-87608277D02*
X142704762Y-87560658D01*
X142704762Y-87560658D02*
X142752381Y-87513039D01*
X142752381Y-87513039D02*
X142823809Y-87489229D01*
X142823809Y-87489229D02*
X142871428Y-87489229D01*
X142871428Y-87489229D02*
X142942857Y-87513039D01*
X142942857Y-87513039D02*
X142966666Y-87536848D01*
X143157143Y-87536848D02*
X143180952Y-87513039D01*
X143180952Y-87513039D02*
X143228571Y-87489229D01*
X143228571Y-87489229D02*
X143347619Y-87489229D01*
X143347619Y-87489229D02*
X143395238Y-87513039D01*
X143395238Y-87513039D02*
X143419047Y-87536848D01*
X143419047Y-87536848D02*
X143442857Y-87584467D01*
X143442857Y-87584467D02*
X143442857Y-87632086D01*
X143442857Y-87632086D02*
X143419047Y-87703515D01*
X143419047Y-87703515D02*
X143133333Y-87989229D01*
X143133333Y-87989229D02*
X143442857Y-87989229D01*
X149318333Y-94149229D02*
X149318333Y-94506372D01*
X149318333Y-94506372D02*
X149294524Y-94577800D01*
X149294524Y-94577800D02*
X149246905Y-94625420D01*
X149246905Y-94625420D02*
X149175476Y-94649229D01*
X149175476Y-94649229D02*
X149127857Y-94649229D01*
X149818333Y-94649229D02*
X149532619Y-94649229D01*
X149675476Y-94649229D02*
X149675476Y-94149229D01*
X149675476Y-94149229D02*
X149627857Y-94220658D01*
X149627857Y-94220658D02*
X149580238Y-94268277D01*
X149580238Y-94268277D02*
X149532619Y-94292086D01*
X150786610Y-72873333D02*
X150810420Y-72897142D01*
X150810420Y-72897142D02*
X150834229Y-72968571D01*
X150834229Y-72968571D02*
X150834229Y-73016190D01*
X150834229Y-73016190D02*
X150810420Y-73087618D01*
X150810420Y-73087618D02*
X150762800Y-73135237D01*
X150762800Y-73135237D02*
X150715181Y-73159047D01*
X150715181Y-73159047D02*
X150619943Y-73182856D01*
X150619943Y-73182856D02*
X150548515Y-73182856D01*
X150548515Y-73182856D02*
X150453277Y-73159047D01*
X150453277Y-73159047D02*
X150405658Y-73135237D01*
X150405658Y-73135237D02*
X150358039Y-73087618D01*
X150358039Y-73087618D02*
X150334229Y-73016190D01*
X150334229Y-73016190D02*
X150334229Y-72968571D01*
X150334229Y-72968571D02*
X150358039Y-72897142D01*
X150358039Y-72897142D02*
X150381848Y-72873333D01*
X150334229Y-72706666D02*
X150334229Y-72373333D01*
X150334229Y-72373333D02*
X150834229Y-72587618D01*
X139536666Y-85339229D02*
X139370000Y-85101134D01*
X139250952Y-85339229D02*
X139250952Y-84839229D01*
X139250952Y-84839229D02*
X139441428Y-84839229D01*
X139441428Y-84839229D02*
X139489047Y-84863039D01*
X139489047Y-84863039D02*
X139512857Y-84886848D01*
X139512857Y-84886848D02*
X139536666Y-84934467D01*
X139536666Y-84934467D02*
X139536666Y-85005896D01*
X139536666Y-85005896D02*
X139512857Y-85053515D01*
X139512857Y-85053515D02*
X139489047Y-85077324D01*
X139489047Y-85077324D02*
X139441428Y-85101134D01*
X139441428Y-85101134D02*
X139250952Y-85101134D01*
X139703333Y-84839229D02*
X140012857Y-84839229D01*
X140012857Y-84839229D02*
X139846190Y-85029705D01*
X139846190Y-85029705D02*
X139917619Y-85029705D01*
X139917619Y-85029705D02*
X139965238Y-85053515D01*
X139965238Y-85053515D02*
X139989047Y-85077324D01*
X139989047Y-85077324D02*
X140012857Y-85124943D01*
X140012857Y-85124943D02*
X140012857Y-85243991D01*
X140012857Y-85243991D02*
X139989047Y-85291610D01*
X139989047Y-85291610D02*
X139965238Y-85315420D01*
X139965238Y-85315420D02*
X139917619Y-85339229D01*
X139917619Y-85339229D02*
X139774762Y-85339229D01*
X139774762Y-85339229D02*
X139727143Y-85315420D01*
X139727143Y-85315420D02*
X139703333Y-85291610D01*
X142556666Y-85329229D02*
X142390000Y-85091134D01*
X142270952Y-85329229D02*
X142270952Y-84829229D01*
X142270952Y-84829229D02*
X142461428Y-84829229D01*
X142461428Y-84829229D02*
X142509047Y-84853039D01*
X142509047Y-84853039D02*
X142532857Y-84876848D01*
X142532857Y-84876848D02*
X142556666Y-84924467D01*
X142556666Y-84924467D02*
X142556666Y-84995896D01*
X142556666Y-84995896D02*
X142532857Y-85043515D01*
X142532857Y-85043515D02*
X142509047Y-85067324D01*
X142509047Y-85067324D02*
X142461428Y-85091134D01*
X142461428Y-85091134D02*
X142270952Y-85091134D01*
X143032857Y-85329229D02*
X142747143Y-85329229D01*
X142890000Y-85329229D02*
X142890000Y-84829229D01*
X142890000Y-84829229D02*
X142842381Y-84900658D01*
X142842381Y-84900658D02*
X142794762Y-84948277D01*
X142794762Y-84948277D02*
X142747143Y-84972086D01*
X141915952Y-91689229D02*
X141915952Y-91189229D01*
X141915952Y-91189229D02*
X142035000Y-91189229D01*
X142035000Y-91189229D02*
X142106428Y-91213039D01*
X142106428Y-91213039D02*
X142154047Y-91260658D01*
X142154047Y-91260658D02*
X142177857Y-91308277D01*
X142177857Y-91308277D02*
X142201666Y-91403515D01*
X142201666Y-91403515D02*
X142201666Y-91474943D01*
X142201666Y-91474943D02*
X142177857Y-91570181D01*
X142177857Y-91570181D02*
X142154047Y-91617800D01*
X142154047Y-91617800D02*
X142106428Y-91665420D01*
X142106428Y-91665420D02*
X142035000Y-91689229D01*
X142035000Y-91689229D02*
X141915952Y-91689229D01*
X142392143Y-91236848D02*
X142415952Y-91213039D01*
X142415952Y-91213039D02*
X142463571Y-91189229D01*
X142463571Y-91189229D02*
X142582619Y-91189229D01*
X142582619Y-91189229D02*
X142630238Y-91213039D01*
X142630238Y-91213039D02*
X142654047Y-91236848D01*
X142654047Y-91236848D02*
X142677857Y-91284467D01*
X142677857Y-91284467D02*
X142677857Y-91332086D01*
X142677857Y-91332086D02*
X142654047Y-91403515D01*
X142654047Y-91403515D02*
X142368333Y-91689229D01*
X142368333Y-91689229D02*
X142677857Y-91689229D01*
X156056610Y-78573333D02*
X156080420Y-78597142D01*
X156080420Y-78597142D02*
X156104229Y-78668571D01*
X156104229Y-78668571D02*
X156104229Y-78716190D01*
X156104229Y-78716190D02*
X156080420Y-78787618D01*
X156080420Y-78787618D02*
X156032800Y-78835237D01*
X156032800Y-78835237D02*
X155985181Y-78859047D01*
X155985181Y-78859047D02*
X155889943Y-78882856D01*
X155889943Y-78882856D02*
X155818515Y-78882856D01*
X155818515Y-78882856D02*
X155723277Y-78859047D01*
X155723277Y-78859047D02*
X155675658Y-78835237D01*
X155675658Y-78835237D02*
X155628039Y-78787618D01*
X155628039Y-78787618D02*
X155604229Y-78716190D01*
X155604229Y-78716190D02*
X155604229Y-78668571D01*
X155604229Y-78668571D02*
X155628039Y-78597142D01*
X155628039Y-78597142D02*
X155651848Y-78573333D01*
X155604229Y-78144761D02*
X155604229Y-78239999D01*
X155604229Y-78239999D02*
X155628039Y-78287618D01*
X155628039Y-78287618D02*
X155651848Y-78311428D01*
X155651848Y-78311428D02*
X155723277Y-78359047D01*
X155723277Y-78359047D02*
X155818515Y-78382856D01*
X155818515Y-78382856D02*
X156008991Y-78382856D01*
X156008991Y-78382856D02*
X156056610Y-78359047D01*
X156056610Y-78359047D02*
X156080420Y-78335237D01*
X156080420Y-78335237D02*
X156104229Y-78287618D01*
X156104229Y-78287618D02*
X156104229Y-78192380D01*
X156104229Y-78192380D02*
X156080420Y-78144761D01*
X156080420Y-78144761D02*
X156056610Y-78120952D01*
X156056610Y-78120952D02*
X156008991Y-78097142D01*
X156008991Y-78097142D02*
X155889943Y-78097142D01*
X155889943Y-78097142D02*
X155842324Y-78120952D01*
X155842324Y-78120952D02*
X155818515Y-78144761D01*
X155818515Y-78144761D02*
X155794705Y-78192380D01*
X155794705Y-78192380D02*
X155794705Y-78287618D01*
X155794705Y-78287618D02*
X155818515Y-78335237D01*
X155818515Y-78335237D02*
X155842324Y-78359047D01*
X155842324Y-78359047D02*
X155889943Y-78382856D01*
X154916610Y-87178333D02*
X154940420Y-87202142D01*
X154940420Y-87202142D02*
X154964229Y-87273571D01*
X154964229Y-87273571D02*
X154964229Y-87321190D01*
X154964229Y-87321190D02*
X154940420Y-87392618D01*
X154940420Y-87392618D02*
X154892800Y-87440237D01*
X154892800Y-87440237D02*
X154845181Y-87464047D01*
X154845181Y-87464047D02*
X154749943Y-87487856D01*
X154749943Y-87487856D02*
X154678515Y-87487856D01*
X154678515Y-87487856D02*
X154583277Y-87464047D01*
X154583277Y-87464047D02*
X154535658Y-87440237D01*
X154535658Y-87440237D02*
X154488039Y-87392618D01*
X154488039Y-87392618D02*
X154464229Y-87321190D01*
X154464229Y-87321190D02*
X154464229Y-87273571D01*
X154464229Y-87273571D02*
X154488039Y-87202142D01*
X154488039Y-87202142D02*
X154511848Y-87178333D01*
X154630896Y-86749761D02*
X154964229Y-86749761D01*
X154440420Y-86868809D02*
X154797562Y-86987856D01*
X154797562Y-86987856D02*
X154797562Y-86678333D01*
X150058571Y-70241610D02*
X150034762Y-70265420D01*
X150034762Y-70265420D02*
X149963333Y-70289229D01*
X149963333Y-70289229D02*
X149915714Y-70289229D01*
X149915714Y-70289229D02*
X149844286Y-70265420D01*
X149844286Y-70265420D02*
X149796667Y-70217800D01*
X149796667Y-70217800D02*
X149772857Y-70170181D01*
X149772857Y-70170181D02*
X149749048Y-70074943D01*
X149749048Y-70074943D02*
X149749048Y-70003515D01*
X149749048Y-70003515D02*
X149772857Y-69908277D01*
X149772857Y-69908277D02*
X149796667Y-69860658D01*
X149796667Y-69860658D02*
X149844286Y-69813039D01*
X149844286Y-69813039D02*
X149915714Y-69789229D01*
X149915714Y-69789229D02*
X149963333Y-69789229D01*
X149963333Y-69789229D02*
X150034762Y-69813039D01*
X150034762Y-69813039D02*
X150058571Y-69836848D01*
X150534762Y-70289229D02*
X150249048Y-70289229D01*
X150391905Y-70289229D02*
X150391905Y-69789229D01*
X150391905Y-69789229D02*
X150344286Y-69860658D01*
X150344286Y-69860658D02*
X150296667Y-69908277D01*
X150296667Y-69908277D02*
X150249048Y-69932086D01*
X150963333Y-69789229D02*
X150868095Y-69789229D01*
X150868095Y-69789229D02*
X150820476Y-69813039D01*
X150820476Y-69813039D02*
X150796666Y-69836848D01*
X150796666Y-69836848D02*
X150749047Y-69908277D01*
X150749047Y-69908277D02*
X150725238Y-70003515D01*
X150725238Y-70003515D02*
X150725238Y-70193991D01*
X150725238Y-70193991D02*
X150749047Y-70241610D01*
X150749047Y-70241610D02*
X150772857Y-70265420D01*
X150772857Y-70265420D02*
X150820476Y-70289229D01*
X150820476Y-70289229D02*
X150915714Y-70289229D01*
X150915714Y-70289229D02*
X150963333Y-70265420D01*
X150963333Y-70265420D02*
X150987142Y-70241610D01*
X150987142Y-70241610D02*
X151010952Y-70193991D01*
X151010952Y-70193991D02*
X151010952Y-70074943D01*
X151010952Y-70074943D02*
X150987142Y-70027324D01*
X150987142Y-70027324D02*
X150963333Y-70003515D01*
X150963333Y-70003515D02*
X150915714Y-69979705D01*
X150915714Y-69979705D02*
X150820476Y-69979705D01*
X150820476Y-69979705D02*
X150772857Y-70003515D01*
X150772857Y-70003515D02*
X150749047Y-70027324D01*
X150749047Y-70027324D02*
X150725238Y-70074943D01*
X148891666Y-87821610D02*
X148867857Y-87845420D01*
X148867857Y-87845420D02*
X148796428Y-87869229D01*
X148796428Y-87869229D02*
X148748809Y-87869229D01*
X148748809Y-87869229D02*
X148677381Y-87845420D01*
X148677381Y-87845420D02*
X148629762Y-87797800D01*
X148629762Y-87797800D02*
X148605952Y-87750181D01*
X148605952Y-87750181D02*
X148582143Y-87654943D01*
X148582143Y-87654943D02*
X148582143Y-87583515D01*
X148582143Y-87583515D02*
X148605952Y-87488277D01*
X148605952Y-87488277D02*
X148629762Y-87440658D01*
X148629762Y-87440658D02*
X148677381Y-87393039D01*
X148677381Y-87393039D02*
X148748809Y-87369229D01*
X148748809Y-87369229D02*
X148796428Y-87369229D01*
X148796428Y-87369229D02*
X148867857Y-87393039D01*
X148867857Y-87393039D02*
X148891666Y-87416848D01*
X149058333Y-87369229D02*
X149367857Y-87369229D01*
X149367857Y-87369229D02*
X149201190Y-87559705D01*
X149201190Y-87559705D02*
X149272619Y-87559705D01*
X149272619Y-87559705D02*
X149320238Y-87583515D01*
X149320238Y-87583515D02*
X149344047Y-87607324D01*
X149344047Y-87607324D02*
X149367857Y-87654943D01*
X149367857Y-87654943D02*
X149367857Y-87773991D01*
X149367857Y-87773991D02*
X149344047Y-87821610D01*
X149344047Y-87821610D02*
X149320238Y-87845420D01*
X149320238Y-87845420D02*
X149272619Y-87869229D01*
X149272619Y-87869229D02*
X149129762Y-87869229D01*
X149129762Y-87869229D02*
X149082143Y-87845420D01*
X149082143Y-87845420D02*
X149058333Y-87821610D01*
X143440447Y-75388829D02*
X143440447Y-75793591D01*
X143440447Y-75793591D02*
X143464257Y-75841210D01*
X143464257Y-75841210D02*
X143488066Y-75865020D01*
X143488066Y-75865020D02*
X143535685Y-75888829D01*
X143535685Y-75888829D02*
X143630923Y-75888829D01*
X143630923Y-75888829D02*
X143678542Y-75865020D01*
X143678542Y-75865020D02*
X143702352Y-75841210D01*
X143702352Y-75841210D02*
X143726161Y-75793591D01*
X143726161Y-75793591D02*
X143726161Y-75388829D01*
X143916638Y-75388829D02*
X144226162Y-75388829D01*
X144226162Y-75388829D02*
X144059495Y-75579305D01*
X144059495Y-75579305D02*
X144130924Y-75579305D01*
X144130924Y-75579305D02*
X144178543Y-75603115D01*
X144178543Y-75603115D02*
X144202352Y-75626924D01*
X144202352Y-75626924D02*
X144226162Y-75674543D01*
X144226162Y-75674543D02*
X144226162Y-75793591D01*
X144226162Y-75793591D02*
X144202352Y-75841210D01*
X144202352Y-75841210D02*
X144178543Y-75865020D01*
X144178543Y-75865020D02*
X144130924Y-75888829D01*
X144130924Y-75888829D02*
X143988067Y-75888829D01*
X143988067Y-75888829D02*
X143940448Y-75865020D01*
X143940448Y-75865020D02*
X143916638Y-75841210D01*
X153334229Y-74863452D02*
X153738991Y-74863452D01*
X153738991Y-74863452D02*
X153786610Y-74839642D01*
X153786610Y-74839642D02*
X153810420Y-74815833D01*
X153810420Y-74815833D02*
X153834229Y-74768214D01*
X153834229Y-74768214D02*
X153834229Y-74672976D01*
X153834229Y-74672976D02*
X153810420Y-74625357D01*
X153810420Y-74625357D02*
X153786610Y-74601547D01*
X153786610Y-74601547D02*
X153738991Y-74577738D01*
X153738991Y-74577738D02*
X153334229Y-74577738D01*
X153334229Y-74101547D02*
X153334229Y-74339642D01*
X153334229Y-74339642D02*
X153572324Y-74363451D01*
X153572324Y-74363451D02*
X153548515Y-74339642D01*
X153548515Y-74339642D02*
X153524705Y-74292023D01*
X153524705Y-74292023D02*
X153524705Y-74172975D01*
X153524705Y-74172975D02*
X153548515Y-74125356D01*
X153548515Y-74125356D02*
X153572324Y-74101547D01*
X153572324Y-74101547D02*
X153619943Y-74077737D01*
X153619943Y-74077737D02*
X153738991Y-74077737D01*
X153738991Y-74077737D02*
X153786610Y-74101547D01*
X153786610Y-74101547D02*
X153810420Y-74125356D01*
X153810420Y-74125356D02*
X153834229Y-74172975D01*
X153834229Y-74172975D02*
X153834229Y-74292023D01*
X153834229Y-74292023D02*
X153810420Y-74339642D01*
X153810420Y-74339642D02*
X153786610Y-74363451D01*
X156156610Y-68623333D02*
X156180420Y-68647142D01*
X156180420Y-68647142D02*
X156204229Y-68718571D01*
X156204229Y-68718571D02*
X156204229Y-68766190D01*
X156204229Y-68766190D02*
X156180420Y-68837618D01*
X156180420Y-68837618D02*
X156132800Y-68885237D01*
X156132800Y-68885237D02*
X156085181Y-68909047D01*
X156085181Y-68909047D02*
X155989943Y-68932856D01*
X155989943Y-68932856D02*
X155918515Y-68932856D01*
X155918515Y-68932856D02*
X155823277Y-68909047D01*
X155823277Y-68909047D02*
X155775658Y-68885237D01*
X155775658Y-68885237D02*
X155728039Y-68837618D01*
X155728039Y-68837618D02*
X155704229Y-68766190D01*
X155704229Y-68766190D02*
X155704229Y-68718571D01*
X155704229Y-68718571D02*
X155728039Y-68647142D01*
X155728039Y-68647142D02*
X155751848Y-68623333D01*
X156204229Y-68385237D02*
X156204229Y-68289999D01*
X156204229Y-68289999D02*
X156180420Y-68242380D01*
X156180420Y-68242380D02*
X156156610Y-68218571D01*
X156156610Y-68218571D02*
X156085181Y-68170952D01*
X156085181Y-68170952D02*
X155989943Y-68147142D01*
X155989943Y-68147142D02*
X155799467Y-68147142D01*
X155799467Y-68147142D02*
X155751848Y-68170952D01*
X155751848Y-68170952D02*
X155728039Y-68194761D01*
X155728039Y-68194761D02*
X155704229Y-68242380D01*
X155704229Y-68242380D02*
X155704229Y-68337618D01*
X155704229Y-68337618D02*
X155728039Y-68385237D01*
X155728039Y-68385237D02*
X155751848Y-68409047D01*
X155751848Y-68409047D02*
X155799467Y-68432856D01*
X155799467Y-68432856D02*
X155918515Y-68432856D01*
X155918515Y-68432856D02*
X155966134Y-68409047D01*
X155966134Y-68409047D02*
X155989943Y-68385237D01*
X155989943Y-68385237D02*
X156013753Y-68337618D01*
X156013753Y-68337618D02*
X156013753Y-68242380D01*
X156013753Y-68242380D02*
X155989943Y-68194761D01*
X155989943Y-68194761D02*
X155966134Y-68170952D01*
X155966134Y-68170952D02*
X155918515Y-68147142D01*
X149485952Y-89219229D02*
X149485952Y-88719229D01*
X149485952Y-88719229D02*
X149605000Y-88719229D01*
X149605000Y-88719229D02*
X149676428Y-88743039D01*
X149676428Y-88743039D02*
X149724047Y-88790658D01*
X149724047Y-88790658D02*
X149747857Y-88838277D01*
X149747857Y-88838277D02*
X149771666Y-88933515D01*
X149771666Y-88933515D02*
X149771666Y-89004943D01*
X149771666Y-89004943D02*
X149747857Y-89100181D01*
X149747857Y-89100181D02*
X149724047Y-89147800D01*
X149724047Y-89147800D02*
X149676428Y-89195420D01*
X149676428Y-89195420D02*
X149605000Y-89219229D01*
X149605000Y-89219229D02*
X149485952Y-89219229D01*
X150247857Y-89219229D02*
X149962143Y-89219229D01*
X150105000Y-89219229D02*
X150105000Y-88719229D01*
X150105000Y-88719229D02*
X150057381Y-88790658D01*
X150057381Y-88790658D02*
X150009762Y-88838277D01*
X150009762Y-88838277D02*
X149962143Y-88862086D01*
X156034229Y-71243333D02*
X155796134Y-71409999D01*
X156034229Y-71529047D02*
X155534229Y-71529047D01*
X155534229Y-71529047D02*
X155534229Y-71338571D01*
X155534229Y-71338571D02*
X155558039Y-71290952D01*
X155558039Y-71290952D02*
X155581848Y-71267142D01*
X155581848Y-71267142D02*
X155629467Y-71243333D01*
X155629467Y-71243333D02*
X155700896Y-71243333D01*
X155700896Y-71243333D02*
X155748515Y-71267142D01*
X155748515Y-71267142D02*
X155772324Y-71290952D01*
X155772324Y-71290952D02*
X155796134Y-71338571D01*
X155796134Y-71338571D02*
X155796134Y-71529047D01*
X155700896Y-70814761D02*
X156034229Y-70814761D01*
X155510420Y-70933809D02*
X155867562Y-71052856D01*
X155867562Y-71052856D02*
X155867562Y-70743333D01*
X152784047Y-81007079D02*
X152784047Y-81411841D01*
X152784047Y-81411841D02*
X152807857Y-81459460D01*
X152807857Y-81459460D02*
X152831666Y-81483270D01*
X152831666Y-81483270D02*
X152879285Y-81507079D01*
X152879285Y-81507079D02*
X152974523Y-81507079D01*
X152974523Y-81507079D02*
X153022142Y-81483270D01*
X153022142Y-81483270D02*
X153045952Y-81459460D01*
X153045952Y-81459460D02*
X153069761Y-81411841D01*
X153069761Y-81411841D02*
X153069761Y-81007079D01*
X153284048Y-81054698D02*
X153307857Y-81030889D01*
X153307857Y-81030889D02*
X153355476Y-81007079D01*
X153355476Y-81007079D02*
X153474524Y-81007079D01*
X153474524Y-81007079D02*
X153522143Y-81030889D01*
X153522143Y-81030889D02*
X153545952Y-81054698D01*
X153545952Y-81054698D02*
X153569762Y-81102317D01*
X153569762Y-81102317D02*
X153569762Y-81149936D01*
X153569762Y-81149936D02*
X153545952Y-81221365D01*
X153545952Y-81221365D02*
X153260238Y-81507079D01*
X153260238Y-81507079D02*
X153569762Y-81507079D01*
D11*
X155129999Y-63635002D02*
X155129999Y-65735000D01*
X152079997Y-64660001D02*
X152079997Y-65735000D01*
D12*
X152720580Y-72110000D02*
X152439420Y-72110000D01*
X152720580Y-71090000D02*
X152439420Y-71090000D01*
X151474420Y-85780000D02*
X151755580Y-85780000D01*
X151474420Y-86800000D02*
X151755580Y-86800000D01*
X150495579Y-64540000D02*
X150214419Y-64540000D01*
X150495579Y-63520000D02*
X150214419Y-63520000D01*
X145115580Y-88240000D02*
X144834420Y-88240000D01*
X145115580Y-87220000D02*
X144834420Y-87220000D01*
X143355000Y-92430000D02*
X145205000Y-92430000D01*
X143355000Y-94080000D02*
X143355000Y-92430000D01*
X144675000Y-97050000D02*
X154355000Y-97050000D01*
X145205000Y-92430000D02*
X145205000Y-91640000D01*
X155675000Y-92430000D02*
X153825000Y-92430000D01*
X155675000Y-94080000D02*
X155675000Y-92430000D01*
X150075000Y-75170580D02*
X150075000Y-74889420D01*
X151095000Y-75170580D02*
X151095000Y-74889420D01*
X139382742Y-86017500D02*
X139857258Y-86017500D01*
X139382742Y-87062500D02*
X139857258Y-87062500D01*
X142402742Y-86007500D02*
X142877258Y-86007500D01*
X142402742Y-87052500D02*
X142877258Y-87052500D01*
X146662500Y-90820000D02*
X146662500Y-88800000D01*
X146662500Y-90820000D02*
X142902500Y-90820000D01*
X146662500Y-88800000D02*
X142902500Y-88800000D01*
X156335000Y-76349420D02*
X156335000Y-76630580D01*
X155315000Y-76349420D02*
X155315000Y-76630580D01*
X156015000Y-86994420D02*
X156015000Y-87275580D01*
X154995000Y-86994420D02*
X154995000Y-87275580D01*
X152720580Y-70580000D02*
X152439420Y-70580000D01*
X152720580Y-69560000D02*
X152439420Y-69560000D01*
X147904420Y-85990000D02*
X148185580Y-85990000D01*
X147904420Y-87010000D02*
X148185580Y-87010000D01*
D13*
X139935200Y-81349200D02*
X139935200Y-82238200D01*
X140900400Y-81349200D02*
X140900400Y-82238200D01*
X141637000Y-81349200D02*
X141637000Y-82238200D01*
X142602200Y-81349200D02*
X142602200Y-82238200D01*
X143338800Y-81349200D02*
X143338800Y-82238200D01*
X144304000Y-81349200D02*
X144304000Y-82238200D01*
X145040600Y-81349200D02*
X145040600Y-82238200D01*
X146005800Y-81349200D02*
X146005800Y-82238200D01*
X146742400Y-81349200D02*
X146742400Y-82238200D01*
X147707600Y-81349200D02*
X147707600Y-82238200D01*
D12*
X151595000Y-74462500D02*
X151595000Y-76262500D01*
X151595000Y-74462500D02*
X151595000Y-73662500D01*
X154715000Y-74462500D02*
X154715000Y-75262500D01*
X154715000Y-74462500D02*
X154715000Y-73662500D01*
X155395000Y-68399420D02*
X155395000Y-68680580D01*
X154375000Y-68399420D02*
X154375000Y-68680580D01*
X150555000Y-88420000D02*
X149155000Y-88420000D01*
X149155000Y-90740000D02*
X151055000Y-90740000D01*
X156317500Y-73002742D02*
X156317500Y-73477258D01*
X155272500Y-73002742D02*
X155272500Y-73477258D01*
D13*
X149685200Y-79296650D02*
X149685200Y-83259050D01*
X149685200Y-83259050D02*
X150194158Y-83259050D01*
X151375258Y-79296650D02*
X149685200Y-79296650D01*
X151513042Y-83259050D02*
X152505558Y-83259050D01*
X153824442Y-83259050D02*
X154816958Y-83259050D01*
X156135842Y-83259050D02*
X156644800Y-83259050D01*
X156644800Y-79296650D02*
X154954742Y-79296650D01*
X156644800Y-83259050D02*
X156644800Y-79296650D01*
X148669200Y-84922750D02*
G75*
G03*
X148415200Y-84922750I-127000J0D01*
G01*
X148415200Y-84922750D02*
G75*
G03*
X148669200Y-84922750I127000J0D01*
G01*
%LPC*%
D14*
X154554999Y-63910000D03*
X153604998Y-63910000D03*
X152655000Y-63910000D03*
X152655000Y-66460000D03*
X153604998Y-66460000D03*
X154554999Y-66460000D03*
D15*
X153355000Y-71600000D03*
X151805000Y-71600000D03*
D16*
X150840000Y-86290000D03*
X152390000Y-86290000D03*
D15*
X151129999Y-64030000D03*
X149579999Y-64030000D03*
X145750000Y-87730000D03*
X144200000Y-87730000D03*
D17*
X145765000Y-92490000D03*
X147015000Y-92490000D03*
X148265000Y-92490000D03*
X149515000Y-92490000D03*
X150765000Y-92490000D03*
X152015000Y-92490000D03*
X153265000Y-92490000D03*
D18*
X143915000Y-95690000D03*
X155115000Y-95690000D03*
D19*
X150585000Y-75805000D03*
X150585000Y-74255000D03*
D20*
X138795000Y-86540000D03*
X140445000Y-86540000D03*
X141815000Y-86530000D03*
X143465000Y-86530000D03*
D21*
X145752500Y-89810000D03*
X142852500Y-89810000D03*
D22*
X155825000Y-75715000D03*
X155825000Y-77265000D03*
X155505000Y-86360000D03*
X155505000Y-87910000D03*
D15*
X153355000Y-70070000D03*
X151805000Y-70070000D03*
D16*
X147270000Y-86500000D03*
X148820000Y-86500000D03*
D23*
X140417800Y-83940000D03*
X142119600Y-83940000D03*
X143821400Y-83940000D03*
X145523200Y-83940000D03*
X147225000Y-83940000D03*
D24*
X143821400Y-75507200D03*
D25*
X152205000Y-75600000D03*
X153155000Y-75600000D03*
X154105000Y-75600000D03*
X154105000Y-73325000D03*
X153155000Y-73325000D03*
X152205000Y-73325000D03*
D22*
X154885000Y-67765000D03*
X154885000Y-69315000D03*
D26*
X150805000Y-90230000D03*
X150805000Y-89580000D03*
X150805000Y-88930000D03*
X148905000Y-88930000D03*
X148905000Y-90230000D03*
D27*
X155795000Y-72415000D03*
X155795000Y-74065000D03*
D28*
X150853600Y-84395700D03*
X153165000Y-84395700D03*
X155476400Y-84395700D03*
D29*
X153165000Y-78160000D03*
%LPD*%
M02*
