G04 #@! TF.GenerationSoftware,KiCad,Pcbnew,7.0.10*
G04 #@! TF.CreationDate,2024-08-16T14:30:36-05:00*
G04 #@! TF.ProjectId,DiffPCB,44696666-5043-4422-9e6b-696361645f70,rev?*
G04 #@! TF.SameCoordinates,Original*
G04 #@! TF.FileFunction,Legend,Bot*
G04 #@! TF.FilePolarity,Positive*
%FSLAX46Y46*%
G04 Gerber Fmt 4.6, Leading zero omitted, Abs format (unit mm)*
G04 Created by KiCad (PCBNEW 7.0.10) date 2024-08-16 14:30:36*
%MOMM*%
%LPD*%
G01*
G04 APERTURE LIST*
G04 Aperture macros list*
%AMRoundRect*
0 Rectangle with rounded corners*
0 $1 Rounding radius*
0 $2 $3 $4 $5 $6 $7 $8 $9 X,Y pos of 4 corners*
0 Add a 4 corners polygon primitive as box body*
4,1,4,$2,$3,$4,$5,$6,$7,$8,$9,$2,$3,0*
0 Add four circle primitives for the rounded corners*
1,1,$1+$1,$2,$3*
1,1,$1+$1,$4,$5*
1,1,$1+$1,$6,$7*
1,1,$1+$1,$8,$9*
0 Add four rect primitives between the rounded corners*
20,1,$1+$1,$2,$3,$4,$5,0*
20,1,$1+$1,$4,$5,$6,$7,0*
20,1,$1+$1,$6,$7,$8,$9,0*
20,1,$1+$1,$8,$9,$2,$3,0*%
G04 Aperture macros list end*
%ADD10C,0.040000*%
%ADD11C,0.120000*%
%ADD12C,0.152400*%
%ADD13RoundRect,0.225000X0.250000X-0.225000X0.250000X0.225000X-0.250000X0.225000X-0.250000X-0.225000X0*%
%ADD14RoundRect,0.200000X0.275000X-0.200000X0.275000X0.200000X-0.275000X0.200000X-0.275000X-0.200000X0*%
%ADD15R,0.977900X0.508000*%
%ADD16R,0.508000X0.977900*%
%ADD17RoundRect,0.200000X0.200000X0.275000X-0.200000X0.275000X-0.200000X-0.275000X0.200000X-0.275000X0*%
%ADD18RoundRect,0.225000X-0.225000X-0.250000X0.225000X-0.250000X0.225000X0.250000X-0.225000X0.250000X0*%
G04 APERTURE END LIST*
D10*
X148656610Y-85868569D02*
X148680420Y-85844760D01*
X148680420Y-85844760D02*
X148704229Y-85773331D01*
X148704229Y-85773331D02*
X148704229Y-85725712D01*
X148704229Y-85725712D02*
X148680420Y-85654284D01*
X148680420Y-85654284D02*
X148632800Y-85606665D01*
X148632800Y-85606665D02*
X148585181Y-85582855D01*
X148585181Y-85582855D02*
X148489943Y-85559046D01*
X148489943Y-85559046D02*
X148418515Y-85559046D01*
X148418515Y-85559046D02*
X148323277Y-85582855D01*
X148323277Y-85582855D02*
X148275658Y-85606665D01*
X148275658Y-85606665D02*
X148228039Y-85654284D01*
X148228039Y-85654284D02*
X148204229Y-85725712D01*
X148204229Y-85725712D02*
X148204229Y-85773331D01*
X148204229Y-85773331D02*
X148228039Y-85844760D01*
X148228039Y-85844760D02*
X148251848Y-85868569D01*
X148704229Y-86344760D02*
X148704229Y-86059046D01*
X148704229Y-86201903D02*
X148204229Y-86201903D01*
X148204229Y-86201903D02*
X148275658Y-86154284D01*
X148275658Y-86154284D02*
X148323277Y-86106665D01*
X148323277Y-86106665D02*
X148347086Y-86059046D01*
X148251848Y-86535236D02*
X148228039Y-86559045D01*
X148228039Y-86559045D02*
X148204229Y-86606664D01*
X148204229Y-86606664D02*
X148204229Y-86725712D01*
X148204229Y-86725712D02*
X148228039Y-86773331D01*
X148228039Y-86773331D02*
X148251848Y-86797140D01*
X148251848Y-86797140D02*
X148299467Y-86820950D01*
X148299467Y-86820950D02*
X148347086Y-86820950D01*
X148347086Y-86820950D02*
X148418515Y-86797140D01*
X148418515Y-86797140D02*
X148704229Y-86511426D01*
X148704229Y-86511426D02*
X148704229Y-86820950D01*
X142586610Y-85068569D02*
X142610420Y-85044760D01*
X142610420Y-85044760D02*
X142634229Y-84973331D01*
X142634229Y-84973331D02*
X142634229Y-84925712D01*
X142634229Y-84925712D02*
X142610420Y-84854284D01*
X142610420Y-84854284D02*
X142562800Y-84806665D01*
X142562800Y-84806665D02*
X142515181Y-84782855D01*
X142515181Y-84782855D02*
X142419943Y-84759046D01*
X142419943Y-84759046D02*
X142348515Y-84759046D01*
X142348515Y-84759046D02*
X142253277Y-84782855D01*
X142253277Y-84782855D02*
X142205658Y-84806665D01*
X142205658Y-84806665D02*
X142158039Y-84854284D01*
X142158039Y-84854284D02*
X142134229Y-84925712D01*
X142134229Y-84925712D02*
X142134229Y-84973331D01*
X142134229Y-84973331D02*
X142158039Y-85044760D01*
X142158039Y-85044760D02*
X142181848Y-85068569D01*
X142634229Y-85544760D02*
X142634229Y-85259046D01*
X142634229Y-85401903D02*
X142134229Y-85401903D01*
X142134229Y-85401903D02*
X142205658Y-85354284D01*
X142205658Y-85354284D02*
X142253277Y-85306665D01*
X142253277Y-85306665D02*
X142277086Y-85259046D01*
X142634229Y-86020950D02*
X142634229Y-85735236D01*
X142634229Y-85878093D02*
X142134229Y-85878093D01*
X142134229Y-85878093D02*
X142205658Y-85830474D01*
X142205658Y-85830474D02*
X142253277Y-85782855D01*
X142253277Y-85782855D02*
X142277086Y-85735236D01*
X151671360Y-86688572D02*
X151695170Y-86664763D01*
X151695170Y-86664763D02*
X151718979Y-86593334D01*
X151718979Y-86593334D02*
X151718979Y-86545715D01*
X151718979Y-86545715D02*
X151695170Y-86474287D01*
X151695170Y-86474287D02*
X151647550Y-86426668D01*
X151647550Y-86426668D02*
X151599931Y-86402858D01*
X151599931Y-86402858D02*
X151504693Y-86379049D01*
X151504693Y-86379049D02*
X151433265Y-86379049D01*
X151433265Y-86379049D02*
X151338027Y-86402858D01*
X151338027Y-86402858D02*
X151290408Y-86426668D01*
X151290408Y-86426668D02*
X151242789Y-86474287D01*
X151242789Y-86474287D02*
X151218979Y-86545715D01*
X151218979Y-86545715D02*
X151218979Y-86593334D01*
X151218979Y-86593334D02*
X151242789Y-86664763D01*
X151242789Y-86664763D02*
X151266598Y-86688572D01*
X151718979Y-87164763D02*
X151718979Y-86879049D01*
X151718979Y-87021906D02*
X151218979Y-87021906D01*
X151218979Y-87021906D02*
X151290408Y-86974287D01*
X151290408Y-86974287D02*
X151338027Y-86926668D01*
X151338027Y-86926668D02*
X151361836Y-86879049D01*
X151218979Y-87474286D02*
X151218979Y-87521905D01*
X151218979Y-87521905D02*
X151242789Y-87569524D01*
X151242789Y-87569524D02*
X151266598Y-87593334D01*
X151266598Y-87593334D02*
X151314217Y-87617143D01*
X151314217Y-87617143D02*
X151409455Y-87640953D01*
X151409455Y-87640953D02*
X151528503Y-87640953D01*
X151528503Y-87640953D02*
X151623741Y-87617143D01*
X151623741Y-87617143D02*
X151671360Y-87593334D01*
X151671360Y-87593334D02*
X151695170Y-87569524D01*
X151695170Y-87569524D02*
X151718979Y-87521905D01*
X151718979Y-87521905D02*
X151718979Y-87474286D01*
X151718979Y-87474286D02*
X151695170Y-87426667D01*
X151695170Y-87426667D02*
X151671360Y-87402858D01*
X151671360Y-87402858D02*
X151623741Y-87379048D01*
X151623741Y-87379048D02*
X151528503Y-87355239D01*
X151528503Y-87355239D02*
X151409455Y-87355239D01*
X151409455Y-87355239D02*
X151314217Y-87379048D01*
X151314217Y-87379048D02*
X151266598Y-87402858D01*
X151266598Y-87402858D02*
X151242789Y-87426667D01*
X151242789Y-87426667D02*
X151218979Y-87474286D01*
X142536611Y-89238821D02*
X142560421Y-89215012D01*
X142560421Y-89215012D02*
X142584230Y-89143583D01*
X142584230Y-89143583D02*
X142584230Y-89095964D01*
X142584230Y-89095964D02*
X142560421Y-89024536D01*
X142560421Y-89024536D02*
X142512801Y-88976917D01*
X142512801Y-88976917D02*
X142465182Y-88953107D01*
X142465182Y-88953107D02*
X142369944Y-88929298D01*
X142369944Y-88929298D02*
X142298516Y-88929298D01*
X142298516Y-88929298D02*
X142203278Y-88953107D01*
X142203278Y-88953107D02*
X142155659Y-88976917D01*
X142155659Y-88976917D02*
X142108040Y-89024536D01*
X142108040Y-89024536D02*
X142084230Y-89095964D01*
X142084230Y-89095964D02*
X142084230Y-89143583D01*
X142084230Y-89143583D02*
X142108040Y-89215012D01*
X142108040Y-89215012D02*
X142131849Y-89238821D01*
X142584230Y-89715012D02*
X142584230Y-89429298D01*
X142584230Y-89572155D02*
X142084230Y-89572155D01*
X142084230Y-89572155D02*
X142155659Y-89524536D01*
X142155659Y-89524536D02*
X142203278Y-89476917D01*
X142203278Y-89476917D02*
X142227087Y-89429298D01*
X142084230Y-89881678D02*
X142084230Y-90191202D01*
X142084230Y-90191202D02*
X142274706Y-90024535D01*
X142274706Y-90024535D02*
X142274706Y-90095964D01*
X142274706Y-90095964D02*
X142298516Y-90143583D01*
X142298516Y-90143583D02*
X142322325Y-90167392D01*
X142322325Y-90167392D02*
X142369944Y-90191202D01*
X142369944Y-90191202D02*
X142488992Y-90191202D01*
X142488992Y-90191202D02*
X142536611Y-90167392D01*
X142536611Y-90167392D02*
X142560421Y-90143583D01*
X142560421Y-90143583D02*
X142584230Y-90095964D01*
X142584230Y-90095964D02*
X142584230Y-89953107D01*
X142584230Y-89953107D02*
X142560421Y-89905488D01*
X142560421Y-89905488D02*
X142536611Y-89881678D01*
X145814229Y-89526666D02*
X145576134Y-89360000D01*
X145814229Y-89240952D02*
X145314229Y-89240952D01*
X145314229Y-89240952D02*
X145314229Y-89431428D01*
X145314229Y-89431428D02*
X145338039Y-89479047D01*
X145338039Y-89479047D02*
X145361848Y-89502857D01*
X145361848Y-89502857D02*
X145409467Y-89526666D01*
X145409467Y-89526666D02*
X145480896Y-89526666D01*
X145480896Y-89526666D02*
X145528515Y-89502857D01*
X145528515Y-89502857D02*
X145552324Y-89479047D01*
X145552324Y-89479047D02*
X145576134Y-89431428D01*
X145576134Y-89431428D02*
X145576134Y-89240952D01*
X145361848Y-89717143D02*
X145338039Y-89740952D01*
X145338039Y-89740952D02*
X145314229Y-89788571D01*
X145314229Y-89788571D02*
X145314229Y-89907619D01*
X145314229Y-89907619D02*
X145338039Y-89955238D01*
X145338039Y-89955238D02*
X145361848Y-89979047D01*
X145361848Y-89979047D02*
X145409467Y-90002857D01*
X145409467Y-90002857D02*
X145457086Y-90002857D01*
X145457086Y-90002857D02*
X145528515Y-89979047D01*
X145528515Y-89979047D02*
X145814229Y-89693333D01*
X145814229Y-89693333D02*
X145814229Y-90002857D01*
X152260702Y-89779230D02*
X152260702Y-90183992D01*
X152260702Y-90183992D02*
X152236892Y-90231611D01*
X152236892Y-90231611D02*
X152213083Y-90255421D01*
X152213083Y-90255421D02*
X152165464Y-90279230D01*
X152165464Y-90279230D02*
X152070226Y-90279230D01*
X152070226Y-90279230D02*
X152022607Y-90255421D01*
X152022607Y-90255421D02*
X151998797Y-90231611D01*
X151998797Y-90231611D02*
X151974988Y-90183992D01*
X151974988Y-90183992D02*
X151974988Y-89779230D01*
X151474987Y-90279230D02*
X151760701Y-90279230D01*
X151617844Y-90279230D02*
X151617844Y-89779230D01*
X151617844Y-89779230D02*
X151665463Y-89850659D01*
X151665463Y-89850659D02*
X151713082Y-89898278D01*
X151713082Y-89898278D02*
X151760701Y-89922087D01*
X140644229Y-92839047D02*
X141048991Y-92839047D01*
X141048991Y-92839047D02*
X141096610Y-92862857D01*
X141096610Y-92862857D02*
X141120420Y-92886666D01*
X141120420Y-92886666D02*
X141144229Y-92934285D01*
X141144229Y-92934285D02*
X141144229Y-93029523D01*
X141144229Y-93029523D02*
X141120420Y-93077142D01*
X141120420Y-93077142D02*
X141096610Y-93100952D01*
X141096610Y-93100952D02*
X141048991Y-93124761D01*
X141048991Y-93124761D02*
X140644229Y-93124761D01*
X140644229Y-93315238D02*
X140644229Y-93648571D01*
X140644229Y-93648571D02*
X141144229Y-93434286D01*
X144518333Y-82349227D02*
X144684999Y-82111132D01*
X144804047Y-82349227D02*
X144804047Y-81849227D01*
X144804047Y-81849227D02*
X144613571Y-81849227D01*
X144613571Y-81849227D02*
X144565952Y-81873037D01*
X144565952Y-81873037D02*
X144542142Y-81896846D01*
X144542142Y-81896846D02*
X144518333Y-81944465D01*
X144518333Y-81944465D02*
X144518333Y-82015894D01*
X144518333Y-82015894D02*
X144542142Y-82063513D01*
X144542142Y-82063513D02*
X144565952Y-82087322D01*
X144565952Y-82087322D02*
X144613571Y-82111132D01*
X144613571Y-82111132D02*
X144804047Y-82111132D01*
X144065952Y-81849227D02*
X144304047Y-81849227D01*
X144304047Y-81849227D02*
X144327856Y-82087322D01*
X144327856Y-82087322D02*
X144304047Y-82063513D01*
X144304047Y-82063513D02*
X144256428Y-82039703D01*
X144256428Y-82039703D02*
X144137380Y-82039703D01*
X144137380Y-82039703D02*
X144089761Y-82063513D01*
X144089761Y-82063513D02*
X144065952Y-82087322D01*
X144065952Y-82087322D02*
X144042142Y-82134941D01*
X144042142Y-82134941D02*
X144042142Y-82253989D01*
X144042142Y-82253989D02*
X144065952Y-82301608D01*
X144065952Y-82301608D02*
X144089761Y-82325418D01*
X144089761Y-82325418D02*
X144137380Y-82349227D01*
X144137380Y-82349227D02*
X144256428Y-82349227D01*
X144256428Y-82349227D02*
X144304047Y-82325418D01*
X144304047Y-82325418D02*
X144327856Y-82301608D01*
X143649297Y-86520769D02*
X143649297Y-86116007D01*
X143649297Y-86116007D02*
X143673107Y-86068388D01*
X143673107Y-86068388D02*
X143696916Y-86044579D01*
X143696916Y-86044579D02*
X143744535Y-86020769D01*
X143744535Y-86020769D02*
X143839773Y-86020769D01*
X143839773Y-86020769D02*
X143887392Y-86044579D01*
X143887392Y-86044579D02*
X143911202Y-86068388D01*
X143911202Y-86068388D02*
X143935011Y-86116007D01*
X143935011Y-86116007D02*
X143935011Y-86520769D01*
X144387393Y-86520769D02*
X144292155Y-86520769D01*
X144292155Y-86520769D02*
X144244536Y-86496959D01*
X144244536Y-86496959D02*
X144220726Y-86473150D01*
X144220726Y-86473150D02*
X144173107Y-86401721D01*
X144173107Y-86401721D02*
X144149298Y-86306483D01*
X144149298Y-86306483D02*
X144149298Y-86116007D01*
X144149298Y-86116007D02*
X144173107Y-86068388D01*
X144173107Y-86068388D02*
X144196917Y-86044579D01*
X144196917Y-86044579D02*
X144244536Y-86020769D01*
X144244536Y-86020769D02*
X144339774Y-86020769D01*
X144339774Y-86020769D02*
X144387393Y-86044579D01*
X144387393Y-86044579D02*
X144411202Y-86068388D01*
X144411202Y-86068388D02*
X144435012Y-86116007D01*
X144435012Y-86116007D02*
X144435012Y-86235055D01*
X144435012Y-86235055D02*
X144411202Y-86282674D01*
X144411202Y-86282674D02*
X144387393Y-86306483D01*
X144387393Y-86306483D02*
X144339774Y-86330293D01*
X144339774Y-86330293D02*
X144244536Y-86330293D01*
X144244536Y-86330293D02*
X144196917Y-86306483D01*
X144196917Y-86306483D02*
X144173107Y-86282674D01*
X144173107Y-86282674D02*
X144149298Y-86235055D01*
X154951360Y-91428572D02*
X154975170Y-91404763D01*
X154975170Y-91404763D02*
X154998979Y-91333334D01*
X154998979Y-91333334D02*
X154998979Y-91285715D01*
X154998979Y-91285715D02*
X154975170Y-91214287D01*
X154975170Y-91214287D02*
X154927550Y-91166668D01*
X154927550Y-91166668D02*
X154879931Y-91142858D01*
X154879931Y-91142858D02*
X154784693Y-91119049D01*
X154784693Y-91119049D02*
X154713265Y-91119049D01*
X154713265Y-91119049D02*
X154618027Y-91142858D01*
X154618027Y-91142858D02*
X154570408Y-91166668D01*
X154570408Y-91166668D02*
X154522789Y-91214287D01*
X154522789Y-91214287D02*
X154498979Y-91285715D01*
X154498979Y-91285715D02*
X154498979Y-91333334D01*
X154498979Y-91333334D02*
X154522789Y-91404763D01*
X154522789Y-91404763D02*
X154546598Y-91428572D01*
X154998979Y-91904763D02*
X154998979Y-91619049D01*
X154998979Y-91761906D02*
X154498979Y-91761906D01*
X154498979Y-91761906D02*
X154570408Y-91714287D01*
X154570408Y-91714287D02*
X154618027Y-91666668D01*
X154618027Y-91666668D02*
X154641836Y-91619049D01*
X154498979Y-92357143D02*
X154498979Y-92119048D01*
X154498979Y-92119048D02*
X154737074Y-92095239D01*
X154737074Y-92095239D02*
X154713265Y-92119048D01*
X154713265Y-92119048D02*
X154689455Y-92166667D01*
X154689455Y-92166667D02*
X154689455Y-92285715D01*
X154689455Y-92285715D02*
X154713265Y-92333334D01*
X154713265Y-92333334D02*
X154737074Y-92357143D01*
X154737074Y-92357143D02*
X154784693Y-92380953D01*
X154784693Y-92380953D02*
X154903741Y-92380953D01*
X154903741Y-92380953D02*
X154951360Y-92357143D01*
X154951360Y-92357143D02*
X154975170Y-92333334D01*
X154975170Y-92333334D02*
X154998979Y-92285715D01*
X154998979Y-92285715D02*
X154998979Y-92166667D01*
X154998979Y-92166667D02*
X154975170Y-92119048D01*
X154975170Y-92119048D02*
X154951360Y-92095239D01*
X141171429Y-97426860D02*
X141195238Y-97450670D01*
X141195238Y-97450670D02*
X141266667Y-97474479D01*
X141266667Y-97474479D02*
X141314286Y-97474479D01*
X141314286Y-97474479D02*
X141385714Y-97450670D01*
X141385714Y-97450670D02*
X141433333Y-97403050D01*
X141433333Y-97403050D02*
X141457143Y-97355431D01*
X141457143Y-97355431D02*
X141480952Y-97260193D01*
X141480952Y-97260193D02*
X141480952Y-97188765D01*
X141480952Y-97188765D02*
X141457143Y-97093527D01*
X141457143Y-97093527D02*
X141433333Y-97045908D01*
X141433333Y-97045908D02*
X141385714Y-96998289D01*
X141385714Y-96998289D02*
X141314286Y-96974479D01*
X141314286Y-96974479D02*
X141266667Y-96974479D01*
X141266667Y-96974479D02*
X141195238Y-96998289D01*
X141195238Y-96998289D02*
X141171429Y-97022098D01*
X140695238Y-97474479D02*
X140980952Y-97474479D01*
X140838095Y-97474479D02*
X140838095Y-96974479D01*
X140838095Y-96974479D02*
X140885714Y-97045908D01*
X140885714Y-97045908D02*
X140933333Y-97093527D01*
X140933333Y-97093527D02*
X140980952Y-97117336D01*
X140266667Y-97141146D02*
X140266667Y-97474479D01*
X140385715Y-96950670D02*
X140504762Y-97307812D01*
X140504762Y-97307812D02*
X140195239Y-97307812D01*
D11*
X146535000Y-86330578D02*
X146535000Y-86049418D01*
X147555000Y-86330578D02*
X147555000Y-86049418D01*
X140465000Y-85530578D02*
X140465000Y-85249418D01*
X141485000Y-85530578D02*
X141485000Y-85249418D01*
X149549750Y-87150581D02*
X149549750Y-86869421D01*
X150569750Y-87150581D02*
X150569750Y-86869421D01*
X140415001Y-89700830D02*
X140415001Y-89419670D01*
X141435001Y-89700830D02*
X141435001Y-89419670D01*
X143632500Y-89847258D02*
X143632500Y-89372742D01*
X144677500Y-89847258D02*
X144677500Y-89372742D01*
D12*
X152883050Y-91701001D02*
X150876450Y-91701001D01*
X150876450Y-90413262D02*
X150876450Y-89686740D01*
X150876450Y-88399001D02*
X152883050Y-88399001D01*
X142566000Y-92216700D02*
X142566000Y-94223300D01*
X141278261Y-94223300D02*
X140551739Y-94223300D01*
X139264000Y-94223300D02*
X139264000Y-92216700D01*
D11*
X144672258Y-84072498D02*
X144197742Y-84072498D01*
X144672258Y-83027498D02*
X144197742Y-83027498D01*
D12*
X143026950Y-84598999D02*
X145033550Y-84598999D01*
X145033550Y-85886738D02*
X145033550Y-86613260D01*
X145033550Y-87900999D02*
X143026950Y-87900999D01*
D11*
X154359750Y-89330581D02*
X154359750Y-89049421D01*
X155379750Y-89330581D02*
X155379750Y-89049421D01*
X140739421Y-95595250D02*
X141020581Y-95595250D01*
X140739421Y-96615250D02*
X141020581Y-96615250D01*
%LPC*%
D13*
X147045000Y-86964998D03*
X147045000Y-85414998D03*
X140975000Y-86164998D03*
X140975000Y-84614998D03*
X150059750Y-87785001D03*
X150059750Y-86235001D03*
X140925001Y-90335250D03*
X140925001Y-88785250D03*
D14*
X144155000Y-90435000D03*
X144155000Y-88785000D03*
D15*
X153245000Y-89100000D03*
X153245000Y-90050001D03*
X153245000Y-91000002D03*
X150514500Y-91000002D03*
X150514500Y-89100000D03*
D16*
X139964999Y-91854750D03*
X140915000Y-91854750D03*
X141865001Y-91854750D03*
X141865001Y-94585250D03*
X139964999Y-94585250D03*
D17*
X145260000Y-83549998D03*
X143610000Y-83549998D03*
D15*
X142665000Y-87200000D03*
X142665000Y-86249999D03*
X142665000Y-85299998D03*
X145395500Y-85299998D03*
X145395500Y-87200000D03*
D13*
X154869750Y-89965001D03*
X154869750Y-88415001D03*
D18*
X140105001Y-96105250D03*
X141655001Y-96105250D03*
%LPD*%
M02*
